<svg width="1920" height="1052" viewBox="0 0 1920 1052" fill="none" xmlns="http://www.w3.org/2000/svg">
<path d="M1613.18 837.679L1624 826.545C1676.01 849.287 1730.48 873.056 1740.17 876.854C1737.58 883.094 1735.01 889.344 1732.45 895.605C1725.3 913.259 1716.56 935.063 1709.87 953.005L1709.53 953.139C1693.28 942.662 1661.25 922.026 1645.23 911.788C1629.13 901.443 1596.82 880.728 1580.56 870.395C1591.23 860.012 1602.75 848.325 1613.18 837.679ZM1601.66 742.191C1601.67 742.184 1601.69 742.173 1601.69 742.174C1623.73 733.661 1656.9 720.856 1690.11 708.014C1696.49 716.14 1702.95 724.197 1709.49 732.202C1716.37 740.662 1723.32 749.069 1730.32 757.439C1731.29 775.012 1734.01 799.201 1735.4 816.764C1737.06 833.926 1739.36 858.559 1741.28 875.675C1741.17 875.717 1741.1 875.745 1741.09 875.75C1740.5 875.235 1681.04 849.816 1624.3 825.636C1624.33 825.564 1624.34 825.513 1624.34 825.513C1617.3 798.086 1609.65 769.399 1601.66 742.191ZM1628.4 188.632C1591.49 193.57 1554.01 198.68 1523.99 202.997C1529.35 189.676 1536.49 170.823 1541.57 157.566C1546.33 144.285 1554.25 124.628 1558.62 111.246C1566.04 106.077 1573.44 100.86 1580.8 95.5751C1587.63 90.6671 1594.43 85.6907 1601.16 80.6345C1623.84 97.4839 1646.47 114.26 1664.56 127.494C1664.58 127.509 1664.6 127.527 1664.62 127.543C1652.06 147.612 1640.13 168.064 1628.4 188.632ZM1522.77 206.031C1523.4 211.199 1524.03 216.366 1524.69 221.529C1526.76 237.696 1529.27 255.731 1531.9 271.923C1525.8 267.447 1487.2 239.13 1484.14 236.883C1497.22 226.851 1510.05 216.504 1522.77 206.031ZM1521.9 204.171C1509.14 214.873 1496.48 225.707 1484.09 236.846C1484.04 236.808 1484 236.78 1483.98 236.762C1484.14 236.365 1457.68 186.338 1458.03 186.505C1451.79 174.568 1439.68 151.299 1432.76 138.179C1436.04 140.609 1519.94 202.714 1521.9 204.171ZM1538.11 33.7884C1538.17 33.8298 1538.22 33.8714 1538.27 33.9128C1543.85 58.2026 1550.36 84.4003 1556.52 108.618C1552.51 106.713 1543.56 102.473 1543.56 102.473C1529.45 95.8759 1513.84 88.6951 1499.54 82.5889C1499.87 82.1646 1536.91 35.303 1538.11 33.7884ZM1537.96 162.651L1490.48 178.345L1433.34 136.046C1441.8 129.268 1499.15 82.9312 1499.36 82.8067C1499.36 82.8067 1499.48 82.6531 1499.48 82.6521C1508.89 87.5984 1518.39 92.3694 1527.91 97.072C1535.02 100.564 1549.11 107.346 1556.75 110.967C1551.69 124.526 1544.9 143.393 1539.97 156.977C1539.34 158.772 1538.66 160.675 1537.96 162.651ZM1523.82 203.022L1490.53 178.383L1537.12 165.026C1532.76 177.324 1527.61 192.008 1523.92 203.009C1523.88 203.013 1523.85 203.018 1523.82 203.022ZM1558.6 108.807C1552.27 84.477 1545.28 58.1404 1538.38 33.9958C1556.47 47.3929 1578.77 64.0007 1601.05 80.5504C1586.71 89.6888 1572.6 99.1759 1558.6 108.807ZM1634.6 201.118C1638.02 207.234 1641.66 213.7 1645.32 220.085C1606.1 223.792 1573.23 226.899 1573.21 226.906C1573.21 226.906 1572.83 227.361 1572.83 227.362C1573.32 236.672 1573.99 247.6 1574.7 258.882C1559.99 263.49 1542.73 268.909 1532.31 272.22C1532.22 272.158 1532.12 272.085 1532.01 272.003C1530.62 255.632 1528.64 237.496 1526.68 221.283C1526.04 215.846 1525.37 210.415 1524.66 204.986C1554.37 200.859 1591.74 195.492 1628.51 190.115C1628.89 190.802 1634.6 201.118 1634.6 201.118ZM1675.21 217.264C1675.01 217.281 1674.83 217.3 1674.63 217.319C1674.88 217.092 1675.13 216.867 1675.38 216.64C1675.32 216.848 1675.26 217.056 1675.21 217.264ZM1768.05 234.638C1761.36 259.185 1753.44 289.13 1746.99 313.905L1666.71 283.428L1747.08 316.137C1752.56 323.21 1758.14 330.21 1763.68 337.24C1747.41 355.785 1722.82 384.186 1706.91 402.465C1700.45 385.179 1690.8 360.661 1684.11 343.447C1677.05 326.186 1667.91 301.691 1660.46 284.586C1663.1 273.271 1665.68 261.944 1668.18 250.596C1670.58 239.734 1672.91 228.852 1675.12 217.948C1725.45 213.002 1775.6 207.967 1775.39 208.03L1775.41 208.036C1772.9 216.889 1770.5 225.77 1768.05 234.638ZM1788.24 333.812C1811.14 329.545 1834.04 325.181 1856.88 320.564C1843.85 342.524 1829.64 366.57 1815.45 390.636C1790.28 387.246 1765.2 383.887 1748.2 381.611C1747.94 381.387 1747.68 381.158 1747.43 380.936C1747.34 381.078 1746.32 407.38 1745.25 435.03C1735.39 426.328 1725.49 417.695 1716.3 409.682L1708.17 402.72C1724.38 384.409 1747.71 355.945 1763.69 337.249C1763.81 337.406 1763.94 337.564 1764.06 337.722L1765 338.077L1788.24 333.812ZM1981.91 591.254C2008.15 595.811 2035.42 600.419 2061.68 604.376C2061.69 604.494 2061.69 604.57 2061.69 604.57C2045.23 643.525 2010.49 728.469 1993.46 769.835C1992.26 755.998 1983.71 608.613 1981.91 591.254ZM1810.06 742.483L1792.75 701.857C1806.12 683.289 1819.47 664.585 1832.21 646.677C1840.6 678.527 1850 713.264 1859.19 744.784C1857.53 744.842 1835.79 745.596 1812.96 746.387C1811.08 743.8 1810 742.351 1810.06 742.483ZM1778.76 673.669C1781.96 681.199 1806.43 738.914 1808.16 743.013C1795.41 744.853 1782.7 746.889 1769.99 749.004C1760.91 750.533 1743.25 753.602 1733.03 755.441C1748.03 729.036 1764.16 700.347 1778.59 673.739C1778.65 673.716 1778.71 673.693 1778.76 673.669ZM1811.58 639.664L1831.01 644.963C1818.37 662.86 1805.18 681.621 1792.12 700.363L1780.09 672.151L1778.93 671.66C1771.91 674.405 1763.75 677.597 1754.83 681.093C1753.67 662.945 1752.36 642.713 1751.04 622.504C1770.33 628.193 1792.31 634.392 1811.58 639.664ZM1742.86 498.137C1768.91 494.065 1801.1 488.39 1827.16 483.69C1834.13 482.458 1848.08 479.884 1855.12 478.554C1901.59 520.138 1949.21 562.687 1980.37 590.408C1958.79 597.806 1928.13 608.818 1906.6 616.453C1884.96 624.509 1854.27 634.966 1832.84 643.406C1825.99 641.594 1808.21 636.89 1801.63 635.158C1786.05 631.184 1766.85 626.209 1751.03 622.411C1746.97 560.134 1742.83 498.123 1742.86 498.158V498.137ZM1747.39 382.074C1774.11 406.031 1813.17 441.035 1853.28 476.913C1850.76 477.365 1840.83 479.145 1840.83 479.145C1809.74 484.908 1773.75 491.65 1742.86 498.131L1747.39 382.074ZM1861.67 458.063L1854.56 476.215C1814.41 440.469 1775.2 405.592 1748.21 381.624C1782.57 386.684 1850.58 396.667 1884.57 401.499C1876.75 420.277 1869.16 439.152 1861.67 458.063ZM2061.68 604.332C2035.92 599.116 2009.07 594.144 1983.1 589.488C1985.64 586.754 1991.29 580.674 1991.29 580.674C2011.68 558.425 2035.22 532.691 2055.16 509.929C2055.83 519.68 2061.34 599.51 2061.68 604.332ZM1980.66 590.67C1980.53 591.139 1982.47 621.413 1984.81 657.025L1918.89 613.687C1938.79 606.244 1962.86 597.19 1980.39 590.431C1980.49 590.509 1980.58 590.591 1980.66 590.67ZM1859.21 744.783C1851.5 712.396 1842.34 677.026 1833.78 644.836C1852.73 638.536 1886.21 625.599 1907.19 618.056C1910.13 616.96 1913.26 615.792 1916.5 614.579L1984.81 657.054C1987.99 705.21 1991.89 763.098 1992.4 770.222C1981.95 768.208 1859.39 744.809 1859.31 744.78C1859.31 744.78 1859.27 744.781 1859.21 744.783ZM1884.73 401.523C1885.2 401.98 1927.52 428.774 1927.19 428.569C1954.47 445.857 2026.44 491.334 2055.13 509.448C2055.13 509.559 2055.14 509.689 2055.15 509.836C2034.05 531.579 2010.33 557.122 1989.77 579.279L1980.93 588.938C1949.9 561.166 1902.48 518.892 1856.09 477.587C1857.07 475.043 1863.33 458.707 1863.33 458.707C1870.56 439.693 1877.7 420.644 1884.6 401.504C1884.64 401.511 1884.69 401.517 1884.73 401.523ZM1706.07 403.906C1703.1 425.145 1700.12 447.209 1697.73 468.467C1664.3 455.868 1598.18 431.043 1563.42 418.186C1604.28 414.081 1665.98 408.142 1706.07 403.906ZM1573.71 227.645C1600.48 246.17 1629.91 265.92 1657.14 284.023C1646.56 287.178 1628.19 292.741 1618.79 295.661C1607.29 299.257 1590.89 304.445 1579.42 308.286L1576.58 267.907C1575.62 254.486 1574.73 241.06 1573.71 227.645ZM1682.52 344.083C1689.55 361.136 1699.67 385.624 1706.89 402.493C1706.88 402.507 1706.86 402.52 1706.85 402.534C1706.35 402.579 1670.6 405.895 1670.6 405.895C1647.51 408.067 1587.63 413.815 1562.45 416.232C1564.45 403.936 1579.34 308.662 1579.44 308.511L1579.43 308.347C1591.2 305.277 1607.64 300.559 1619.27 297.289C1629.15 294.445 1648.77 288.653 1659.05 285.565C1664.32 300.264 1676.01 327.484 1682.52 344.083ZM1675.03 217.957C1669.29 239.473 1663.96 261.101 1658.82 282.769C1631.35 264.68 1601.41 245.127 1573.71 227.617C1573.7 227.524 1573.69 227.429 1573.69 227.335C1574.59 227.716 1624.89 222.882 1675.03 217.957ZM1697.92 468.538C1697.88 468.521 1697.83 468.502 1697.78 468.484C1701.44 447.687 1704.78 426.026 1707.87 405.06C1710.25 407.134 1714.95 411.238 1714.95 411.238C1724.5 419.432 1734.81 428.273 1745.16 437.029C1744.81 446.155 1744.45 455.361 1744.11 463.763C1722.98 465.908 1698.57 468.401 1697.92 468.538ZM1690.21 707.975C1723.21 695.215 1756.25 682.426 1778.49 673.774C1762.8 699.92 1746.18 728.591 1730.97 755.079C1717.59 739.206 1704.06 723.448 1690.21 707.975ZM1788.3 857.378L1737.66 823.989C1737.46 821.424 1737.28 818.951 1737.09 816.617C1735.54 800.101 1733.84 771.988 1732.02 757.68C1741.97 755.924 1760.81 752.467 1770.29 750.676C1782.94 748.257 1795.59 745.762 1808.19 743.07C1808.24 743.183 1808.27 743.248 1808.27 743.248C1808.32 743.436 1861.28 816.682 1868.2 826.291C1860.95 829.114 1821.4 844.501 1788.3 857.378ZM1741.61 878.633C1753.15 895.006 1764.84 911.283 1776.84 927.318L1709.98 952.961C1717.86 935.486 1726.99 913.959 1734.31 896.368C1736.77 890.467 1739.2 884.554 1741.61 878.633ZM1741.32 875.658C1740.44 861.471 1739.05 842.418 1737.85 826.514L1788.26 857.396C1764.27 866.727 1743.72 874.725 1741.32 875.658ZM1777.06 927.236L1776.9 927.299C1765.83 910.322 1754.41 893.576 1742.85 876.929L1868.22 828.409C1856.22 841.371 1834.2 865.03 1823.15 877.024C1823.39 876.719 1777.79 926.322 1777.06 927.236ZM2063.45 604.452L2057.07 508.811L2056.61 508.04C2028.53 490.334 1955.3 444.146 1928.14 427.072C1927.9 427.019 1885.2 399.985 1884.96 400.077C1868.09 397.745 1842.86 394.329 1817.5 390.912C1831.6 366.831 1845.67 342.752 1858.48 320.743C1856.24 300.335 1850.28 259.846 1847.57 239.43C1849.93 258.753 1854.63 302.605 1857.21 320.001C1857.11 320.173 1857 320.35 1856.9 320.523C1833.88 324.166 1810.89 328.065 1787.92 332.06C1787.92 332.06 1766.33 335.874 1765.23 336.068C1759.75 329.054 1754.3 322.009 1748.77 315.036C1755.17 290.112 1762.85 259.802 1768.96 234.875C1771.11 225.929 1773.32 216.998 1775.41 208.038C1775.45 208.055 1847.57 239.43 1847.57 239.43L1775.49 207.81C1775.48 207.8 1725.51 212.513 1675.25 217.259C1675.3 217.049 1675.34 216.839 1675.39 216.63C1690.92 202.55 1708.6 186.36 1719.35 176.613C1708.44 186.179 1688.75 203.33 1672.64 217.506C1663.81 218.339 1655 219.172 1646.47 219.977C1643.04 213.298 1639.53 206.585 1636.18 200.256L1630.6 189.809C1662.6 185.126 1694.01 180.456 1719.35 176.613C1693.84 179.954 1662.65 184.054 1630.9 188.298C1642.5 168.255 1653.89 148.087 1664.66 127.584C1680.32 141.696 1703.81 162.319 1719.35 176.613C1703.89 162.191 1681.16 140.884 1665.6 126.088C1629.65 98.8181 1575.13 58.9755 1538.53 31.5476L1537.11 31.7343L1497.74 81.5287C1498.46 80.7662 1431 135.433 1431 135.273L1431.03 136.903C1431.03 136.903 1432.59 138.056 1432.65 138.097C1439.19 151.317 1451.05 174.997 1457.03 187.011L1482.65 237.839L1482.91 238.146L1531.54 274.116L1532.42 274.264C1542.7 271.053 1560.01 265.588 1574.82 260.898C1575.88 277.527 1577 294.764 1577.74 308.622C1577.76 307.745 1560.3 417.33 1560.22 417.217L1561.33 418.395C1561.98 418.33 1562.65 418.263 1563.32 418.196C1597.79 431.715 1664.1 457.363 1697.32 470.181C1697.5 470.378 1722.47 467.843 1744.04 465.66C1743.31 483.999 1742.72 498.051 1742.64 498.15C1742.87 498.255 1746.57 560.042 1750.38 622.255C1750.05 622.175 1749.71 622.092 1749.37 622.013C1749.71 622.111 1750.05 622.212 1750.38 622.311C1751.63 642.682 1752.89 663.095 1754.04 681.403C1734.75 688.963 1711.95 697.911 1689.2 706.849C1689.14 706.773 1689.07 706.695 1689.01 706.619C1689.07 706.698 1689.13 706.776 1689.19 706.855C1656.18 719.821 1623.29 732.759 1601.38 741.377C1601.36 741.387 1522.67 782.385 1522.65 782.402C1522.64 782.425 1599.28 743.38 1601.63 742.202C1607.8 769.401 1614.96 797.702 1622.05 824.677C1584.06 808.486 1547.68 793.011 1531.47 786.131C1547.67 793.139 1584.04 809.07 1622.06 825.696C1619.82 828.063 1611.89 836.429 1611.89 836.429C1601.67 847.275 1590.45 859.315 1580.53 870.369C1580.48 870.349 1580.45 870.326 1580.42 870.305C1567.15 849.663 1536.83 803.931 1522.65 782.402C1536.82 804.675 1565.23 849.432 1579.62 871.535C1595.67 881.999 1628.12 902.985 1644.2 913.378C1660.29 923.813 1692.74 944.697 1708.87 955.079L1709.77 955.17L1777.71 928.863L1778.04 928.637L1823.98 877.774C1834.98 865.577 1856.43 841.57 1868.28 828.382L1870.11 827.676L1870.55 826.171C1870.56 826.378 1826.36 764.808 1813.52 747.16C1837.09 746.387 1859.33 745.658 1859.33 745.658C1858.87 745.622 1992.98 771.452 1992.9 771.476L1993.58 770.882C1993.56 770.862 1993.52 770.508 1993.46 769.864C2011.26 728.022 2046.31 645.732 2063.45 604.452Z" fill="#B1A687" fill-opacity="0.32"/>
<path d="M442.17 942.535C437.597 947.36 428.48 957.137 423.971 962.024C423.971 962.024 423.942 962.139 423.93 962.186C348.389 955.067 269.074 947.64 268.082 947.791C268.082 947.791 267.942 947.626 267.941 947.625C280.033 930.094 296.9 904.836 308.794 887.17C320.544 869.09 337.777 844.218 349.142 825.94C355.294 823.486 371.247 817.122 377.143 814.765C390.93 809.113 407.93 802.224 421.837 796.284C459.62 840.793 497.23 885.099 497.163 885.014L497.211 885.084C479.941 902.56 459.041 924.594 442.17 942.535ZM444.807 1036.16C444.489 1036.18 397.803 1039.53 397.803 1039.53C367.725 1041.73 288.458 1047.62 256.839 1049.99C256.767 1049.9 256.683 1049.8 256.589 1049.69C260.374 1021.67 263.975 989.338 267.077 961.306L268.333 949.15C279.845 950.461 353.502 956.926 423.775 963.052C424.18 964.508 428.905 981.469 428.905 981.469C434.06 999.735 439.31 1017.98 444.807 1036.16ZM-33.1019 348.272L-17.2452 353.586C-15.1683 415.052 -12.942 479.445 -12.0914 490.197C-13.3871 490.263 -22.6563 490.739 -22.6563 490.739C-46.9471 492.188 -74.9446 493.882 -99.3723 495.99C-99.5477 495.823 -99.7053 495.672 -99.8412 495.541C-98.114 482.118 -96.3493 468.699 -94.7133 455.265C-90.2276 417.945 -83.4855 367.305 -79.7415 332.272C-79.6938 332.193 -79.644 332.111 -79.5963 332.032C-64.1629 337.631 -48.6474 342.999 -33.1019 348.272ZM-16.1746 353.454L-7.19794 345.954C12.4806 329.265 35.2194 309.908 54.4072 292.67C54.4197 292.681 54.4384 292.695 54.4373 292.694C72.9799 310.17 100.867 336.452 128.817 362.773C121.603 377.478 113.691 394.23 106.888 408.966L99.5281 424.961C82.8943 434.099 60.5943 448.027 44.1255 457.544C28.1775 467.146 5.24672 480.864 -10.5312 490.661C-10.6193 490.579 -10.6764 490.525 -10.6868 490.516C-10.4751 489.708 -13.4131 419.952 -16.2784 353.475C-16.2576 353.47 -16.1746 353.454 -16.1746 353.454ZM60.6908 221.467C86.1985 217.472 117.307 212.36 142.769 208.083L143.491 207.561C147.756 199.572 151.91 191.523 156.11 183.501C179.682 190.759 215.658 201.596 238.844 208.638C225.711 221.605 207.279 240.43 194.306 253.577C181.441 267.08 162.822 285.432 150.258 299.225C150.171 299.241 150.084 299.259 149.997 299.276L143.313 208.333L142.286 208.421L141.26 208.507L149.948 299.286C138.648 301.485 127.357 303.74 116.084 306.077C105.187 308.325 94.3089 310.657 83.4535 313.098C58.3587 269.18 33.2618 225.476 33.4019 225.636V225.62C42.5082 224.293 51.5948 222.852 60.6908 221.467ZM102.787 105.263C153.494 111.08 213.768 117.826 264.486 123.396C264.54 123.49 264.603 123.6 264.674 123.725C256.904 146.922 248.694 173.802 241.592 197.123C241.592 197.123 238.811 206.54 238.562 207.384C215.223 200.08 179.706 190.422 156.115 183.491C156.208 183.312 156.3 183.135 156.393 182.957L156.336 181.96L142.941 162.492C129.681 143.33 116.339 124.222 102.787 105.263ZM443.683 109.334L433.216 115.888C397.655 88.6981 360.463 60.3199 353 55.1567C356.16 50.8588 359.3 46.5463 362.416 42.2161C371.963 28.9851 381.366 15.644 390.435 2.08521L390.801 2.03333C401.438 13.2477 422.308 35.2095 432.779 46.1323C443.305 57.1776 464.428 79.2825 475.104 90.3537C464.862 96.2877 453.758 103.102 443.683 109.334ZM434.709 185.593C434.698 185.595 434.686 185.598 434.675 185.6C415.969 188.025 387.834 191.68 359.653 195.355C356.32 187.869 352.891 180.427 349.386 173.022C345.707 165.229 341.955 157.473 338.153 149.741C339.411 141.968 340.57 134.179 341.734 126.39L345.278 102.682C347.183 89.1182 349.974 69.6938 351.639 56.0623C351.773 56.0447 351.86 56.0322 351.86 56.0322C350.522 55.3787 392.554 86.7841 432.703 116.702C432.666 116.77 432.641 116.819 432.641 116.819C432.917 139.753 433.437 162.688 434.709 185.593ZM236.377 593.726C216.322 626.518 192.042 666.689 172.228 699.629L172.156 700.517C177.072 713.042 182.105 725.521 187.09 738.018C159.605 755.626 105.341 790.268 78.1358 807.825C74.6345 764.077 69.7214 709.994 65.6402 666.185C64.0115 650.598 63.0758 634.822 61.0435 619.326C64.7616 612.745 74.4768 595.547 78.0517 589.208C86.6269 573.731 97.3288 554.577 105.672 539.003C180.297 548.698 258.109 558.732 257.937 558.668L257.95 558.679C256.672 560.755 236.377 593.726 236.377 593.726ZM37.1749 898.377C37.1303 898.344 37.0836 898.308 37.038 898.273C50.9226 869.6 64.9369 839.608 78.3308 810.583C79.8599 812.982 86.3188 823.115 86.3188 823.115C106.085 853.753 128.966 889.141 149.342 919.459C138.516 917.375 38.7642 898.617 37.1749 898.377ZM-29.1712 788.83C-28.7708 788.646 63.7283 806.838 76.9583 808.905C63.5831 838.234 49.8001 868.757 37.0099 898.253C-5.64395 865.929 -90.4309 801.699 -134.331 768.724C-119.522 771.556 -29.1702 788.83 -29.1712 788.83ZM-29.0447 521.297C-1.41548 552.476 30.2243 587.497 58.3473 618.322C25.6068 627.274 -10.1452 637.297 -42.5983 647.058C-42.59 646.958 -42.5838 646.887 -42.5838 646.887L-74.9415 584.991C-71.4558 580.155 -30.6537 523.532 -29.0447 521.297ZM-28.8434 520.757C-29.3849 520.708 -29.6712 520.694 -29.6816 520.719C-29.6816 520.719 -39.095 533.612 -47.5322 545.171C-58.5391 534.527 -92.2485 502.781 -99.2271 496.128C-74.735 495.492 -46.8112 494.067 -22.5412 492.795L-13.0199 492.218C-18.2754 501.597 -23.5921 511.162 -28.8434 520.757ZM29.1195 527.861C8.82373 508.82 -8.56213 492.508 -10.5 490.69C3.229 483.012 21.7176 472.424 36.8658 463.699C32.9755 484.902 30.3779 506.339 29.1195 527.861ZM26.3527 527.765C-0.408173 524.251 -20.595 521.652 -27.2852 520.918C-21.7776 511.455 -16.3323 501.952 -11.0042 492.599C-10.3994 493.169 9.27289 511.687 26.3527 527.765ZM59.9833 617.185C31.7358 586.356 -0.370819 551.678 -29.0364 521.287C-29.0083 521.248 -28.9896 521.222 -28.9896 521.222C-29.8756 521.325 36.5183 530.018 105.652 539C94.3826 557.75 81.7086 579.402 70.8013 598.355L59.9833 617.185ZM69.5606 725.833L-0.876007 792.372C-16.8873 789.247 -28.9212 786.935 -28.8268 787.047C-28.8268 787.047 -131.205 767.25 -134.367 766.638C-132.383 764.067 -42.6658 647.803 -42.6658 647.803C-42.6658 647.803 -42.6263 647.367 -42.6025 647.097C-18.6582 641.185 10.7377 633.342 34.5482 626.89C42.8599 624.637 51.1778 622.408 59.4677 620.077C60.0393 632.649 62.5052 651.746 63.7138 666.368C65.494 684.855 67.4899 705.207 69.5606 725.833ZM77.8588 808.004C76.8898 807.688 30.4401 798.484 -0.84491 792.378L69.8168 728.376C72.5691 755.734 75.4427 783.454 78.1161 807.838C78.032 807.892 77.9418 807.95 77.8588 808.004ZM100.033 426.603C115.789 448.596 133.243 472.555 149.696 494.054C149.616 494.146 149.567 494.199 149.567 494.199C149.493 494.267 137.039 517.106 124.163 540.732C90.9228 536.302 56.9748 531.79 29.4514 528.172C29.3788 528.104 29.3073 528.036 29.2346 527.969C33.1425 506.708 35.7215 485.21 36.983 463.631C39.7809 462.02 42.4761 460.465 44.9897 459.014C60.4149 449.777 86.7556 435.109 100.033 426.603ZM203.557 433.071C197.912 439.462 152.811 490.527 149.735 494.011C134.857 471.937 118.049 448.208 102.45 426.558C135.2 428.868 170.726 431.228 203.415 432.938C203.461 432.981 203.51 433.028 203.557 433.071ZM203.348 432.875C170.53 429.815 134.813 427.009 101.893 424.541C103.606 420.724 108.543 409.718 108.544 409.718C115.165 394.921 122.572 377.939 128.899 362.851C156.72 389.05 184.574 415.261 203.348 432.875ZM138.458 369.828C135.472 367.045 132.479 364.254 129.483 361.462C129.533 361.343 129.585 361.221 129.635 361.103C129.579 361.216 129.521 361.333 129.466 361.446C115.988 348.88 102.534 336.342 90.124 324.778C87.9268 320.927 85.7109 317.049 83.496 313.171C105.482 309.619 127.395 305.632 149.273 301.467C145.684 323.536 141.945 346.919 138.458 369.828ZM139.392 370.7C143.443 347.903 147.414 324.566 151.102 302.486C158.307 310.85 170.891 325.334 177.405 332.732C185.385 341.748 196.825 354.595 205.022 363.493L169.332 382.594C165.695 384.547 162.053 386.491 158.412 388.437C152.2 382.642 145.826 376.699 139.392 370.7ZM200.978 249.017L265.395 255.503C279.255 279.932 300.42 317.164 310.467 334.838C298.435 338.053 205.396 363.41 205.219 363.387L205.075 363.465C197.46 353.977 186.427 340.891 178.692 331.622C172.055 323.766 158.748 308.232 151.728 300.111C162.992 289.301 183.048 267.494 195.534 254.761C197.255 252.947 199.083 251.018 200.978 249.017ZM238.93 208.664C240.448 211.357 256.818 240.371 256.818 240.371C259.056 244.325 262 249.518 265.376 255.468L202.722 247.177C214.489 234.749 228.632 219.748 238.878 208.649C238.895 208.654 238.913 208.659 238.93 208.664ZM302.817 189.827C302.82 189.876 302.823 189.93 302.826 189.979C282.353 195.15 261.217 200.951 240.818 206.702C241.741 203.684 243.563 197.716 243.563 197.716C250.483 174.382 258.434 147.429 264.732 123.823C269.171 131.551 302.17 188.939 302.817 189.827ZM304.564 189.708C304.585 189.654 304.024 188.608 303.029 186.823C314.464 175.098 325.969 163.088 336.852 151.65C344.182 166.341 351.673 180.955 359.537 195.37C340.48 197.855 321.424 200.346 305.238 202.475C304.995 197.868 304.768 193.569 304.564 189.708ZM280.025 146.641C293.533 147.962 307.99 149.04 321.277 149.951C321.277 149.951 331.766 150.61 334.941 150.809C324.354 162.071 313.264 173.957 302.437 185.763C298.203 178.221 288.404 161.206 280.025 146.641ZM240.501 208.814C261.104 202.853 282.453 196.541 302.829 190.032C305.001 225.694 309.38 296.184 311.859 333.164C291.402 297.545 260.761 243.677 240.501 208.814ZM311.905 61.3646L344.538 96.7421C344.208 98.7173 343.891 100.623 343.592 102.423C341.437 116.035 338.323 135.174 336.28 148.865C328.164 148.347 313.2 147.507 305.609 147.133C296.992 146.73 288.374 146.387 279.75 146.164C272.239 133.108 265.942 122.145 265.956 121.972L265.204 121.479C265.154 121.474 265.102 121.468 265.052 121.462C256.986 101.659 246.572 76.1289 244.244 70.3941C251.063 69.4843 284.184 65.0639 311.905 61.3646ZM352.007 53.1119C346.197 38.4254 340.232 23.7876 333.9 9.3158L390.305 2.09558C380.207 14.8763 370.43 27.9061 360.794 41.0366C357.844 45.0461 354.919 49.0743 352.007 53.1119ZM344.953 94.2596L311.964 61.3572C332.037 58.6786 349.255 56.3809 351.583 56.0696C349.544 67.0962 347.031 81.8502 344.953 94.2596ZM333.676 9.34705L333.836 9.32629C339.051 24.4828 344.651 39.5147 350.408 54.473C339.461 55.9088 258.608 66.5131 244.745 68.3306C256.602 60.5325 277.796 46.6178 288.504 39.494C288.183 39.7119 332.671 10.1459 333.676 9.34705ZM288.899 750.031C279.107 757.802 272.004 763.44 272.004 763.44C272.825 762.899 157.52 818.526 157.551 818.391L157.224 819.927C157.224 819.927 157.668 820.449 158.493 821.42C163.043 840.394 169.5 867.372 176.131 894.924C166.727 903.836 157.999 912.182 150.308 919.649C150.34 919.652 150.02 919.589 149.418 919.474C130.329 888.286 107.687 852.772 88.0513 822.003L79.3599 808.554C106.673 790.778 159.925 755.792 187.092 738.026C187.215 738.332 187.338 738.639 187.461 738.946L188.255 739.551C188.255 739.551 223.237 743.301 223.237 743.3C243.383 745.458 266.472 747.803 288.899 750.031ZM349.688 823.596C348.805 785.867 347.711 744.856 346.225 707.211C351.726 713.69 386.805 755.015 421.763 796.197C404.202 802.598 384.401 810.099 367.128 816.807L349.688 823.596ZM302.344 893.986L227.746 900.15C196.001 862.657 160.609 820.855 159.574 819.632C171.544 813.936 272.974 765.002 273.217 764.968C273.217 764.968 273.278 764.92 273.371 764.845C297.014 784.786 323.361 806.086 347.535 825.35C336.891 840.436 318.891 868.963 307.37 886.231C305.783 888.678 304.094 891.283 302.344 893.986ZM227.771 900.179L300.962 896.12C290.215 912.72 277.274 932.798 267.918 947.597C267.789 947.445 246.461 922.254 227.771 900.179ZM199.169 982.469C221.372 972.115 244.234 960.953 266.263 950.035C265.969 952.669 265.03 961.087 265.03 961.087C262.11 989.098 258.777 1021.46 256.525 1049.61C250.39 1042.44 202.229 986.051 199.169 982.469ZM158.532 821.467C170.216 835.225 256.856 937.253 265.984 948.001C243.851 959.136 220.935 970.807 199.139 982.434C199.062 982.344 199.013 982.286 199.013 982.286C189.836 944.389 168.871 862.336 158.532 821.467ZM346.045 706.998C346.087 707.048 346.127 707.094 346.174 707.149C346.311 744.626 346.961 785.364 347.701 822.936C323.868 803.848 297.708 783.196 273.413 764.812C277.284 761.73 338.892 712.692 346.045 706.998ZM423.118 795.736C423.293 795.661 423.474 795.584 423.648 795.509C423.466 795.576 423.28 795.644 423.097 795.71C384.982 750.437 346.861 705.155 346.861 705.155L345.603 705.031C345.603 705.031 341.609 708.2 335.486 713.06C339.878 684.921 344.618 653.303 347.723 633.989C344.615 652.746 338.867 685.79 334.1 714.16C322.256 723.56 303.642 738.331 289.879 749.253C267.214 746.557 243.785 743.839 223.43 741.53L189.048 737.691C184.105 725.203 179.212 712.696 174.207 700.235C193.901 667.319 217.772 627.218 237.187 594.211C237.187 594.211 257.83 558.889 257.952 558.68C257.983 558.707 347.723 633.989 347.723 633.989C347.723 633.989 258.09 558.484 258.091 558.483C257.887 558.599 193.877 550.024 126.287 541.015C139.121 517.539 151.369 495.103 151.032 495.49L205.5 433.612C205.5 433.612 205.44 432.349 205.44 432.35C193.244 420.941 177.001 405.777 159.358 389.32C175.395 380.893 192.467 371.852 206.018 364.896C205.208 365.234 312.351 336.358 312.28 336.478C312.28 336.478 312.902 334.983 312.903 334.983C312.577 334.415 312.239 333.828 311.908 333.25C310.366 300.78 307.324 242.112 305.329 204.204C327.258 201.216 359.414 196.835 359.414 196.835C359.414 196.835 360.244 196.721 360.263 196.718C360.274 196.738 360.286 196.76 360.297 196.781C360.288 196.76 360.277 196.738 360.268 196.717C361.937 196.487 434.788 186.45 434.788 186.45C457.852 180.746 480.744 174.961 503.537 169.408C480.542 174.915 457.3 180.268 434.74 185.585C435.277 163.113 435.09 140.633 434.661 118.16C459.063 136.343 482.477 153.759 494.72 162.859C482.518 153.614 459.221 135.773 434.899 117.176C437.268 115.64 444.653 110.856 444.653 110.856C454.561 104.376 465.444 97.1508 475.145 90.3962C475.171 90.4232 475.199 90.4512 475.224 90.4782C481.472 108.648 496.599 150.166 503.537 169.408C496.784 149.427 483.306 109.337 476.285 89.4699C465.837 78.3209 444.657 55.9191 434.15 44.8293C423.652 33.7052 402.443 11.3907 391.893 0.300903L391.046 0L333.427 7.60413L333.051 7.74939L287.882 38.5706C277.169 45.8812 256.355 60.2701 244.639 68.3452C243.394 68.5081 242.716 68.5973 242.716 68.5973L241.927 69.9542C241.94 69.808 253.725 98.9207 262.783 121.21C212.255 115.593 152.557 109.08 102.296 103.733C84.5895 114.124 50.073 136.109 32.5481 146.926C49.2171 136.876 87.3147 114.657 102.135 105.189C102.334 105.211 102.54 105.235 102.738 105.258C115.478 124.784 128.434 144.168 141.471 163.497C141.471 163.497 153.782 181.644 154.408 182.566C150.248 190.437 146.043 198.285 141.942 206.187C116.579 210.533 85.7814 215.922 60.5331 220.536C51.489 222.229 42.4366 223.866 33.4019 225.616C33.4019 225.573 32.5481 146.926 32.5481 146.926L33.1633 225.639C33.1623 225.659 57.8888 269.326 82.7668 313.249C82.5033 313.308 82.2387 313.364 81.9742 313.424C82.246 313.38 82.5167 313.332 82.7885 313.289C84.6517 316.578 86.5159 319.869 88.3708 323.144C75.7207 311.355 64.2252 300.645 55.0224 292.069C55.0038 292.054 -18.7163 236.643 -21.4135 234.624C-21.4125 234.622 -21.4104 234.619 -21.4094 234.617C-21.4094 234.614 -21.4166 234.622 -21.4177 234.622C-21.4654 234.586 -21.4965 234.563 -21.4965 234.563C-21.5224 234.564 52.1965 290.954 54.3865 292.655C34.1509 308.676 11.2585 327.796 -8.51648 344.391L-16.3821 351.086C-18.1633 309.781 -19.902 270.088 -20.8222 249.388C-20.0431 270.148 -18.7173 310.019 -17.3147 351.527C-20.5773 350.468 -32.5438 346.581 -32.5438 346.581C-48.1702 341.569 -63.8288 336.651 -79.5579 331.968C-62.7624 304.011 -38.179 263.246 -21.4892 234.754L-21.4923 234.688C-21.6033 234.82 -21.8316 235.149 -22.1708 235.664C-29.0737 246.119 -80.8578 331.586 -81.0227 331.488C-81.0383 331.51 -101.938 496.146 -101.919 496.168C-101.989 496.374 -61.4054 534.474 -48.5665 546.587C-61.922 564.883 -76.2714 584.54 -76.2714 584.54L-76.3243 585.244C-76.3243 585.244 -45.2748 645.396 -44.1347 647.604C-46.2552 648.236 -136.503 766.839 -137 766.702L-136.384 768.331C-136.384 768.331 -135.68 768.466 -134.401 768.711C-91.0233 802.244 -6.20721 867.296 36.1199 899.774C36.3855 900.173 149.595 921.335 149.939 921.598C158.223 914.102 167.212 905.86 176.661 897.126C184.416 929.333 192.342 962.048 197.68 983.421L255.656 1051.66L256.485 1052C287.403 1049.67 368.055 1043.6 397.935 1041.29C398.03 1041.15 445.404 1037.81 445.371 1037.52C473.756 1021.99 530.56 990.582 558.902 974.908C530.508 990.091 473.251 1020.75 444.839 1036.15C440.299 1017.71 435.508 999.341 430.623 980.998L425.828 963.231C477.594 967.743 527.157 972.04 548.248 973.919C527.199 971.939 477.82 967.265 426.272 962.407C428.564 959.974 434.53 953.645 434.53 953.645C454.578 932.104 477.731 907.126 497.224 885.104L558.902 974.908C558.871 974.872 497.874 884.527 497.844 884.497C497.844 884.497 460.477 840.111 423.118 795.736Z" fill="#B1A687" fill-opacity="0.32"/>
<g opacity="0.32">
<path d="M389.347 499.579C388.992 507.008 388.432 521.921 388.227 529.332C387.685 539.28 387.592 549.21 389.347 559.084H389.664C392.296 544.824 390.56 528.884 390.299 514.437L389.664 499.561H389.347V499.579Z" fill="#BEB096"/>
<path d="M471.311 322C469.165 383.875 469.165 446.534 471.311 508.409C473.458 446.534 473.439 383.875 471.311 322Z" fill="#BEB096"/>
<path d="M553.475 366.722C551.329 407.113 551.254 447.803 553.475 488.213C555.696 447.822 555.622 407.113 553.475 366.722Z" fill="#BEB096"/>
<path d="M543.602 356.474C465.562 397.145 387.673 440.15 311.705 484.573C389.744 443.92 467.634 400.878 543.602 356.474Z" fill="#BEB096"/>
<path d="M588.434 421.728C504.384 465.908 420.41 512.478 338.432 560.429C422.5 516.248 506.456 469.66 588.434 421.728Z" fill="#BEB096"/>
<path d="M388.547 350.502C453.353 384.006 518.065 419.153 581.676 455.363C581.47 455.923 581.302 456.52 581.172 457.118C516.329 422.904 451.766 387.198 388.547 350.502Z" fill="#BEB096"/>
<path d="M322.845 403.737C383.955 440.246 446.819 475.318 510.02 508.094C448.928 471.567 386.027 436.513 322.845 403.737Z" fill="#BEB096"/>
<path d="M306.961 487.205C344.627 509.995 383.544 531.087 423.301 550.032C385.672 527.186 346.661 506.206 306.961 487.205Z" fill="#BEB096"/>
</g>
<g opacity="0.32">
<path d="M1578.06 599.579C1578.41 607.008 1578.97 621.921 1579.18 629.332C1579.72 639.28 1579.81 649.21 1578.06 659.084H1577.74C1575.11 644.824 1576.85 628.884 1577.11 614.437L1577.74 599.561H1578.06V599.579Z" fill="#BEB096"/>
<path d="M1496.1 422C1498.24 483.875 1498.24 546.534 1496.1 608.409C1493.95 546.534 1493.97 483.875 1496.1 422Z" fill="#BEB096"/>
<path d="M1413.93 466.722C1416.08 507.113 1416.15 547.803 1413.93 588.213C1411.71 547.822 1411.78 507.113 1413.93 466.722Z" fill="#BEB096"/>
<path d="M1423.8 456.474C1501.84 497.145 1579.73 540.15 1655.7 584.573C1577.66 543.92 1499.77 500.878 1423.8 456.474Z" fill="#BEB096"/>
<path d="M1378.97 521.728C1463.02 565.908 1547 612.478 1628.97 660.429C1544.91 616.248 1460.95 569.66 1378.97 521.728Z" fill="#BEB096"/>
<path d="M1578.86 450.502C1514.05 484.006 1449.34 519.153 1385.73 555.363C1385.94 555.923 1386.1 556.52 1386.23 557.118C1451.08 522.904 1515.64 487.198 1578.86 450.502Z" fill="#BEB096"/>
<path d="M1644.56 503.737C1583.45 540.246 1520.59 575.318 1457.39 608.094C1518.48 571.567 1581.38 536.513 1644.56 503.737Z" fill="#BEB096"/>
<path d="M1660.45 587.205C1622.78 609.995 1583.86 631.087 1544.11 650.032C1581.73 627.186 1620.74 606.206 1660.45 587.205Z" fill="#BEB096"/>
</g>
<g opacity="0.64">
<path d="M428.002 584.638C486.238 588.165 489.112 591.021 492.64 649.275C496.167 591.04 499.023 588.165 557.277 584.638C499.042 581.11 496.167 578.254 492.64 520C489.112 578.235 486.256 581.11 428.002 584.638Z" fill="#BEB096"/>
<path d="M462.672 554.681C488.038 583.313 488.038 585.982 462.672 614.615C491.304 589.249 493.973 589.249 522.605 614.615C497.239 585.982 497.239 583.313 522.605 554.681C493.973 580.047 491.304 580.047 462.672 554.681Z" fill="#BEB096"/>
</g>
</svg>
