<svg width="582" height="925" viewBox="0 0 582 925" fill="none" xmlns="http://www.w3.org/2000/svg">
<path d="M275.184 806.679L286.004 795.545C338.009 818.287 392.483 842.056 402.172 845.854C399.579 852.094 397.006 858.344 394.454 864.605C387.296 882.259 378.561 904.063 371.87 922.005L371.527 922.139C355.282 911.662 323.247 891.026 307.229 880.788C291.129 870.443 258.824 849.728 242.557 839.395C253.232 829.012 264.747 817.325 275.184 806.679ZM263.658 711.191C263.669 711.184 263.689 711.173 263.689 711.174C285.734 702.661 318.9 689.856 352.107 677.014C358.487 685.14 364.95 693.197 371.486 701.202C378.374 709.662 385.325 718.069 392.317 726.439C393.292 744.012 396.01 768.201 397.4 785.764C399.06 802.926 401.363 827.559 403.282 844.675C403.168 844.717 403.096 844.745 403.085 844.75C402.504 844.235 343.04 818.816 286.305 794.636C286.325 794.564 286.336 794.513 286.336 794.513C279.302 767.086 271.646 738.399 263.658 711.191ZM290.402 157.632C253.492 162.57 216.01 167.68 185.988 171.997C191.351 158.676 198.488 139.823 203.572 126.566C208.333 113.285 216.249 93.6277 220.616 80.2462C228.044 75.0768 235.441 69.8596 242.796 64.5751C249.632 59.6671 256.427 54.6907 263.16 49.6345C285.838 66.4839 308.474 83.2598 326.556 96.494C326.577 96.5095 326.597 96.5272 326.618 96.5428C314.055 116.612 302.125 137.064 290.402 157.632ZM184.774 175.031C185.396 180.199 186.029 185.366 186.693 190.529C188.758 206.696 191.268 224.731 193.903 240.923C187.803 236.447 149.201 208.13 146.141 205.883C159.223 195.851 172.045 185.504 184.774 175.031ZM183.903 173.171C171.142 183.873 158.476 194.707 146.089 205.846C146.037 205.808 145.996 205.78 145.975 205.762C146.141 205.365 119.677 155.338 120.03 155.505C113.795 143.568 101.676 120.299 94.7574 107.179C98.0387 109.609 181.942 171.714 183.903 173.171ZM200.107 2.78839C200.169 2.82983 200.221 2.8714 200.273 2.91284C205.854 27.2026 212.359 53.4003 218.521 77.6185C214.506 75.7128 205.564 71.4728 205.564 71.4728C191.455 64.8759 175.842 57.6951 161.536 51.5889C161.868 51.1646 198.914 4.30298 200.107 2.78839ZM199.962 131.651L152.48 147.345L95.3383 105.046C103.798 98.2679 161.152 51.9312 161.36 51.8067C161.36 51.8067 161.484 51.6531 161.484 51.6521C170.894 56.5984 180.386 61.3694 189.909 66.072C197.015 69.5639 211.114 76.3455 218.749 79.9671C213.686 93.5259 206.902 112.393 201.974 125.977C201.341 127.772 200.657 129.675 199.962 131.651ZM185.822 172.022L152.531 147.383L199.121 134.026C194.764 146.324 189.608 161.008 185.915 172.009C185.884 172.013 185.853 172.018 185.822 172.022ZM220.595 77.8072C214.267 53.477 207.275 27.1404 200.377 2.99585C218.469 16.3929 240.773 33.0007 263.046 49.5504C248.709 58.6888 234.6 68.1759 220.595 77.8072ZM296.596 170.118C300.019 176.234 303.66 182.7 307.322 189.085C268.098 192.792 235.233 195.899 235.213 195.906C235.213 195.906 234.829 196.361 234.829 196.362C235.316 205.672 235.991 216.6 236.696 227.882C221.986 232.49 204.734 237.909 194.308 241.22C194.225 241.158 194.121 241.085 194.007 241.003C192.617 224.632 190.635 206.496 188.685 190.283C188.042 184.846 187.367 179.415 186.662 173.986C216.373 169.859 253.741 164.492 290.506 159.115C290.89 159.802 296.596 170.118 296.596 170.118ZM337.21 186.264C337.013 186.281 336.826 186.3 336.629 186.319C336.878 186.092 337.127 185.867 337.376 185.64C337.324 185.848 337.262 186.056 337.21 186.264ZM430.047 203.638C423.356 228.185 415.441 258.13 408.988 282.905L328.714 252.428L409.081 285.137C414.559 292.21 420.14 299.21 425.68 306.24C409.413 324.785 384.817 353.186 368.913 371.465C362.45 354.179 352.802 329.661 346.111 312.447C339.046 295.186 329.907 270.691 322.458 253.586C325.104 242.271 327.676 230.944 330.176 219.596C332.583 208.734 334.907 197.852 337.117 186.948C387.452 182.002 437.6 176.967 437.392 177.03L437.413 177.036C434.902 185.889 432.496 194.77 430.047 203.638ZM450.235 302.812C473.141 298.545 496.037 294.181 518.88 289.564C505.85 311.524 491.638 335.57 477.446 359.636C452.279 356.246 427.205 352.887 410.202 350.611C409.942 350.387 409.683 350.158 409.434 349.936C409.341 350.078 408.324 376.38 407.245 404.03C397.39 395.328 387.493 386.695 378.302 378.682L370.168 371.72C386.383 353.409 409.714 324.945 425.69 306.249C425.815 306.406 425.939 306.564 426.064 306.722L426.997 307.077L450.235 302.812ZM643.908 560.254C670.154 564.811 697.417 569.419 723.684 573.376C723.695 573.494 723.695 573.57 723.695 573.57C707.231 612.525 672.489 697.469 655.465 738.835C654.261 724.998 645.713 577.613 643.908 560.254ZM472.062 711.483L454.748 670.857C468.12 652.289 481.471 633.585 494.211 615.677C502.603 647.527 512.002 682.264 521.194 713.784C519.534 713.842 497.79 714.596 474.957 715.387C473.079 712.8 472 711.351 472.062 711.483ZM440.764 642.669C443.959 650.199 468.431 707.914 470.164 712.013C457.414 713.853 444.695 715.889 431.987 718.004C422.91 719.533 405.253 722.602 395.035 724.441C410.025 698.036 426.157 669.347 440.587 642.739C440.65 642.716 440.712 642.693 440.764 642.669ZM473.577 608.664L493.007 613.963C480.372 631.86 467.176 650.621 454.115 669.363L442.092 641.151L440.93 640.66C433.906 643.405 425.753 646.597 416.831 650.093C415.669 631.945 414.362 611.713 413.044 591.504C432.33 597.193 454.312 603.392 473.577 608.664ZM404.859 467.137C430.908 463.065 463.099 457.39 489.159 452.69C496.13 451.458 510.083 448.884 517.117 447.554C563.592 489.138 611.209 531.687 642.373 559.408C620.795 566.806 590.129 577.818 568.603 585.453C546.963 593.509 516.266 603.966 494.844 612.406C487.986 610.594 470.205 605.89 463.628 604.158C448.046 600.184 428.854 595.209 413.034 591.411C408.967 529.134 404.828 467.123 404.859 467.158V467.137ZM409.393 351.074C436.106 375.031 475.174 410.035 515.28 445.913C512.76 446.365 502.832 448.145 502.832 448.145C471.741 453.908 435.753 460.65 404.859 467.131L409.393 351.074ZM523.673 427.063L516.556 445.215C476.409 409.469 437.195 374.592 410.212 350.624C444.571 355.684 512.583 365.667 546.569 370.499C538.746 389.277 531.163 408.152 523.673 427.063ZM723.684 573.332C697.915 568.116 671.067 563.144 645.101 558.488C647.643 555.754 653.286 549.674 653.286 549.674C673.682 527.425 697.22 501.691 717.159 478.929C717.834 488.68 723.342 568.51 723.684 573.332ZM642.663 559.67C642.528 560.139 644.468 590.413 646.813 626.025L580.886 582.687C600.794 575.244 624.861 566.19 642.393 559.431C642.487 559.509 642.58 559.591 642.663 559.67ZM521.214 713.783C513.496 681.396 504.336 646.026 495.777 613.836C514.731 607.536 548.208 594.599 569.194 587.056C572.13 585.96 575.263 584.792 578.5 583.579L646.813 626.054C649.987 674.21 653.888 732.098 654.396 739.222C643.95 737.208 521.391 713.809 521.308 713.78C521.308 713.78 521.266 713.781 521.214 713.783ZM546.734 370.523C547.201 370.98 589.517 397.774 589.185 397.569C616.469 414.857 688.444 460.334 717.128 478.448C717.128 478.559 717.138 478.689 717.149 478.836C696.048 500.579 672.333 526.122 651.772 548.279L642.933 557.938C611.904 530.166 564.484 487.892 518.092 446.587C519.067 444.043 525.333 427.707 525.333 427.707C532.564 408.693 539.701 389.644 546.6 370.504C546.641 370.511 546.693 370.517 546.734 370.523ZM368.073 372.906C365.096 394.145 362.118 416.209 359.732 437.467C326.297 424.868 260.183 400.043 225.419 387.186C266.283 383.081 327.977 377.142 368.073 372.906ZM235.71 196.645C262.475 215.17 291.907 234.92 319.139 253.023C308.557 256.178 290.195 261.741 280.786 264.661C269.291 268.257 252.89 273.445 241.416 277.286L238.584 236.907C237.619 223.486 236.727 210.06 235.71 196.645ZM344.524 313.083C351.547 330.136 361.672 354.624 368.892 371.493C368.882 371.507 368.861 371.52 368.851 371.534C368.353 371.579 332.604 374.895 332.604 374.895C309.511 377.067 249.632 382.815 224.455 385.232C226.446 372.936 241.344 277.662 241.437 277.511L241.427 277.347C253.201 274.277 269.644 269.559 281.273 266.289C291.149 263.445 310.767 257.653 321.047 254.565C326.317 269.264 338.009 296.484 344.524 313.083ZM337.034 186.957C331.287 208.473 325.965 230.101 320.819 251.769C293.349 233.68 263.409 214.127 235.71 196.617C235.7 196.524 235.69 196.429 235.69 196.335C236.592 196.716 286.886 191.882 337.034 186.957ZM359.919 437.538C359.877 437.521 359.825 437.502 359.784 437.484C363.436 416.687 366.776 395.026 369.868 374.06C372.254 376.134 376.953 380.238 376.953 380.238C386.497 388.432 396.809 397.273 407.162 406.029C406.81 415.155 406.446 424.361 406.114 432.763C384.982 434.908 360.572 437.401 359.919 437.538ZM352.211 676.975C385.211 664.215 418.252 651.426 440.494 642.774C424.798 668.92 408.179 697.591 392.971 724.079C379.588 708.206 366.06 692.448 352.211 676.975ZM450.297 826.378L399.662 792.989C399.465 790.424 399.278 787.951 399.091 785.617C397.535 769.101 395.844 740.988 394.018 726.68C403.967 724.924 422.806 721.467 432.288 719.676C444.944 717.257 457.59 714.762 470.195 712.07C470.236 712.183 470.267 712.248 470.267 712.248C470.319 712.436 523.279 785.682 530.198 795.291C522.947 798.114 483.401 813.501 450.297 826.378ZM403.614 847.633C415.15 864.006 426.842 880.283 438.844 896.318L371.984 921.961C379.858 904.486 388.987 882.959 396.311 865.368C398.77 859.467 401.197 853.554 403.614 847.633ZM403.324 844.658C402.442 830.471 401.052 811.418 399.849 795.514L450.256 826.396C426.271 835.727 405.72 843.725 403.324 844.658ZM439.062 896.236L438.896 896.299C427.827 879.322 416.406 862.576 404.849 845.929L530.219 797.409C518.216 810.371 496.203 834.03 485.154 846.024C485.393 845.719 439.789 895.322 439.062 896.236ZM725.448 573.452L719.068 477.811L718.612 477.04C690.529 459.334 617.299 413.146 590.139 396.072C589.901 396.019 547.201 368.985 546.963 369.077C530.095 366.745 504.865 363.329 479.5 359.912C493.599 335.831 507.666 311.752 520.478 289.743C518.237 269.335 512.282 228.846 509.575 208.43C511.93 227.753 516.629 271.605 519.212 289.001C519.108 289.173 519.005 289.35 518.901 289.523C495.881 293.166 472.892 297.065 449.924 301.06C449.924 301.06 428.325 304.874 427.226 305.068C421.748 298.054 416.302 291.009 410.772 284.036C417.173 259.112 424.85 228.802 430.96 203.875C433.108 194.929 435.317 185.998 437.413 177.038C437.454 177.055 509.575 208.43 509.575 208.43L437.486 176.81C437.475 176.8 387.514 181.513 337.252 186.259C337.303 186.049 337.345 185.839 337.386 185.63C352.916 171.55 370.604 155.36 381.352 145.613C370.438 155.179 350.748 172.33 334.637 186.506C325.809 187.339 317.001 188.172 308.474 188.977C305.04 182.298 301.534 175.585 298.183 169.256L292.602 158.809C324.595 154.126 356.008 149.456 381.352 145.613C355.842 148.954 324.647 153.054 292.903 157.298C304.501 137.255 315.891 117.087 326.66 96.5842C342.324 110.696 365.811 131.319 381.352 145.613C365.894 131.191 343.165 109.884 327.604 95.0883C291.647 67.8181 237.132 27.9755 200.532 0.547607L199.111 0.734314L159.741 50.5287C160.457 49.7662 93.0021 104.433 93 104.273L93.0332 105.903C93.0332 105.903 94.5904 107.056 94.6454 107.097C101.188 120.317 113.048 143.997 119.034 156.011L144.647 206.839L144.907 207.146L193.54 243.116L194.422 243.264C204.702 240.053 222.006 234.588 236.821 229.898C237.879 246.527 238.999 263.764 239.736 277.622C239.756 276.745 222.297 386.33 222.224 386.217L223.334 387.395C223.977 387.33 224.652 387.263 225.316 387.196C259.789 400.715 326.099 426.363 359.317 439.181C359.504 439.378 384.474 436.843 406.042 434.66C405.305 452.999 404.724 467.051 404.641 467.15C404.87 467.255 408.573 529.042 412.38 591.255C412.048 591.175 411.706 591.092 411.374 591.013C411.706 591.111 412.048 591.212 412.38 591.311C413.625 611.682 414.891 632.095 416.042 650.403C396.747 657.963 373.955 666.911 351.205 675.849C351.142 675.773 351.07 675.695 351.008 675.619C351.07 675.698 351.132 675.776 351.194 675.855C318.184 688.821 285.288 701.759 263.378 710.377C263.357 710.387 184.67 751.385 184.649 751.402C184.639 751.425 261.282 712.38 263.627 711.202C269.8 738.401 276.958 766.702 284.053 793.677C246.064 777.486 209.682 762.011 193.467 755.131C209.672 762.139 246.043 778.07 284.064 794.696C281.823 797.063 273.887 805.429 273.887 805.429C263.669 816.275 252.454 828.315 242.526 839.369C242.485 839.349 242.454 839.326 242.423 839.305C229.154 818.663 198.831 772.931 184.649 751.402C198.82 773.675 227.235 818.432 241.624 840.535C257.672 850.999 290.122 871.985 306.202 882.378C322.292 892.813 354.742 913.697 370.874 924.079L371.766 924.17L439.706 897.863L440.037 897.637L485.984 846.774C496.981 834.577 518.434 810.57 530.281 797.382L532.107 796.676L532.553 795.171C532.564 795.378 488.36 733.808 475.517 716.16C499.086 715.387 521.328 714.658 521.328 714.658C520.872 714.622 654.977 740.452 654.905 740.476L655.579 739.882C655.558 739.862 655.517 739.508 655.465 738.864C673.256 697.022 708.31 614.732 725.448 573.452Z" fill="#B1A687" fill-opacity="0.32"/>
<g opacity="0.32">
<path d="M240.06 568.579C240.414 576.008 240.974 590.921 241.179 598.332C241.721 608.28 241.814 618.21 240.06 628.084H239.742C237.11 613.824 238.846 597.884 239.108 583.437L239.742 568.561H240.06V568.579Z" fill="#BEB096"/>
<path d="M158.095 391C160.242 452.875 160.242 515.534 158.095 577.409C155.949 515.534 155.967 452.875 158.095 391Z" fill="#BEB096"/>
<path d="M75.931 435.722C78.0775 476.113 78.1521 516.803 75.931 557.213C73.7098 516.822 73.7845 476.113 75.931 435.722Z" fill="#BEB096"/>
<path d="M85.8047 425.474C163.844 466.145 241.734 509.15 317.701 553.573C239.662 512.92 161.772 469.878 85.8047 425.474Z" fill="#BEB096"/>
<path d="M40.9727 490.728C125.022 534.908 208.997 581.478 290.974 629.429C206.906 585.248 122.95 538.66 40.9727 490.728Z" fill="#BEB096"/>
<path d="M240.859 419.502C176.054 453.006 111.341 488.153 47.7305 524.363C47.9358 524.923 48.1038 525.52 48.2344 526.118C113.077 491.904 177.64 456.198 240.859 419.502Z" fill="#BEB096"/>
<path d="M306.561 472.737C245.451 509.246 182.587 544.318 119.387 577.094C180.478 540.567 243.38 505.513 306.561 472.737Z" fill="#BEB096"/>
<path d="M322.446 556.205C284.779 578.995 245.862 600.087 206.105 619.032C243.734 596.186 282.745 575.206 322.446 556.205Z" fill="#BEB096"/>
</g>
<g opacity="0.64">
<path d="M0.00221252 333.638C58.2376 337.165 61.1121 340.021 64.6398 398.275C68.1675 340.04 71.0233 337.165 129.277 333.638C71.0419 330.11 68.1675 327.254 64.6398 269C61.1121 327.235 58.2563 330.11 0.00221252 333.638Z" fill="#BEB096"/>
<path d="M34.6715 303.681C60.0375 332.313 60.0375 334.982 34.6715 363.615C63.3039 338.249 65.9731 338.249 94.6055 363.615C69.2395 334.982 69.2395 332.313 94.6055 303.681C65.9731 329.047 63.3039 329.047 34.6715 303.681Z" fill="#BEB096"/>
</g>
</svg>
