<svg width="28" height="24" viewBox="0 0 28 24" fill="none" xmlns="http://www.w3.org/2000/svg">
<path d="M20 0.905273C18.5323 0.905273 17.1801 1.36279 15.9992 2.25458C15.3222 2.76586 14.7866 3.35725 14.375 3.91256C13.9634 3.35725 13.4278 2.76586 12.7508 2.25458C11.5699 1.36279 10.2177 0.905273 8.75 0.905273C4.66144 0.905273 1.625 4.18509 1.625 8.40752C1.625 10.7233 2.58767 12.6403 4.1598 14.4928C5.70382 16.3121 7.89411 18.1348 10.4451 20.2576L10.4907 20.2955C10.4907 20.2955 10.4907 20.2955 10.4907 20.2955C11.3699 21.0272 12.3626 21.8533 13.3939 22.734C13.6681 22.9685 14.0169 23.0949 14.375 23.0949C14.733 23.0949 15.0816 22.9685 15.3557 22.7343C16.3872 21.8534 17.38 21.0272 18.2599 20.295L18.3054 20.2571C20.8562 18.1345 23.0463 16.312 24.5903 14.4927C26.1623 12.6403 27.125 10.7233 27.125 8.40752C27.125 4.18509 24.0886 0.905273 20 0.905273Z" stroke="#975330" stroke-width="1.5"/>
</svg>
