<svg width="24" height="24" viewBox="0 0 24 24" fill="none" xmlns="http://www.w3.org/2000/svg">
<g opacity="0.64" clip-path="url(#clip0_159_1051)">
<path fill-rule="evenodd" clip-rule="evenodd" d="M23.25 5.8501C23.25 4.19335 21.9067 2.8501 20.25 2.8501H3.75C2.09325 2.8501 0.75 4.19335 0.75 5.8501V20.2501C0.75 21.9068 2.09325 23.2501 3.75 23.2501H20.25C21.9067 23.2501 23.25 21.9068 23.25 20.2501V5.8501ZM21.75 5.8501V20.2501C21.75 21.0788 21.0788 21.7501 20.25 21.7501H3.75C2.92125 21.7501 2.25 21.0788 2.25 20.2501V5.8501C2.25 5.02135 2.92125 4.3501 3.75 4.3501H20.25C21.0788 4.3501 21.75 5.02135 21.75 5.8501Z" fill="#38332F"/>
<path fill-rule="evenodd" clip-rule="evenodd" d="M1.5 7.5H22.5V9H1.5V7.5Z" fill="#38332F"/>
<path fill-rule="evenodd" clip-rule="evenodd" d="M16.5 4.125H18V1.5C18 1.086 17.664 0.75 17.25 0.75C16.836 0.75 16.5 1.086 16.5 1.5V4.125Z" fill="#38332F"/>
<path fill-rule="evenodd" clip-rule="evenodd" d="M6 4.125H7.5V1.5C7.5 1.086 7.164 0.75 6.75 0.75C6.336 0.75 6 1.086 6 1.5V4.125Z" fill="#38332F"/>
<path fill-rule="evenodd" clip-rule="evenodd" d="M5.8501 13.6538H7.3381C7.7521 13.6538 8.0881 13.3178 8.0881 12.9038C8.0881 12.4898 7.7521 12.1538 7.3381 12.1538H5.8501C5.4361 12.1538 5.1001 12.4898 5.1001 12.9038C5.1001 13.3178 5.4361 13.6538 5.8501 13.6538Z" fill="#38332F"/>
<path fill-rule="evenodd" clip-rule="evenodd" d="M11.2559 13.6538H12.7439C13.1579 13.6538 13.4939 13.3178 13.4939 12.9038C13.4939 12.4898 13.1579 12.1538 12.7439 12.1538H11.2559C10.8419 12.1538 10.5059 12.4898 10.5059 12.9038C10.5059 13.3178 10.8419 13.6538 11.2559 13.6538Z" fill="#38332F"/>
<path fill-rule="evenodd" clip-rule="evenodd" d="M16.6621 13.6538H18.1501C18.5641 13.6538 18.9001 13.3178 18.9001 12.9038C18.9001 12.4898 18.5641 12.1538 18.1501 12.1538H16.6621C16.2481 12.1538 15.9121 12.4898 15.9121 12.9038C15.9121 13.3178 16.2481 13.6538 16.6621 13.6538Z" fill="#38332F"/>
<path fill-rule="evenodd" clip-rule="evenodd" d="M5.8501 18.375H7.3381C7.7521 18.375 8.0881 18.039 8.0881 17.625C8.0881 17.211 7.7521 16.875 7.3381 16.875H5.8501C5.4361 16.875 5.1001 17.211 5.1001 17.625C5.1001 18.039 5.4361 18.375 5.8501 18.375Z" fill="#38332F"/>
<path fill-rule="evenodd" clip-rule="evenodd" d="M11.2559 18.375H12.7439C13.1579 18.375 13.4939 18.039 13.4939 17.625C13.4939 17.211 13.1579 16.875 12.7439 16.875H11.2559C10.8419 16.875 10.5059 17.211 10.5059 17.625C10.5059 18.039 10.8419 18.375 11.2559 18.375Z" fill="#38332F"/>
<path fill-rule="evenodd" clip-rule="evenodd" d="M16.6621 18.375H18.1501C18.5641 18.375 18.9001 18.039 18.9001 17.625C18.9001 17.211 18.5641 16.875 18.1501 16.875H16.6621C16.2481 16.875 15.9121 17.211 15.9121 17.625C15.9121 18.039 16.2481 18.375 16.6621 18.375Z" fill="#38332F"/>
</g>
<defs>
<clipPath id="clip0_159_1051">
<rect width="24" height="24" fill="white"/>
</clipPath>
</defs>
</svg>
