<svg width="94" height="30" viewBox="0 0 94 30" fill="none" xmlns="http://www.w3.org/2000/svg">
<path d="M0 0.560387H8.73916C9.53363 0.560387 11.917 0.25813 12.9763 4.48972C13.7708 7.21003 14.8301 11.4416 16.419 17.789H16.9487C18.5376 11.1394 19.8617 6.60551 20.3914 4.48972C21.4507 0.25813 24.0989 0.560387 25.1582 0.560387H33.3677V29.577H24.8934V12.3484H24.3637L19.8617 29.577H13.506L9.00399 12.3484H8.20952V29.577H0M36.8104 0.560387H45.2848V17.789H46.0792L51.6405 3.58295C52.6998 0.862643 55.0832 0.560387 55.0832 0.560387H63.0279V29.577H54.5536V12.3484H54.0239L48.4626 26.5544C47.4033 29.2747 44.7551 29.577 44.7551 29.577H36.8104M74.4153 20.8116V29.577H66.4706V14.4642H92.4233C91.364 18.0913 87.6564 20.8116 83.4193 20.8116" fill="#0F754E"/>
<path d="M92.9495 12.6503C94.0087 7.2097 90.8309 0.560059 83.9455 0.560059H65.9375C66.4671 6.90744 71.234 12.6503 76.2656 12.6503" fill="url(#paint0_linear_316_16796)"/>
<defs>
<linearGradient id="paint0_linear_316_16796" x1="89.7716" y1="-3.36927" x2="68.5857" y2="-3.36927" gradientUnits="userSpaceOnUse">
<stop stop-color="#1F5CD7"/>
<stop offset="1" stop-color="#02AEFF"/>
</linearGradient>
</defs>
</svg>
