<svg width="89" height="30" viewBox="0 0 89 30" fill="none" xmlns="http://www.w3.org/2000/svg">
<g clip-path="url(#clip0_316_16823)">
<path d="M57.9544 0.544434C51.6416 0.544434 45.9999 3.82868 45.9999 9.89521C45.9999 16.8531 56.0053 17.3337 56.0053 20.8296C56.0053 22.3016 54.325 23.619 51.4538 23.619C47.3803 23.619 44.3356 21.7782 44.3356 21.7782L43.0326 27.901C43.0326 27.901 46.5401 29.456 51.1966 29.456C58.0986 29.456 63.5302 26.011 63.5302 19.84C63.5302 12.4872 53.483 12.021 53.483 8.77694C53.483 7.62383 54.8625 6.36087 57.7248 6.36087C60.9546 6.36087 63.589 7.69976 63.589 7.69976L64.8643 1.78686C64.8643 1.78686 61.9968 0.544434 57.9535 0.544434H57.9544ZM0.196049 0.991027L0.0429688 1.88332C0.0429688 1.88332 2.69873 2.371 5.09105 3.34458C8.17134 4.46017 8.39028 5.11041 8.90915 7.12722L14.5615 28.9951H22.139L33.8122 0.991027H26.2526L18.7517 20.0311L15.6909 3.89121C15.4106 2.04409 13.9884 0.990134 12.2484 0.990134H0.196939L0.196049 0.991027ZM36.8525 0.991027L30.9224 28.9951H38.1314L44.0401 0.991027H36.8525ZM77.0591 0.991027C75.3209 0.991027 74.3998 1.9253 73.7243 3.55715L63.1627 28.9951H70.7223L72.1846 24.7552H81.3943L82.2834 28.9951H88.954L83.1351 0.991027H77.0591ZM78.0426 8.55721L80.2836 19.0656H74.2805L78.0435 8.55721H78.0426Z" fill="#1434CB"/>
</g>
<defs>
<clipPath id="clip0_316_16823">
<rect width="89" height="29" fill="white" transform="translate(0 0.5)"/>
</clipPath>
</defs>
</svg>
