<svg width="124" height="35" viewBox="0 0 124 35" fill="none" xmlns="http://www.w3.org/2000/svg">
<g clip-path="url(#clip0_310_8767)">
<path fill-rule="evenodd" clip-rule="evenodd" d="M19.4291 26.0115H14.0821C5.74088 26.0115 11.8008 8.32657 18.8231 8.32657H27.2714C28.6259 8.32657 31.0142 8.57569 32.1906 5.23082L34.0085 0.0356445H22.4234C16.1497 0.0356445 11.2661 2.24182 7.73709 5.94249C1.64154 12.2763 -0.425952 22.1685 1.03555 26.9011C2.42577 31.2778 6.20429 34.1601 12.1216 34.2313L16.72 34.2668H22.3877L23.778 30.1036C24.8117 27.1502 22.4947 26.0115 19.4291 26.0115ZM84.5196 18.6813L86.2661 13.0236H67.6231C64.5219 13.0236 63.1317 13.8776 62.597 15.6567L60.8503 21.3145H79.4934C82.5946 21.3145 83.9849 20.4605 84.5196 18.6813ZM58.0699 28.6447L56.3232 34.3024H74.9663C78.0319 34.3024 79.4578 33.4484 79.9925 31.6693L81.7392 26.0115H63.0961C60.0305 26.0115 58.6402 26.8655 58.0699 28.6447ZM88.8683 5.72899L90.6155 0.0712274H71.972C68.8708 0.0712274 67.4806 0.925227 66.9459 2.7044L65.1992 8.36215H83.8423C86.9083 8.36215 88.2979 7.50815 88.8683 5.72899ZM60.7078 6.86765C59.9235 1.60132 57.1074 0.0712274 50.2633 0.0712274H37.7871L30.5152 21.3145H35.1136C37.8583 21.3145 39.2486 21.3501 40.7101 17.4359L43.74 8.32657H48.374C52.3308 8.32657 51.4397 13.2727 49.4434 18.0764C47.6612 22.3108 44.5599 26.0471 40.817 26.0471H33.0818C29.9805 26.0471 28.5547 26.9011 27.9843 28.6803L26.0593 34.338H31.7272L37.288 34.3024C42.2072 34.2668 46.2353 33.911 50.9406 29.6766C55.9311 25.1575 61.7058 13.5573 60.7078 6.86765ZM123.375 0.0356445H112.574L102.414 10.8174C101.238 12.0628 100.026 13.3082 98.8491 14.7672H98.7422L103.804 0.0356445H94.9999L83.1294 34.3024H91.9341L95.7123 23.5207L99.6333 20.2114L102.735 29.9613C103.697 32.9858 104.696 34.3024 106.835 34.3024H113.572L106.656 15.1586L123.375 0.0356445Z" fill="#00B33C"/>
</g>
<defs>
<clipPath id="clip0_310_8767">
<rect width="124" height="35" fill="white"/>
</clipPath>
</defs>
</svg>
