<svg width="122" height="51" viewBox="0 0 122 51" fill="none" xmlns="http://www.w3.org/2000/svg">
<g clip-path="url(#clip0_310_8886)">
<path fill-rule="evenodd" clip-rule="evenodd" d="M78.5014 40.2496C76.2806 40.8665 73.3884 41.1235 70.9093 41.1235C64.4537 41.1235 60.2188 37.7822 60.2188 31.6651C60.2188 25.8564 64.1955 22.1039 69.9797 22.1039C71.2709 22.1039 72.6653 22.2581 73.4917 22.6693V14.239H78.5014V40.2496ZM73.4917 26.9873C72.717 26.6274 71.6324 26.4218 70.3929 26.4218C67.3459 26.4218 65.3317 28.2724 65.3317 31.5109C65.3317 34.9549 67.5009 36.9083 71.0643 36.9083C71.684 36.9083 72.6653 36.9083 73.4917 36.7027V26.9873ZM119.664 40.2496C117.443 40.8665 114.551 41.1235 112.02 41.1235C105.616 41.1235 101.329 37.7822 101.329 31.6651C101.329 25.8564 105.306 22.1039 111.09 22.1039C112.433 22.1039 113.776 22.2581 114.602 22.6693V14.239H119.664V40.2496ZM114.602 26.9873C113.828 26.6274 112.795 26.4218 111.555 26.4218C108.456 26.4218 106.442 28.2724 106.442 31.5109C106.442 34.9549 108.663 36.9083 112.227 36.9083C112.846 36.9083 113.776 36.9083 114.602 36.7027V26.9873ZM86.4033 26.9873C87.2297 26.6274 88.4176 26.5246 89.3988 26.5246C92.4976 26.5246 94.6152 28.2724 94.6152 31.4081C94.6152 35.1091 92.2394 36.8055 89.089 36.8569V41.1235H89.3472C95.8547 41.1235 99.7282 37.5766 99.7282 31.2539C99.7282 25.4965 95.5964 22.1039 89.5021 22.1039C86.4033 22.1039 83.3562 22.8235 81.342 23.646V48.0631H86.4033V26.9873Z" fill="#3F3F42"/>
<path fill-rule="evenodd" clip-rule="evenodd" d="M41.7305 10.2295L42.5567 11.1548L43.0216 10.8978L41.7305 10.2295Z" fill="#DC0032"/>
<path fill-rule="evenodd" clip-rule="evenodd" d="M40.4902 9.56122L42.0912 11.4118L42.6593 11.1034L42.0396 10.3837L40.4902 9.56122Z" fill="#DC0032"/>
<path fill-rule="evenodd" clip-rule="evenodd" d="M39.1992 8.89294L41.6266 11.6688L42.1947 11.3604L40.8003 9.71542L39.1992 8.89294Z" fill="#DC0032"/>
<path fill-rule="evenodd" clip-rule="evenodd" d="M37.9609 8.22467L41.163 11.9258L41.7311 11.6174L39.5103 9.04715L37.9609 8.22467ZM44.1068 14.753L43.7453 14.9586L44.1068 15.3699V14.753Z" fill="#DC0032"/>
<path fill-rule="evenodd" clip-rule="evenodd" d="M36.7207 7.55646L40.6975 12.1829L41.2656 11.8745L38.2701 8.37893L36.7207 7.55646ZM43.8995 14.8559L43.3314 15.2157L44.1061 16.141V15.1643L43.8995 14.8559Z" fill="#DC0032"/>
<path fill-rule="evenodd" clip-rule="evenodd" d="M35.4297 6.88818L40.2328 12.4399L40.8526 12.1315L37.0307 7.71066L35.4297 6.88818ZM43.4349 15.1129L42.8667 15.4727L44.1063 16.912V15.9354L43.4349 15.1129Z" fill="#DC0032"/>
<path fill-rule="evenodd" clip-rule="evenodd" d="M34.1895 6.21991L39.8189 12.6969L40.3871 12.3885L35.7389 7.04237L34.1895 6.21991ZM42.9693 15.4213L42.4012 15.7297L44.1055 17.7345V16.7578L42.9693 15.4213Z" fill="#DC0032"/>
<path fill-rule="evenodd" clip-rule="evenodd" d="M32.9512 5.5517L39.3554 12.954L39.9235 12.6455L34.5006 6.37417L32.9512 5.5517ZM42.5057 15.6783L41.9376 15.9868L44.1068 18.5056V17.5289L42.5057 15.6783Z" fill="#DC0032"/>
<path fill-rule="evenodd" clip-rule="evenodd" d="M31.6602 4.88342L38.8906 13.211L39.4587 12.9025L33.2611 5.70589L31.6602 4.88342ZM42.041 15.9353L41.473 16.2438L44.1069 19.2767V18.3L42.041 15.9353Z" fill="#DC0032"/>
<path fill-rule="evenodd" clip-rule="evenodd" d="M30.4199 4.21515L38.4251 13.5194L38.9932 13.1595L31.9693 5.03762L30.4199 4.21515ZM41.5755 16.1924L41.0074 16.5008L44.1062 20.0991V19.1224L41.5755 16.1924Z" fill="#DC0032"/>
<path fill-rule="evenodd" clip-rule="evenodd" d="M29.1289 3.54688L37.9604 13.7764L38.5285 13.4165L30.73 4.36934L29.1289 3.54688ZM41.1625 16.4494L40.5428 16.7578L44.1063 20.8702V19.8935L41.1625 16.4494Z" fill="#DC0032"/>
<path fill-rule="evenodd" clip-rule="evenodd" d="M27.8887 2.87866L37.4949 14.0334L38.1146 13.6736L29.4897 3.70113L27.8887 2.87866ZM40.697 16.7064L40.1289 17.0149L44.1056 21.6927V20.6646L40.697 16.7064Z" fill="#DC0032"/>
<path fill-rule="evenodd" clip-rule="evenodd" d="M26.6504 2.21039L37.0829 14.2904L37.6511 13.9306L28.1998 3.03286L26.6504 2.21039ZM40.2334 16.9634L39.6653 17.2719L44.1068 22.4637V21.4871L40.2334 16.9634Z" fill="#DC0032"/>
<path fill-rule="evenodd" clip-rule="evenodd" d="M25.3574 1.49072L36.6163 14.5474L37.1844 14.1876L26.9585 2.3646L25.3574 1.49072ZM39.7668 17.2205L39.1987 17.5289L44.105 23.2347V22.2581L39.7668 17.2205Z" fill="#DC0032"/>
<path fill-rule="evenodd" clip-rule="evenodd" d="M24.1191 0.822449L36.1527 14.8044L36.7209 14.496L25.7202 1.69632L24.1191 0.822449ZM39.3032 17.4775L38.7351 17.7859L44.1063 24.0572V23.0292L39.3032 17.4775Z" fill="#DC0032"/>
<path fill-rule="evenodd" clip-rule="evenodd" d="M22.8789 0.205627L35.6871 15.0615L36.2553 14.753L24.4282 1.0281L22.8789 0.205627ZM38.8376 17.7345L38.2695 18.0429L44.1055 24.8283V23.8516L38.8376 17.7345Z" fill="#DC0032"/>
<path fill-rule="evenodd" clip-rule="evenodd" d="M22.0527 0L35.2225 15.3185L35.7906 15.0101L23.189 0.359831L22.8791 0.205618C22.6208 0.0514044 22.3626 0 22.0527 0ZM38.3729 17.9915L37.8048 18.3L44.1057 25.5994V24.6227L38.3729 17.9915Z" fill="#DC0032"/>
<path fill-rule="evenodd" clip-rule="evenodd" d="M22.0534 0C21.8468 0 21.6402 0.0514044 21.4336 0.102809L34.7583 15.5755L35.3781 15.2671L22.2083 0C22.1566 0 22.105 0 22.0534 0ZM37.9604 18.2486L37.3923 18.557L44.1063 26.4218V25.3937L37.9604 18.2486Z" fill="#DC0032"/>
<path fill-rule="evenodd" clip-rule="evenodd" d="M21.5885 0.0513916C21.4852 0.102796 21.3303 0.1542 21.2786 0.205605L20.9688 0.359818L34.3451 15.8325L34.9132 15.5241L21.5885 0.0513916ZM37.4955 18.5056L36.9274 18.8654L44.1062 27.1929V26.2162L37.4955 18.5056Z" fill="#DC0032"/>
<path fill-rule="evenodd" clip-rule="evenodd" d="M21.072 0.257019L20.5039 0.565446L33.8803 16.0896L34.4484 15.7811L21.072 0.257019ZM37.0307 18.7626L36.4626 19.1224L44.1062 27.964V26.9873L37.0307 18.7626Z" fill="#DC0032"/>
<path fill-rule="evenodd" clip-rule="evenodd" d="M20.6072 0.514038L20.0391 0.822464L33.4154 16.3466L33.9835 16.0381L20.6072 0.514038ZM36.5659 19.0196L35.9977 19.3795L44.1062 28.7865V27.8098L36.5659 19.0196Z" fill="#DC0032"/>
<path fill-rule="evenodd" clip-rule="evenodd" d="M20.1423 0.771057L19.5742 1.07949L32.9506 16.6036L33.5187 16.2952L20.1423 0.771057ZM36.101 19.2766L35.5329 19.6365L44.1062 29.5575V28.5808L36.101 19.2766Z" fill="#DC0032"/>
<path fill-rule="evenodd" clip-rule="evenodd" d="M19.6775 1.02808L19.1094 1.3365L32.4858 16.8606L33.0538 16.5522L19.6775 1.02808ZM35.6362 19.5337L35.0681 19.8935L44.1062 30.3286V29.3519L35.6362 19.5337Z" fill="#DC0032"/>
<path fill-rule="evenodd" clip-rule="evenodd" d="M19.2126 1.2851L18.6445 1.59352L32.0209 17.1176L32.589 16.8092L19.2126 1.2851ZM35.223 19.7907L34.6549 20.1505L44.1061 31.1511V30.1744L35.223 19.7907Z" fill="#DC0032"/>
<path fill-rule="evenodd" clip-rule="evenodd" d="M18.7478 1.49072L18.1797 1.85056L31.6078 17.3747L32.1759 17.0662L18.7478 1.49072ZM34.7581 20.0991L34.19 20.4076L44.1061 31.9221V30.9455L34.7581 20.0991Z" fill="#DC0032"/>
<path fill-rule="evenodd" clip-rule="evenodd" d="M18.283 1.74774L17.7148 2.05617L31.1429 17.6317L31.711 17.3233L18.283 1.74774ZM34.2933 20.3561L33.7252 20.6646L44.1061 32.7446V31.7165L34.2933 20.3561Z" fill="#DC0032"/>
<path fill-rule="evenodd" clip-rule="evenodd" d="M17.8181 2.00476L17.25 2.31319L30.6781 17.9401L31.2462 17.5803L17.8181 2.00476ZM33.8284 20.6132L33.2603 20.9216L44.1061 33.5156V32.5389L33.8284 20.6132Z" fill="#DC0032"/>
<path fill-rule="evenodd" clip-rule="evenodd" d="M17.3533 2.26178L16.7852 2.5702L30.2132 18.1971L30.7813 17.8373L17.3533 2.26178ZM33.3636 20.8702L32.7955 21.1786L44.106 34.2867V33.31L33.3636 20.8702Z" fill="#DC0032"/>
<path fill-rule="evenodd" clip-rule="evenodd" d="M16.8884 2.5188L16.3203 2.82723L29.7484 18.4542L30.3165 18.0943L16.8884 2.5188ZM32.8988 21.1272L32.3307 21.4356L44.106 35.1092V34.0811L32.8988 21.1272Z" fill="#DC0032"/>
<path fill-rule="evenodd" clip-rule="evenodd" d="M16.4236 2.77582L15.8555 3.08425L29.2835 18.7112L29.8516 18.3513L16.4236 2.77582ZM32.4856 21.3842L31.9175 21.6927L44.106 35.8802V34.9035L32.4856 21.3842Z" fill="#DC0032"/>
<path fill-rule="evenodd" clip-rule="evenodd" d="M15.9596 2.98145L15.3398 3.28987L28.8712 18.9682L29.4393 18.6084L15.9596 2.98145ZM32.0216 21.6413L31.4535 21.9497L44.1068 36.6513V35.6746L32.0216 21.6413Z" fill="#DC0032"/>
<path fill-rule="evenodd" clip-rule="evenodd" d="M15.4948 3.23847L14.875 3.54689L28.458 19.2766C28.5097 19.1738 28.5613 19.1224 28.6646 19.071L28.9745 18.8654L15.4948 3.23847ZM31.5568 21.8983L30.9887 22.2067L44.0035 37.3196C44.0552 37.1654 44.1068 37.0111 44.1068 36.8569V36.4457L31.5568 21.8983Z" fill="#DC0032"/>
<path fill-rule="evenodd" clip-rule="evenodd" d="M15.0299 3.49548L14.4102 3.80391L28.303 19.8935V19.6879C28.303 19.5337 28.4063 19.328 28.5096 19.1738L15.0299 3.49548ZM31.092 22.1553L30.6788 22.4123C30.6271 22.4123 30.5755 22.4637 30.5238 22.4637L43.7453 37.8336C43.9002 37.628 44.0035 37.4224 44.0551 37.2168L31.092 22.1553Z" fill="#DC0032"/>
<path fill-rule="evenodd" clip-rule="evenodd" d="M14.565 3.7525L13.9453 4.06093L28.3029 20.716V19.6879L14.565 3.7525ZM29.6458 22.2067L43.3836 38.1934C43.5386 38.0906 43.6935 37.885 43.8485 37.7308L30.627 22.4123C30.4205 22.5151 30.1106 22.5151 29.904 22.4123L29.6458 22.2067Z" fill="#DC0032"/>
<path fill-rule="evenodd" clip-rule="evenodd" d="M14.1002 4.00952L13.4805 4.31794L42.9188 38.4505L43.332 38.2448C43.3836 38.1934 43.4353 38.142 43.4869 38.0906L29.9556 22.4123H29.904L28.7161 21.6926C28.6128 21.6412 28.5612 21.5384 28.4579 21.4356C28.3546 21.2814 28.3546 21.1786 28.3029 21.0758V20.5103L14.1002 4.00952Z" fill="#DC0032"/>
<path fill-rule="evenodd" clip-rule="evenodd" d="M13.6354 4.26654L13.0156 4.57497L42.454 38.7075L43.0221 38.3991L13.6354 4.26654Z" fill="#DC0032"/>
<path fill-rule="evenodd" clip-rule="evenodd" d="M13.1705 4.47217L12.5508 4.7806L42.0408 38.9645L42.6089 38.6561L13.1705 4.47217Z" fill="#DC0032"/>
<path fill-rule="evenodd" clip-rule="evenodd" d="M12.7057 4.72919L12.0859 5.03762L41.576 39.2215L42.144 38.9131L12.7057 4.72919Z" fill="#DC0032"/>
<path fill-rule="evenodd" clip-rule="evenodd" d="M12.2409 4.98621L11.6211 5.29463L41.1111 39.4786L41.6793 39.1701L12.2409 4.98621Z" fill="#DC0032"/>
<path fill-rule="evenodd" clip-rule="evenodd" d="M11.7244 5.24323L11.1562 5.55165L40.6463 39.787L41.2144 39.4272L11.7244 5.24323Z" fill="#DC0032"/>
<path fill-rule="evenodd" clip-rule="evenodd" d="M11.2595 5.50024L10.6914 5.80867L40.1814 40.044L40.7496 39.6842L11.2595 5.50024Z" fill="#DC0032"/>
<path fill-rule="evenodd" clip-rule="evenodd" d="M10.7947 5.75726L10.2266 6.06568L39.7683 40.301L40.3364 39.9412L10.7947 5.75726Z" fill="#DC0032"/>
<path fill-rule="evenodd" clip-rule="evenodd" d="M10.3298 5.96289L9.76172 6.27131L39.3034 40.5581L39.8715 40.1982L10.3298 5.96289Z" fill="#DC0032"/>
<path fill-rule="evenodd" clip-rule="evenodd" d="M9.86499 6.21991L9.29688 6.52834L38.8386 40.8151L39.4067 40.5067L9.86499 6.21991Z" fill="#DC0032"/>
<path fill-rule="evenodd" clip-rule="evenodd" d="M9.40014 6.47693L8.83203 6.78536L23.1897 23.4403L23.6545 23.7488C23.8611 23.8516 24.0677 24.1086 24.0677 24.3656V24.417L38.3737 41.0721L38.9418 40.7637L9.40014 6.47693Z" fill="#DC0032"/>
<path fill-rule="evenodd" clip-rule="evenodd" d="M8.9353 6.73395L8.36719 7.04236L21.8469 22.7207L23.5512 23.646L8.9353 6.73395ZM24.016 24.2114C24.016 24.2628 24.0676 24.3142 24.0676 24.3656V25.2395L37.9089 41.3291L38.477 41.0207L24.016 24.2114Z" fill="#DC0032"/>
<path fill-rule="evenodd" clip-rule="evenodd" d="M8.47046 6.99097L7.90234 7.2994L20.5041 21.9497L22.2084 22.875L8.47046 6.99097ZM24.0676 25.0339V26.0106L37.4957 41.5862L38.0638 41.2777L24.0676 25.0339Z" fill="#DC0032"/>
<path fill-rule="evenodd" clip-rule="evenodd" d="M8.00561 7.24799L7.4375 7.55641L19.2129 21.1786L20.8656 22.1039L8.00561 7.24799ZM24.0676 25.805V26.8331L37.0308 41.8431L37.5989 41.5348L24.0676 25.805Z" fill="#DC0032"/>
<path fill-rule="evenodd" clip-rule="evenodd" d="M7.54077 7.45361L6.97266 7.76204L17.87 20.4075L19.5227 21.3842L7.54077 7.45361ZM24.0676 26.6275V27.6041L36.566 42.1002L37.1341 41.7917L24.0676 26.6275Z" fill="#DC0032"/>
<path fill-rule="evenodd" clip-rule="evenodd" d="M7.07591 7.71063L6.50781 8.01906L16.5272 19.6365L18.1799 20.6132L7.07591 7.71063ZM24.0675 27.3985V28.3752L36.1011 42.3572L36.6692 42.0487L24.0675 27.3985Z" fill="#DC0032"/>
<path fill-rule="evenodd" clip-rule="evenodd" d="M6.61108 7.96765L6.04297 8.27608L15.1843 18.9168L16.837 19.8421L6.61108 7.96765ZM24.0675 28.1696V29.1977L35.6363 42.6656L36.2044 42.3058L24.0675 28.1696Z" fill="#DC0032"/>
<path fill-rule="evenodd" clip-rule="evenodd" d="M6.14623 8.22467L5.57812 8.5331L13.8416 18.1457L15.4942 19.071L6.14623 8.22467ZM24.0675 28.9921V29.9687L35.2231 42.9226L35.7912 42.5628L24.0675 28.9921Z" fill="#DC0032"/>
<path fill-rule="evenodd" clip-rule="evenodd" d="M5.68139 8.48169L5.11328 8.79012L12.4987 17.3746L14.203 18.2999L5.68139 8.48169ZM24.0674 29.7631V30.7398L34.7582 43.1796L35.3263 42.8198L24.0674 29.7631Z" fill="#DC0032"/>
<path fill-rule="evenodd" clip-rule="evenodd" d="M5.21654 8.73877L4.64844 9.0472L11.1559 16.6036L12.8602 17.5803L5.21654 8.73877ZM18.7479 25.3938L20.0907 26.9359V26.3705C20.0907 26.2677 19.9874 26.1134 19.8841 26.062L18.7479 25.3938ZM24.0674 30.5343V31.5623L34.2934 43.4367L34.8615 43.0769L24.0674 30.5343Z" fill="#DB0032"/>
<path fill-rule="evenodd" clip-rule="evenodd" d="M4.7517 8.94434L4.18359 9.25276L9.81304 15.8325L11.5174 16.8092L4.7517 8.94434ZM17.405 24.6227L20.0907 27.7069V26.7302L19.1094 25.5993L17.405 24.6227ZM24.0674 31.3567V32.3334L33.8285 43.6937L34.3966 43.3853L24.0674 31.3567Z" fill="#DC0032"/>
<path fill-rule="evenodd" clip-rule="evenodd" d="M4.28686 9.20135L3.71875 9.50978L8.52185 15.1128L10.1745 16.0381L4.28686 9.20135ZM16.0622 23.903L20.0906 28.5294V27.5527L17.7665 24.8283L16.0622 23.903ZM24.0674 32.1277V33.1044L33.3637 43.9507L33.9318 43.6423L24.0674 32.1277Z" fill="#DC0032"/>
<path fill-rule="evenodd" clip-rule="evenodd" d="M3.82201 9.45844L3.25391 9.76686L7.179 14.3418L8.8317 15.2671L3.82201 9.45844ZM14.771 23.132L20.0906 29.3005V28.3239L16.4237 24.0573L14.771 23.132ZM24.0673 32.9502V33.9269L32.9505 44.2078L33.5186 43.8994L24.0673 32.9502Z" fill="#DC0032"/>
<path fill-rule="evenodd" clip-rule="evenodd" d="M3.35717 9.71545L2.78906 10.0239L5.8362 13.5708L7.48886 14.496L3.35717 9.71545ZM13.4282 22.361L20.0906 30.0716V29.0949L15.0809 23.3376L13.4282 22.361ZM24.0673 33.7213V34.698L32.4857 44.4648L33.0538 44.1564L24.0673 33.7213Z" fill="#DC0032"/>
<path fill-rule="evenodd" clip-rule="evenodd" d="M2.89233 9.97247L2.32422 10.2809L4.49336 12.7997L6.14604 13.7764L2.89233 9.97247ZM12.0854 21.5899L20.0905 30.8941V29.9174L13.7381 22.5666L12.0854 21.5899ZM24.0673 34.4923V35.469L32.0209 44.7218L32.5889 44.4134L24.0673 34.4923Z" fill="#DC0032"/>
<path fill-rule="evenodd" clip-rule="evenodd" d="M2.42748 10.2295L1.85938 10.5379L3.15053 12.0287L4.85486 13.0053L2.42748 10.2295ZM10.7425 20.8702L20.0905 31.6651V30.6884L12.3952 21.7955L10.7425 20.8702ZM24.0673 35.3148V36.2915L31.556 44.9788L32.1241 44.6704L24.0673 35.3148Z" fill="#DC0032"/>
<path fill-rule="evenodd" clip-rule="evenodd" d="M1.9635 10.4351L1.34375 10.7435L1.80856 11.309L3.51289 12.2343L1.9635 10.4351ZM9.40057 20.0991L20.0914 32.4876V31.4595L11.1049 21.0244L9.40057 20.0991ZM24.0681 36.0859V37.0626L31.092 45.2873L31.6601 44.9274L24.0681 36.0859Z" fill="#DC0032"/>
<path fill-rule="evenodd" clip-rule="evenodd" d="M1.49824 10.6921L1.13672 10.8978L2.16965 11.4632L1.49824 10.6921ZM8.05731 19.3281L20.0909 33.2586V32.282L9.76165 20.3048L8.05731 19.3281ZM24.0676 36.857V37.8851L30.6784 45.5443L31.2465 45.1845L24.0676 36.857Z" fill="#DC0032"/>
<path fill-rule="evenodd" clip-rule="evenodd" d="M6.76562 18.557L20.0904 34.0297V33.053L8.4183 19.5337L6.76562 18.557ZM24.0671 37.6794V38.6561L30.2131 45.8013L30.7812 45.4415L24.0671 37.6794Z" fill="#DC0032"/>
<path fill-rule="evenodd" clip-rule="evenodd" d="M5.42383 17.8373L20.0914 34.8522V33.8241L7.07649 18.7626L5.42383 17.8373ZM24.0681 38.4505V39.4272L29.7492 46.0583L30.3174 45.6985L24.0681 38.4505Z" fill="#DC0032"/>
<path fill-rule="evenodd" clip-rule="evenodd" d="M4.08008 17.0662L20.0904 35.6232V34.6465L5.73276 17.9915L4.08008 17.0662ZM24.0672 39.2215V40.2496L29.2835 46.3153L29.8516 46.0069L24.0672 39.2215Z" fill="#DC0032"/>
<path fill-rule="evenodd" clip-rule="evenodd" d="M2.73633 16.2952L20.0895 36.3943V35.4176L4.38901 17.2719L2.73633 16.2952ZM24.0662 40.044V41.0207L28.8177 46.5724L29.3858 46.2639L24.0662 40.044Z" fill="#DB0032"/>
<path fill-rule="evenodd" clip-rule="evenodd" d="M1.39453 15.5241L20.0905 37.2168V36.2401L3.04721 16.5008L1.39453 15.5241ZM24.0672 40.8151V41.7917L28.4055 46.8294L28.9737 46.521L24.0672 40.8151Z" fill="#DA0032"/>
<path fill-rule="evenodd" clip-rule="evenodd" d="M0.0507812 14.8044L20.0896 37.9879V37.0112L1.75511 15.7297L0.0507812 14.8044ZM24.0663 41.5862V42.6142L27.9398 47.0864L28.5079 46.778L24.0663 41.5862Z" fill="#D90032"/>
<path fill-rule="evenodd" clip-rule="evenodd" d="M0 14.7531V15.4727L20.0904 38.7589V37.7823L0.413171 14.9587L0 14.7531ZM24.0671 42.4086V43.0255C24.0671 43.1283 24.0155 43.2311 23.9638 43.2825L27.4758 47.3435L28.0439 47.035L24.0671 42.4086Z" fill="#D80032"/>
<path fill-rule="evenodd" clip-rule="evenodd" d="M0 15.2671V16.2952L20.0904 39.5814V38.6047L0 15.2671ZM24.0155 43.1797C23.9638 43.3853 23.8089 43.5909 23.654 43.6423L23.6023 43.6937L27.011 47.6005L27.5791 47.2921L24.0155 43.1797Z" fill="#D70032"/>
<path fill-rule="evenodd" clip-rule="evenodd" d="M0 16.0895V17.0662L20.0904 40.3524V39.3758L0 16.0895ZM23.7056 43.5909C23.7056 43.6423 23.7056 43.6423 23.654 43.6423L23.1376 43.9507L26.5462 47.8575L27.1143 47.5491L23.7056 43.5909Z" fill="#D60032"/>
<path fill-rule="evenodd" clip-rule="evenodd" d="M0 16.8606V17.8373L20.0904 41.1235V40.1468L0 16.8606ZM23.2924 43.8479L22.6727 44.2077L26.133 48.1659L26.7011 47.8061L23.2924 43.8479Z" fill="#D50032"/>
<path fill-rule="evenodd" clip-rule="evenodd" d="M0 17.6831V18.6598L20.0904 41.9459V40.9693L0 17.6831ZM22.8277 44.1049L22.4662 44.3106C22.3629 44.362 22.2596 44.362 22.1563 44.362L25.6682 48.423L26.2363 48.0631L22.8277 44.1049Z" fill="#D40032"/>
<path fill-rule="evenodd" clip-rule="evenodd" d="M0 18.4542V19.4309L20.0904 42.717V41.7403L0 18.4542ZM21.2266 44.1049L25.2034 48.68L25.7715 48.3201L22.3112 44.362C22.2596 44.362 22.1563 44.4134 22.1046 44.4134H22.053C21.898 44.4134 21.7948 44.362 21.6915 44.3106L21.2266 44.1049Z" fill="#D30032"/>
<path fill-rule="evenodd" clip-rule="evenodd" d="M0 19.2252V20.2533L24.7385 48.937L25.3067 48.5771L21.5882 44.2591L20.4519 43.6423C20.2454 43.5395 20.0904 43.2824 20.0904 43.0254V42.5114L0 19.2252Z" fill="#D20032"/>
<path fill-rule="evenodd" clip-rule="evenodd" d="M0 20.0477V21.0244L24.2737 49.194L24.8418 48.8856L0 20.0477Z" fill="#D10032"/>
<path fill-rule="evenodd" clip-rule="evenodd" d="M0 20.8188V21.7955L23.8089 49.451L24.377 49.1426L0 20.8188Z" fill="#D00032"/>
<path fill-rule="evenodd" clip-rule="evenodd" d="M0 21.5898V22.6179L23.3957 49.708L23.9638 49.3996L0 21.5898Z" fill="#CF0032"/>
<path fill-rule="evenodd" clip-rule="evenodd" d="M0 22.4124V23.389L22.931 49.9651L23.499 49.6567L0 22.4124Z" fill="#CE0032"/>
<path fill-rule="evenodd" clip-rule="evenodd" d="M0 23.1833V24.16L22.4145 50.1707C22.5695 50.1193 22.7244 50.0679 22.8793 50.0165L23.0343 49.9137L0 23.1833Z" fill="#CD0032"/>
<path fill-rule="evenodd" clip-rule="evenodd" d="M0 23.9544V24.9825L21.7431 50.1707C21.8464 50.1707 21.9497 50.1707 22.053 50.1707C22.2079 50.1707 22.3629 50.1707 22.5178 50.1193L0 23.9544Z" fill="#CC0032"/>
<path fill-rule="evenodd" clip-rule="evenodd" d="M0 24.7769V25.7536L20.5552 49.6053L21.2783 50.0165C21.4332 50.1193 21.6915 50.1707 21.8981 50.1707L0 24.7769Z" fill="#CB0032"/>
<path fill-rule="evenodd" clip-rule="evenodd" d="M0 25.548V26.5247L19.2124 48.8342L20.9168 49.8109L0 25.548Z" fill="#CA0032"/>
<path fill-rule="evenodd" clip-rule="evenodd" d="M0 26.3704V27.3471L17.8696 48.0631L19.5739 49.0398L0 26.3704Z" fill="#C90032"/>
<path fill-rule="evenodd" clip-rule="evenodd" d="M0 27.1415V28.1182L16.5268 47.292L18.1795 48.2687L0 27.1415Z" fill="#C80033"/>
<path fill-rule="evenodd" clip-rule="evenodd" d="M0 27.9126V28.8893L15.184 46.521L16.8367 47.4977L0 27.9126Z" fill="#C70033"/>
<path fill-rule="evenodd" clip-rule="evenodd" d="M0 28.735V29.7117L13.7896 45.6985L15.4939 46.6752L0 28.735Z" fill="#C60033"/>
<path fill-rule="evenodd" clip-rule="evenodd" d="M0 29.5061V30.4828L12.4468 44.9274L14.151 45.9041L0 29.5061Z" fill="#C50033"/>
<path fill-rule="evenodd" clip-rule="evenodd" d="M0 30.2772V31.2539L11.104 44.1564L12.8083 45.1331L0 30.2772Z" fill="#C40033"/>
<path fill-rule="evenodd" clip-rule="evenodd" d="M0 31.0997V32.0764L9.76115 43.3853L11.4655 44.362L0 31.0997Z" fill="#C30033"/>
<path fill-rule="evenodd" clip-rule="evenodd" d="M0 31.8707V32.8473L8.41834 42.6142L10.1227 43.5909L0 31.8707Z" fill="#C20033"/>
<path fill-rule="evenodd" clip-rule="evenodd" d="M0 32.6417V33.6698L7.07552 41.8431L8.72822 42.8198L0 32.6417Z" fill="#C10033"/>
<path fill-rule="evenodd" clip-rule="evenodd" d="M0 33.4642V34.4409L5.68109 41.0721L7.3854 42.0488L0 33.4642Z" fill="#C00033"/>
<path fill-rule="evenodd" clip-rule="evenodd" d="M0 34.2353V35.212L4.33829 40.3011L6.04262 41.2263L0 34.2353Z" fill="#BF0033"/>
<path fill-rule="evenodd" clip-rule="evenodd" d="M0 35.0063V36.0344L2.99549 39.4786L4.69981 40.4553L0 35.0063Z" fill="#BE0033"/>
<path fill-rule="evenodd" clip-rule="evenodd" d="M0 35.8289V36.8055L1.65268 38.7075L3.35701 39.6842L0 35.8289Z" fill="#BD0033"/>
<path fill-rule="evenodd" clip-rule="evenodd" d="M0 36.5999V36.8569C0 37.371 0.361524 37.9878 0.774693 38.2449L2.01421 38.9131L0 36.5999Z" fill="#BC0033"/>
<path fill-rule="evenodd" clip-rule="evenodd" d="M0.310547 37.7822C0.413839 37.885 0.465485 37.9879 0.568778 38.0392L0.310547 37.7822Z" fill="#BB0033"/>
</g>
<defs>
<clipPath id="clip0_310_8886">
<rect width="122" height="51" fill="white"/>
</clipPath>
</defs>
</svg>
