<svg width="90" height="426" viewBox="0 0 90 426" fill="none" xmlns="http://www.w3.org/2000/svg">
<path d="M89.7363 422.099C88.4247 422.65 86.6884 422.928 84.5228 422.928L65.2433 422.928L65.2433 426L89.7363 426L89.7363 422.099ZM89.7363 406.245C88.4334 405.934 87.0017 405.774 85.4335 405.774C83.1044 405.774 78.6783 406.481 72.15 407.899C65.6223 409.315 56.0823 411.592 43.5342 414.73C31.0851 417.767 21.5712 419.991 14.9936 421.41C8.41381 422.826 3.96121 423.535 1.63398 423.535C1.054 423.535 0.510547 423.503 -1.85092e-05 423.442L-1.86211e-05 426L18.4753 426C25.2086 424.492 34.4184 422.354 46.1149 419.588C57.5501 416.754 66.4315 414.628 72.7574 413.212C79.0815 411.794 83.3081 411.087 85.4335 411.087C87.167 411.087 88.5959 411.343 89.7363 411.842L89.7363 406.245ZM89.7363 382.243L-1.67084e-05 382.243L-1.69406e-05 387.556L52.6421 387.556L52.6421 400.46L57.956 400.46L57.956 387.556L89.7363 387.556L89.7363 382.243ZM89.7363 366.305L4.21513 366.305L-1.60226e-05 366.553L-1.6244e-05 371.619L89.7363 371.619L89.7363 366.305ZM89.7363 353.125L-1.57347e-05 359.968L-1.59496e-05 364.884L89.7363 358.04L89.7363 353.125ZM89.7363 346.57L-1.5149e-05 346.57L-1.53813e-05 351.883L83.1564 351.883L89.7363 351.496L89.7363 346.57ZM89.7363 330.546C88.4347 331.108 86.7482 331.39 84.6749 331.39L2.69667 331.39C1.70887 331.39 0.812872 331.323 -1.4477e-05 331.196L-1.47113e-05 336.555C0.853973 336.647 1.74586 336.703 2.69667 336.703L84.6749 336.703C86.5551 336.703 88.2347 336.511 89.7363 336.15L89.7363 330.546ZM89.7363 314.485C88.2347 314.124 86.5551 313.932 84.6749 313.932L2.69667 313.932C1.74587 313.932 0.853974 313.988 -1.37289e-05 314.08L-1.39632e-05 319.44C0.812873 319.312 1.70887 319.245 2.69667 319.245L84.6749 319.245C86.7482 319.245 88.4347 319.527 89.7363 320.089L89.7363 314.485ZM-1.28598e-05 294.198L-1.3092e-05 299.511L89.7367 299.511L89.7367 294.198L-1.28598e-05 294.198ZM89.7363 275.303C88.4247 275.854 86.6884 276.133 84.5228 276.133L65.2433 276.133L65.2433 281.446L84.5228 281.446C86.461 281.446 88.1909 281.242 89.7363 280.859L89.7363 275.303ZM89.7363 259.45C88.4334 259.138 87.0017 258.978 85.4335 258.978C83.1044 258.978 78.6783 259.685 72.1501 261.103C65.6223 262.52 56.0823 264.797 43.5342 267.935C31.0851 270.971 21.5712 273.196 14.9936 274.615C8.41382 276.03 3.96121 276.74 1.63398 276.74C1.054 276.74 0.510554 276.707 -1.20926e-05 276.647L-1.2326e-05 281.985C0.528821 282.027 1.06999 282.053 1.63398 282.053C4.26445 282.053 9.02075 281.294 15.9043 279.776C22.7864 278.258 32.8552 275.929 46.1149 272.793C57.5501 269.959 66.4315 267.833 72.7574 266.417C79.0815 264.998 83.3081 264.292 85.4335 264.292C87.167 264.292 88.596 264.548 89.7363 265.047L89.7363 259.45ZM89.7363 221.028L-9.66144e-06 221.028L-9.8937e-06 226.341L52.6422 226.341L52.6422 239.245L57.9561 239.245L57.9561 226.341L89.7363 226.341L89.7363 221.028ZM89.7363 205.004C88.4347 205.567 86.7482 205.848 84.6749 205.848L2.69667 205.848C1.70888 205.848 0.812878 205.781 -8.98942e-06 205.654L-9.22369e-06 211.013C0.853978 211.106 1.74587 211.161 2.69667 211.161L84.6749 211.161C86.5551 211.161 88.2347 210.97 89.7363 210.609L89.7363 205.004ZM89.7363 188.943C88.2347 188.581 86.5551 188.39 84.6749 188.39L2.69667 188.39C1.74587 188.39 0.853979 188.446 -8.24128e-06 188.539L-8.47555e-06 193.898C0.812878 193.771 1.70888 193.704 2.69667 193.704L84.6749 193.704C86.7482 193.704 88.4347 193.985 89.7363 194.547L89.7363 188.943ZM89.7363 164.42L66.6092 160.003L57.9561 158.637L57.9561 157.422L66.6092 156.056L89.7363 151.639L89.7363 146.261L57.9561 152.716L57.9561 155.296L-6.78822e-06 155.296L-7.02713e-06 160.762L57.9561 160.762L57.9561 163.343L89.7363 169.798L89.7363 164.42ZM89.7363 134.457C88.4347 134.991 86.7482 135.259 84.6749 135.259L65.2433 135.259L65.2433 140.572L84.6749 140.572C86.5551 140.572 88.2347 140.38 89.7363 140.019L89.7363 134.457ZM89.7363 118.96C88.2347 118.599 86.5551 118.408 84.6749 118.408L2.69668 118.408C1.74587 118.408 0.853982 118.464 -5.18224e-06 118.556L-5.41612e-06 123.906C0.812881 123.785 1.70888 123.722 2.69668 123.722L84.6749 123.722C86.7482 123.722 88.4347 123.989 89.7363 124.523L89.7363 118.96ZM89.7363 102.814C89.6678 102.876 89.6048 102.942 89.5326 103C88.216 104.064 85.9888 104.594 82.8528 104.594L66.6092 104.594C63.5732 104.594 61.3716 104.064 60.0052 103C58.6388 101.938 57.9561 100.344 57.9561 98.2186L57.9561 92.6015L89.7363 92.6015L89.7363 87.288L-3.81548e-06 87.288L-4.04774e-06 92.6015L52.6422 92.6015L52.6422 95.9402L-4.57629e-06 104.693L-4.80855e-06 110.007L52.9586 101.201C53.4505 103.456 54.5255 105.326 56.2102 106.796C58.5867 108.869 62.0547 109.908 66.6092 109.908L82.8528 109.908C85.539 109.908 87.8246 109.551 89.7363 108.859L89.7363 102.814ZM89.7363 61.4803L-2.68739e-06 61.4803L-2.91964e-06 66.7937L52.6422 66.7937L52.6422 79.698L57.9561 79.698L57.9561 66.7937L89.7363 66.7937L89.7363 61.4803ZM89.7363 45.5431L4.21514 45.5431L-2.00157e-06 45.7906L-2.22299e-06 50.8561L89.7363 50.8561L89.7363 45.5431ZM89.7363 32.362L-1.71374e-06 39.2058L-1.92861e-06 44.1215L89.7363 37.2782L89.7363 32.362ZM89.7363 25.8078L-1.12809e-06 25.8078L-1.36035e-06 31.1212L83.1565 31.1212L89.7363 30.734L89.7363 25.8078ZM89.7363 3.9225e-06L0 0L-2.32258e-07 5.31345L52.6422 5.31345L52.6422 18.2169L57.9561 18.2169L57.9561 5.31345L89.7363 5.31345L89.7363 3.9225e-06ZM25.9242 128.276L20.6108 128.276L20.6108 135.259L2.69668 135.259C1.70888 135.259 0.812881 135.195 -5.90429e-06 135.074L-6.13814e-06 140.424C0.853981 140.516 1.74587 140.572 2.69668 140.572L25.9242 140.572L25.9242 128.276ZM23.6463 406.077L2.84874 406.077C1.84131 406.077 0.898268 406.136 -1.77572e-05 406.238L-1.7991e-05 411.587C0.847576 411.459 1.7929 411.39 2.84874 411.39L23.6463 411.39L23.6463 406.077ZM23.6463 259.282L2.84875 259.282C1.84132 259.282 0.898274 259.341 -1.13406e-05 259.442L-1.15744e-05 264.792C0.847582 264.664 1.79291 264.595 2.84875 264.595L23.6463 264.595L23.6463 259.282Z" fill="url(#paint0_linear_361_5275)"/>
<defs>
<linearGradient id="paint0_linear_361_5275" x1="44.8681" y1="-0.000262912" x2="44.8681" y2="426" gradientUnits="userSpaceOnUse">
<stop stop-color="#DD8B47"/>
<stop offset="0.518362" stop-color="#B35A1E"/>
<stop offset="1" stop-color="#985330"/>
</linearGradient>
</defs>
</svg>
