<svg width="91" height="426" viewBox="0 0 91 426" fill="none" xmlns="http://www.w3.org/2000/svg">
<path d="M0.480488 3.9014C1.79207 3.35019 3.52837 3.07212 5.69394 3.07212L24.9735 3.07212L24.9735 2.85187e-06L0.480488 3.9225e-06L0.480488 3.9014ZM0.480489 19.755C1.78339 20.066 3.21508 20.2263 4.78331 20.2263C7.11236 20.2263 11.5385 19.5193 18.0667 18.1009C24.5945 16.6847 34.1344 14.4082 46.6826 11.2699C59.1316 8.23343 68.6456 6.009 75.2231 4.58963C81.8029 3.17395 86.2556 2.46469 88.5828 2.46469C89.1628 2.46469 89.7062 2.4971 90.2168 2.55783L90.2168 0L71.7414 8.07583e-07C65.0082 1.50842 55.7983 3.64566 44.1019 6.41223C32.6667 9.24591 23.7852 11.3717 17.4593 12.7879C11.1353 14.2063 6.90869 14.9128 4.78331 14.9128C3.04976 14.9128 1.62082 14.6571 0.480489 14.1584L0.480489 19.755ZM0.48049 43.7566L90.2168 43.7566L90.2168 38.4436L37.5746 38.4436L37.5746 25.5397L32.2607 25.5397L32.2607 38.4436L0.48049 38.4436L0.48049 43.7566ZM0.480491 59.6946L86.0016 59.6946L90.2168 59.4467L90.2168 54.3812L0.480491 54.3812L0.480491 59.6946ZM0.480491 72.8753L90.2168 66.032L90.2168 61.1158L0.480491 67.9596L0.480491 72.8753ZM0.480492 79.4305L90.2168 79.4305L90.2168 74.1165L7.06032 74.1166L0.480492 74.5038L0.480492 79.4305ZM0.480492 95.4543C1.78203 94.8922 3.46854 94.61 5.54186 94.61L87.5201 94.61C88.5079 94.61 89.4039 94.6766 90.2168 94.8045L90.2168 89.4449C89.3628 89.3527 88.4709 89.2965 87.5201 89.2965L5.54186 89.2965C3.66171 89.2965 1.98205 89.4887 0.480492 89.8495L0.480492 95.4543ZM0.480493 111.515C1.98205 111.876 3.66171 112.068 5.54186 112.068L87.5201 112.068C88.4709 112.068 89.3628 112.012 90.2168 111.92L90.2168 106.56C89.4039 106.688 88.5079 106.755 87.5201 106.755L5.54186 106.755C3.46855 106.755 1.78203 106.473 0.480493 105.911L0.480493 111.515ZM90.2168 131.802L90.2168 126.489L0.480051 126.489L0.480052 131.802L90.2168 131.802ZM0.480495 150.697C1.79208 150.146 3.52838 149.867 5.69394 149.867L24.9735 149.867L24.9735 144.554L5.69394 144.554C3.7558 144.554 2.0259 144.758 0.480495 145.141L0.480495 150.697ZM0.480496 166.55C1.7834 166.862 3.21508 167.022 4.78331 167.022C7.11237 167.022 11.5385 166.315 18.0667 164.897C24.5945 163.48 34.1344 161.203 46.6826 158.065C59.1316 155.029 68.6456 152.804 75.2231 151.385C81.803 149.97 86.2556 149.26 88.5828 149.26C89.1628 149.26 89.7062 149.293 90.2168 149.353L90.2168 144.015C89.688 143.973 89.1468 143.947 88.5828 143.947C85.9523 143.947 81.196 144.706 74.3125 146.224C67.4304 147.742 57.3615 150.071 44.1019 153.207C32.6667 156.041 23.7852 158.167 17.4593 159.583C11.1353 161.002 6.9087 161.708 4.78331 161.708C3.04977 161.708 1.62082 161.452 0.480495 160.953L0.480496 166.55ZM0.480497 204.972L90.2168 204.972L90.2168 199.659L37.5746 199.659L37.5746 186.755L32.2607 186.755L32.2607 199.659L0.480497 199.659L0.480497 204.972ZM0.480498 220.996C1.78203 220.433 3.46855 220.152 5.54187 220.152L87.5201 220.152C88.5079 220.152 89.4039 220.219 90.2168 220.346L90.2168 214.987C89.3628 214.894 88.4709 214.839 87.5201 214.839L5.54187 214.839C3.66172 214.839 1.98205 215.03 0.480498 215.391L0.480498 220.996ZM0.480499 237.057C1.98206 237.419 3.66172 237.61 5.54187 237.61L87.5201 237.61C88.4709 237.61 89.3628 237.554 90.2168 237.461L90.2168 232.102C89.4039 232.229 88.5079 232.296 87.5201 232.296L5.54187 232.296C3.46855 232.296 1.78203 232.015 0.480498 231.453L0.480499 237.057ZM0.4805 261.58L23.6076 265.997L32.2607 267.363L32.2607 268.578L23.6076 269.944L0.4805 274.361L0.480501 279.739L32.2607 273.284L32.2607 270.704L90.2168 270.704L90.2168 265.238L32.2607 265.238L32.2607 262.657L0.480499 256.202L0.4805 261.58ZM0.480501 291.543C1.78204 291.009 3.46855 290.741 5.54187 290.741L24.9735 290.741L24.9735 285.428L5.54187 285.428C3.66172 285.428 1.98206 285.62 0.480501 285.981L0.480501 291.543ZM0.480502 307.04C1.98206 307.401 3.66172 307.592 5.54187 307.592L87.5201 307.592C88.4709 307.592 89.3628 307.536 90.2168 307.444L90.2168 302.094C89.4039 302.215 88.5079 302.278 87.5201 302.278L5.54187 302.278C3.46855 302.278 1.78204 302.011 0.480501 301.477L0.480502 307.04ZM0.480502 323.186C0.549007 323.124 0.612018 323.058 0.684177 323C2.00078 321.936 4.228 321.406 7.36401 321.406L23.6076 321.406C26.6436 321.406 28.8452 321.936 30.2116 323C31.578 324.062 32.2607 325.656 32.2607 327.781L32.2607 333.399L0.480503 333.399L0.480503 338.712L90.2168 338.712L90.2168 333.399L37.5746 333.399L37.5746 330.06L90.2168 321.307L90.2168 315.993L37.2582 324.799C36.7663 322.544 35.6913 320.674 34.0066 319.204C31.6301 317.131 28.162 316.092 23.6076 316.092L7.36401 316.092C4.67783 316.092 2.39216 316.449 0.480502 317.141L0.480502 323.186ZM0.480504 364.52L90.2168 364.52L90.2168 359.206L37.5746 359.206L37.5746 346.302L32.2607 346.302L32.2607 359.206L0.480504 359.206L0.480504 364.52ZM0.480505 380.457L86.0017 380.457L90.2168 380.209L90.2168 375.144L0.480505 375.144L0.480505 380.457ZM0.480505 393.638L90.2168 386.794L90.2168 381.879L0.480505 388.722L0.480505 393.638ZM0.480506 400.192L90.2168 400.192L90.2168 394.879L7.06033 394.879L0.480506 395.266L0.480506 400.192ZM0.480507 426L90.2168 426L90.2168 420.687L37.5746 420.687L37.5746 407.783L32.2607 407.783L32.2607 420.687L0.480507 420.687L0.480507 426ZM64.2926 297.724L69.606 297.724L69.606 290.741L87.5201 290.741C88.5079 290.741 89.4039 290.805 90.2168 290.926L90.2168 285.576C89.3628 285.484 88.4709 285.428 87.5201 285.428L64.2926 285.428L64.2926 297.724ZM66.5705 19.9226L87.368 19.9226C88.3755 19.9226 89.3185 19.8636 90.2168 19.7618L90.2168 14.4128C89.3692 14.5411 88.4239 14.6096 87.368 14.6096L66.5705 14.6096L66.5705 19.9226ZM66.5705 166.718L87.368 166.718C88.3755 166.718 89.3185 166.659 90.2168 166.558L90.2168 161.208C89.3692 161.336 88.4239 161.405 87.368 161.405L66.5705 161.405L66.5705 166.718Z" fill="url(#paint0_linear_361_5269)"/>
<defs>
<linearGradient id="paint0_linear_361_5269" x1="45.3487" y1="426" x2="45.3487" y2="0.000241443" gradientUnits="userSpaceOnUse">
<stop stop-color="#DD8B47"/>
<stop offset="0.518362" stop-color="#B35A1E"/>
<stop offset="1" stop-color="#985330"/>
</linearGradient>
</defs>
</svg>
