<svg width="33" height="30" viewBox="0 0 33 30" fill="none" xmlns="http://www.w3.org/2000/svg">
<path d="M23.2969 1.5C21.5028 1.5 19.849 2.05965 18.4061 3.14935C17.6204 3.7427 16.9913 4.42399 16.5 5.07132C16.0087 4.42398 15.3796 3.7427 14.5939 3.14934C13.151 2.05965 11.4972 1.5 9.70312 1.5C4.706 1.5 1 5.51023 1 10.659C1 13.4868 2.17671 15.8239 4.08516 18.0727C5.95615 20.2772 8.60799 22.484 11.6861 25.0454L11.7465 25.0956C11.7465 25.0956 11.7465 25.0956 11.7465 25.0957C12.8089 25.9798 14.008 26.9777 15.2536 28.0413C15.6021 28.3394 16.0453 28.5 16.5 28.5C16.9546 28.5 17.3975 28.3395 17.7459 28.0418C18.9918 26.9778 20.191 25.9799 21.2542 25.0951C21.2542 25.0951 21.2542 25.0951 21.2542 25.0951L21.3146 25.0448C24.3924 22.4837 27.044 20.2771 28.9149 18.0726C30.8233 15.8239 32 13.4868 32 10.659C32 5.51023 28.294 1.5 23.2969 1.5Z" stroke="#975330" stroke-width="2"/>
</svg>
