<svg width="65" height="64" viewBox="0 0 65 64" fill="none" xmlns="http://www.w3.org/2000/svg">
<path d="M57.3336 27.8788C57.0104 27.2323 56.6064 26.8283 56.1215 26.5051C56.2831 25.4545 56.2831 24.6465 56.2831 23.5152C56.2831 10.5051 45.6973 0 32.768 0C19.8387 0 9.25284 10.5859 9.25284 23.5152C9.25284 24.404 9.33365 25.2929 9.41446 26.2626C8.92961 26.5859 8.52557 26.9899 8.20233 27.5556C7.71749 28.4444 7.55587 29.4141 7.8791 30.3838C8.12153 31.3535 8.76799 32.1616 9.65688 32.6465C10.2225 32.9697 10.869 33.1313 11.5155 33.1313C11.6771 33.1313 11.8387 33.1313 12.0003 33.1313C10.6266 34.3434 10.3033 36.4444 11.3538 37.9798C12.0811 39.0303 13.2932 39.596 14.4246 39.596C14.9902 39.596 15.5559 39.4343 16.0407 39.1919C15.6367 39.9192 15.4751 40.7273 15.5559 41.5354C15.7175 42.5051 16.2023 43.3939 17.0104 44.0404C17.6569 44.5253 18.465 44.8485 19.273 44.8485C20.1619 44.8485 20.97 44.5253 21.6973 43.9596C24.364 45.4141 27.3539 46.303 30.3438 46.5455L26.7882 48.7273C26.7074 48.8081 26.6266 48.8081 26.6266 48.8889C26.5458 48.9697 26.5458 49.0505 26.5458 49.1313V49.2121V49.2929V59.6364V59.7172V59.798C26.5458 59.8788 26.6266 59.9596 26.6266 60.0404C26.6266 60.0404 26.6266 60.0404 26.7074 60.1212L26.7882 60.202L26.869 60.2828C26.869 60.2828 26.869 60.2828 26.9498 60.3636L32.6872 63.9192H32.768H32.8488C32.9296 63.9192 33.0104 64 33.0912 64C33.172 64 33.2528 64 33.3337 63.9192H33.4145H33.4953L39.2326 60.3636C39.2326 60.3636 39.2326 60.3636 39.3134 60.2828L39.3943 60.202L39.4751 60.1212C39.4751 60.1212 39.4751 60.1212 39.5559 60.0404C39.6367 59.9596 39.6367 59.8788 39.6367 59.798V59.7172V59.6364V49.3737V49.2929V49.2121C39.6367 49.1313 39.5559 49.0505 39.5559 48.9697C39.4751 48.8889 39.4751 48.8081 39.3943 48.8081L35.7579 46.5455C38.5054 46.2222 41.2528 45.3333 43.6771 44.1212C44.4044 44.6869 45.2124 45.0101 46.1013 45.0101C46.9094 45.0101 47.6367 44.7677 48.3639 44.2828C49.8993 43.1515 50.3033 41.0505 49.3336 39.5152C49.8993 39.7576 50.465 39.9192 51.0306 39.9192C52.2427 39.9192 53.3741 39.3535 54.1013 38.303C54.667 37.4949 54.9094 36.5253 54.667 35.4748C54.5054 34.6667 54.1013 33.9394 53.5357 33.3737C53.6973 33.3737 53.8589 33.4545 54.1013 33.4545C54.7478 33.4545 55.3134 33.2929 55.8791 32.9697C56.768 32.4848 57.4145 31.6768 57.6569 30.7071C57.8993 29.7374 57.8185 28.7677 57.3336 27.8788ZM10.465 31.1919C9.98011 30.9495 9.65688 30.4646 9.49526 29.899C9.33365 29.3333 9.41446 28.7677 9.65688 28.2828C9.8993 27.798 10.3842 27.4747 10.9498 27.3131C11.1114 27.2323 11.3538 27.2323 11.5155 27.2323C11.8387 27.2323 12.2427 27.3131 12.566 27.4747C13.0508 27.7172 13.3741 28.202 13.5357 28.7677C13.6973 29.3333 13.6165 29.899 13.2932 30.3838C13.0508 30.8687 12.566 31.1919 12.0003 31.3535C11.5155 31.5152 10.9498 31.4343 10.465 31.1919ZM16.5256 36.2828C16.4448 36.7677 16.1215 37.2525 15.6367 37.5758C15.1518 37.899 14.5862 37.9798 14.0205 37.899C13.4549 37.8182 12.97 37.4949 12.6468 37.0101C12.0003 36.0404 12.2427 34.7475 13.2124 34.101C13.5357 33.8586 13.9397 33.7778 14.4246 33.7778C14.5862 33.7778 14.667 33.7778 14.8286 33.7778C15.3943 33.8586 15.8791 34.1818 16.2023 34.6667C16.5256 35.1515 16.6064 35.7172 16.5256 36.2828ZM21.0508 42.3434C20.3235 43.2323 18.9498 43.3939 18.0609 42.6667C17.5761 42.3434 17.3336 41.8586 17.2528 41.2929C17.172 40.7273 17.3336 40.1616 17.6569 39.7576C18.0609 39.1919 18.7074 38.9495 19.3539 38.9495C19.8387 38.9495 20.2427 39.1111 20.6468 39.3535C21.5357 40.0808 21.7781 41.3737 21.0508 42.3434ZM32.2831 47.2727V48.8081L30.0205 50.101L28.8892 49.3737L32.2831 47.2727ZM28.1619 50.8283L29.1316 51.4748V57.5354L28.1619 58.1818V50.8283ZM32.2023 61.8182L28.8084 59.7172L29.9397 58.9899L32.2023 60.2828V61.8182ZM33.0912 58.9091L30.7478 57.6162V51.5556L33.0912 50.2626L35.4347 51.5556V57.6162L33.0912 58.9091ZM33.8993 61.8182V60.2828L36.1619 58.9899L37.2932 59.7172L33.8993 61.8182ZM38.0205 58.2626L37.0508 57.6162V51.5556L38.0205 50.9091V58.2626ZM37.2932 49.3737L36.1619 50.101L33.8993 48.8081V47.2727L37.2932 49.3737ZM47.3134 42.8283C46.3438 43.5556 45.0508 43.3131 44.3235 42.4242C44.0003 41.9394 43.8387 41.3737 43.9195 40.8889C44.0003 40.3232 44.3235 39.8384 44.7276 39.5152C45.1316 39.2727 45.5357 39.1111 46.0205 39.1111C46.1013 39.1111 46.2629 39.1111 46.3438 39.1111C46.9094 39.1919 47.3943 39.5152 47.7175 39.9192C48.4448 40.8081 48.2023 42.1818 47.3134 42.8283ZM47.8791 33.8586C47.3134 34.6667 47.071 35.6364 47.3134 36.6869C47.3943 37.0909 47.5559 37.4949 47.7175 37.8182C46.5054 37.1717 44.97 37.2525 43.7579 38.1414C42.9498 38.7071 42.465 39.596 42.3033 40.5657C42.2225 41.2929 42.3033 41.9394 42.6266 42.5859C39.5559 44.1212 36.2427 44.9293 32.768 44.9293C29.2932 44.9293 25.8185 44.0404 22.7478 42.5051C23.4751 40.9697 22.9902 39.1111 21.6165 37.9798C20.4852 37.0909 18.9498 37.0101 17.6569 37.5758C18.3842 36.3636 18.3842 34.8283 17.4953 33.6162C16.9296 32.8081 16.1215 32.2424 15.1518 32C14.7478 31.9192 14.3437 31.9192 13.9397 32C14.2629 31.7576 14.5054 31.4343 14.7478 31.0303C15.2326 30.1414 15.3943 29.1717 15.071 28.202C14.7478 27.2323 14.1821 26.4242 13.2932 25.9394C12.566 25.5354 11.7579 25.3737 10.9498 25.5354C10.869 24.8081 10.869 24.0808 10.869 23.4343C10.869 11.4747 20.7276 1.61616 32.768 1.61616C44.8892 1.61616 54.667 11.4747 54.667 23.5152C54.667 24.4848 54.667 25.1313 54.5862 25.8586C53.7781 25.697 52.97 25.8586 52.1619 26.2626C51.273 26.7475 50.6266 27.5556 50.3842 28.5253C50.1417 29.4949 50.2225 30.4646 50.7074 31.3535C50.9498 31.7576 51.1922 32 51.5155 32.3232C50.1417 32.1616 48.6872 32.6465 47.8791 33.8586ZM52.7276 37.2525C52.0811 38.2222 50.7074 38.4646 49.7377 37.8182C49.2528 37.4949 48.9296 37.0101 48.8488 36.4444C48.768 35.8788 48.8488 35.3131 49.172 34.8283C49.4953 34.3434 49.9801 34.0202 50.5458 33.9394C50.7074 33.9394 50.7882 33.9394 50.9498 33.9394C51.3539 33.9394 51.7579 34.101 52.1619 34.3434C52.6468 34.6667 52.97 35.1515 53.0508 35.7172C53.1316 36.202 53.0508 36.7677 52.7276 37.2525ZM56.0407 30.1414C55.7175 31.2727 54.5054 31.9192 53.4549 31.596C52.3235 31.2727 51.6771 30.0606 52.0003 29.0101C52.1619 28.4444 52.4852 28.0404 52.97 27.7172C53.2932 27.5556 53.6165 27.4747 54.0205 27.4747C54.1821 27.4747 54.4246 27.4747 54.5862 27.5556C55.1518 27.7172 55.5559 28.0404 55.8791 28.5253C56.1215 29.0101 56.2023 29.5758 56.0407 30.1414Z" fill="#BEB096"/>
</svg>
