<svg width="65" height="64" viewBox="0 0 65 64" fill="none" xmlns="http://www.w3.org/2000/svg">
<path d="M54.0122 41.9519C52.1083 39.1827 48.9929 37.5385 45.8776 37.2788V35.375C47.0026 35.2019 48.1276 34.8558 49.0795 34.1635C50.6372 33.0385 51.7622 31.3942 52.1083 29.4904C52.4545 27.5865 52.0218 25.6827 50.8968 24.0385C49.6853 22.3077 47.9545 21.3558 46.0506 21.0096C46.1372 20.8365 46.2237 20.6635 46.2237 20.4038C46.2237 19.9712 46.0506 19.625 45.7045 19.3654V16.5096C46.2237 16.4231 47.0026 16.0769 47.6083 15.4712C48.8199 14.3462 49.4256 12.4423 49.4256 9.84615V9.5C49.4256 8.28846 48.9064 7.16346 48.041 6.29808C47.1756 5.43269 46.0506 5 44.8391 5C42.3295 5 40.3391 7.07692 40.4256 9.67308C40.4256 9.75962 40.4256 9.84615 39.9929 9.84615C39.4737 9.84615 39.1276 10.2788 39.2141 10.7981C39.2141 11.3173 39.6468 11.6635 40.166 11.5769C41.0314 11.4904 41.5506 11.1442 41.8103 10.7981C42.2429 10.2788 42.2429 9.67308 42.2429 9.5C42.2429 7.94231 43.4545 6.73077 45.0122 6.73077C45.791 6.73077 46.4833 6.99038 47.0026 7.50962C47.5218 8.02885 47.8679 8.72115 47.8679 9.5V9.84615C47.8679 11.8365 47.4352 13.3077 46.6564 14.1731C45.8776 14.8654 45.0987 14.8654 45.0987 14.8654C44.8391 14.8654 44.666 14.9519 44.4064 15.125C44.2333 15.2981 44.1468 15.5577 44.1468 15.7308L44.2333 19.3654C43.9737 19.625 43.7141 19.9712 43.7141 20.4038C43.7141 20.5769 43.8006 20.8365 43.8872 21.0096C42.8487 21.1827 41.8968 21.5288 41.0314 22.2212C39.4737 23.3462 38.3487 24.9904 38.0026 26.8942C37.6564 28.7981 38.0891 30.7019 39.2141 32.3462C40.3391 33.9038 41.9833 35.0288 43.8872 35.375C44.0603 35.375 44.2333 35.4615 44.4064 35.4615V37.3654C42.5891 37.5385 40.7718 38.1442 39.1276 39.2692C34.1949 42.6442 32.9833 49.4808 36.3583 54.4135C38.2622 57.3558 41.6372 59 45.0987 59C47.2622 59 49.4256 58.3942 51.2429 57.0962C53.666 55.4519 55.2237 52.9423 55.7429 50.0865C56.2622 47.2308 55.6564 44.375 54.0122 41.9519ZM43.9737 33.6442C42.5026 33.3846 41.291 32.6058 40.4256 31.3942C39.5602 30.1827 39.3006 28.7115 39.5603 27.2404C39.8199 25.7692 40.5987 24.5577 41.8103 23.6923C42.7622 23 43.8872 22.7404 44.9256 22.7404C46.6564 22.7404 48.3872 23.6058 49.5122 25.0769C50.3776 26.2885 50.6372 27.7596 50.3776 29.2308C50.1179 30.7019 49.3391 31.9135 48.1276 32.7788C46.916 33.6442 45.4449 33.9038 43.9737 33.6442ZM54.0987 49.8269C53.666 52.25 52.2814 54.3269 50.291 55.7115C46.1372 58.5673 40.4256 57.5288 37.5699 53.375C34.7141 49.2212 35.7526 43.5096 39.9064 40.6538C41.4641 39.5288 43.2814 39.0096 45.0987 39.0096C48.041 39.0096 50.8968 40.3942 52.6276 42.9904C54.0122 44.9808 54.5314 47.4038 54.0987 49.8269Z" fill="#BEB096"/>
<path d="M28.1381 41.9519C26.2343 39.1827 23.1189 37.5385 20.0035 37.2788V35.375C21.1285 35.2019 22.2535 34.8558 23.2055 34.1635C24.7631 33.0385 25.8881 31.3942 26.2343 29.4904C26.5805 27.5865 26.1478 25.6827 25.0228 24.0385C23.8112 22.3077 22.0805 21.3558 20.1766 21.0096C20.2631 20.8365 20.3497 20.6635 20.3497 20.4038C20.3497 19.9712 20.1766 19.625 19.8305 19.3654V16.5096C20.3497 16.4231 21.1285 16.0769 21.7343 15.4712C22.9458 14.3462 23.5516 12.4423 23.5516 9.84615V9.5C23.5516 8.28846 23.0324 7.16346 22.167 6.29808C21.3016 5.43269 20.1766 5 18.9651 5C16.4555 5 14.4651 7.07692 14.5516 9.67308C14.5516 9.75962 14.5516 9.84615 14.1189 9.84615C13.5997 9.84615 13.2535 10.2788 13.3401 10.7981C13.3401 11.3173 13.7728 11.6635 14.292 11.5769C15.1574 11.4904 15.6766 11.1442 15.9362 10.7981C16.3689 10.2788 16.3689 9.67308 16.3689 9.5C16.3689 7.94231 17.5805 6.73077 19.1382 6.73077C19.917 6.73077 20.6093 6.99038 21.1285 7.50962C21.6478 8.02885 21.9939 8.72115 21.9939 9.5V9.84615C21.9939 11.8365 21.5612 13.3077 20.7824 14.1731C20.0035 14.8654 19.2247 14.8654 19.2247 14.8654C18.9651 14.8654 18.792 14.9519 18.5324 15.125C18.3593 15.2981 18.2728 15.5577 18.2728 15.7308L18.3593 19.3654C18.0997 19.625 17.8401 19.9712 17.8401 20.4038C17.8401 20.5769 17.9266 20.8365 18.0132 21.0096C16.9747 21.1827 16.0228 21.5288 15.1574 22.2212C13.5997 23.3462 12.4747 24.9904 12.1285 26.8942C11.7824 28.7981 12.2151 30.7019 13.3401 32.3462C14.4651 33.9038 16.1093 35.0288 18.0132 35.375C18.1862 35.375 18.3593 35.4615 18.5324 35.4615V37.3654C16.7151 37.5385 14.8978 38.1442 13.2535 39.2692C8.32084 42.6442 7.1093 49.4808 10.4843 54.4135C12.3016 57.3558 15.7632 59 19.2247 59C21.3882 59 23.5516 58.3942 25.3689 57.0962C27.792 55.4519 29.3497 52.9423 29.8689 50.0865C30.3882 47.2308 29.7824 44.375 28.1381 41.9519ZM18.0132 33.6442C16.6285 33.3846 15.3305 32.6058 14.4651 31.3942C13.5997 30.1827 13.3401 28.7115 13.5997 27.2404C13.8593 25.7692 14.6382 24.5577 15.8497 23.6923C16.8016 23 17.9266 22.7404 18.9651 22.7404C20.6958 22.7404 22.4266 23.6058 23.5516 25.0769C24.417 26.2885 24.6766 27.7596 24.417 29.2308C24.1574 30.7019 23.3785 31.9135 22.167 32.7788C20.9555 33.6442 19.4843 33.9038 18.0132 33.6442ZM28.1381 49.8269C27.7055 52.25 26.3208 54.3269 24.3305 55.7115C20.2632 58.5673 14.5516 57.5288 11.6093 53.375C8.75354 49.2212 9.792 43.5096 13.9458 40.6538C15.5035 39.5288 17.3208 39.0096 19.1382 39.0096C22.0805 39.0096 24.9362 40.3942 26.667 42.9904C28.0516 44.9808 28.5708 47.4038 28.1381 49.8269Z" fill="#BEB096"/>
</svg>
