<svg width="65" height="64" viewBox="0 0 65 64" fill="none" xmlns="http://www.w3.org/2000/svg">
<path d="M56.3516 34.426C58.4312 34.426 60.1395 32.5692 59.991 30.4153C59.9167 28.2614 58.0599 26.6274 55.906 26.7017C57.9113 25.8847 58.8769 23.6565 58.1341 21.6511C57.3914 19.6458 55.089 18.6802 53.0836 19.423C54.7176 18.0118 54.9404 15.5608 53.6035 13.9268C52.2666 12.2928 49.8156 12.07 48.1074 13.4069C49.2214 11.5501 48.6273 9.17335 46.8447 8.05926C44.9879 6.94518 42.6112 7.46508 41.4971 9.3219C41.7199 8.28208 41.5714 7.31654 40.9772 6.42527C40.4573 5.534 39.566 4.93982 38.5262 4.717C37.4864 4.49418 36.4466 4.64273 35.5553 5.23691C34.7383 5.75682 34.1441 6.49954 33.9213 7.46508H30.8761C30.2819 5.534 28.3509 4.27136 26.2712 4.717C24.1916 5.16264 22.8547 7.24227 23.3003 9.3219C22.1862 7.46508 19.8095 6.8709 17.9527 7.98499C17.0614 8.5049 16.393 9.39617 16.1702 10.3617C15.9473 11.3273 16.0959 12.3671 16.6158 13.2583C14.9818 11.8472 12.5308 12.07 11.1196 13.704C10.4512 14.521 10.1541 15.4865 10.2284 16.5263C10.3026 17.5661 10.8225 18.4574 11.5653 19.2001C10.5997 18.8288 9.55991 18.8288 8.59437 19.2744C7.62882 19.7201 6.8861 20.4628 6.51474 21.4283C6.14337 22.3939 6.14337 23.4337 6.51474 24.3992C6.8861 25.3648 7.7031 26.1075 8.59437 26.4789C6.44046 26.4046 4.65792 28.0386 4.50938 30.1182C4.36083 32.2721 5.99483 34.1289 8.14873 34.2032C7.18319 34.5003 6.29192 35.0945 5.84628 36.06C5.32638 36.9513 5.17783 37.9911 5.47492 39.0309C5.92056 40.7392 7.55455 41.9275 9.26282 41.9275C9.55991 41.9275 9.93127 41.8533 10.3026 41.779C8.52009 42.9674 8.07446 45.4184 9.26282 47.2009C10.0055 48.315 11.2682 48.9092 12.5308 48.9092C13.2735 48.9092 14.0163 48.6863 14.6847 48.2407C13.4221 49.949 13.7192 52.4 15.4274 53.6626C16.1702 54.1825 16.9872 54.4796 17.8042 54.4796C18.9925 54.4796 20.1066 53.9597 20.8493 52.9941C20.1809 54.9995 21.2207 57.2277 23.3003 57.8961C23.746 58.0447 24.1173 58.119 24.563 58.119C26.197 58.119 27.6824 57.0791 28.2766 55.5194C28.2766 57.6733 29.9849 59.3816 32.1388 59.3816C33.1786 59.3816 34.1441 59.0102 34.8868 58.2675C35.6296 57.5248 36.0009 56.5592 36.0752 55.5194C36.3723 56.485 37.115 57.302 38.0063 57.7476C38.5262 58.0447 39.1204 58.1932 39.7888 58.1932C40.2345 58.1932 40.6058 58.119 41.0515 57.9704C43.0568 57.302 44.1709 55.0738 43.5025 53.0684C44.2452 54.1082 45.4335 54.6281 46.6219 54.6281C47.4389 54.6281 48.2559 54.4053 48.9243 53.8854C49.7413 53.2912 50.2613 52.3257 50.4098 51.2859C50.5583 50.2461 50.2613 49.2805 49.6671 48.3892C50.4098 48.8349 51.1525 49.0577 51.9695 49.0577C52.1923 49.0577 52.4152 49.0577 52.7122 48.9834C53.7521 48.7606 54.6433 48.2407 55.2375 47.3494C56.4259 45.5669 55.9802 43.1902 54.272 41.9275C54.6433 42.0018 54.9404 42.0761 55.3118 42.0761C55.9802 42.0761 56.5744 41.9275 57.1686 41.5562C58.0599 41.0363 58.7283 40.2193 59.0254 39.2537C59.6196 37.1741 58.4312 35.0202 56.3516 34.426ZM55.9802 28.2614C57.3171 28.1871 58.4312 29.2269 58.5055 30.5638C58.5798 31.158 58.357 31.7522 57.9113 32.2721C57.4657 32.7177 56.8715 33.0148 56.2031 33.0891C55.5346 33.0891 54.9404 32.8663 54.4948 32.4949C54.0492 32.0493 53.7521 31.4551 53.6778 30.7867C53.6778 30.1182 53.9006 29.524 54.272 29.0784C54.7176 28.6328 55.3118 28.3357 55.9802 28.2614ZM53.6778 20.8341C53.9749 20.7599 54.272 20.6856 54.5691 20.6856C54.8662 20.6856 55.2375 20.7599 55.5346 20.9084C56.1288 21.2055 56.5744 21.6511 56.7972 22.2453C57.0201 22.8395 57.0201 23.508 56.723 24.1021C56.4259 24.6963 55.9802 25.1419 55.3861 25.3648C54.7919 25.5876 54.1234 25.5876 53.5292 25.2905C52.9351 24.9934 52.4894 24.5478 52.2666 23.9536C52.0438 23.3594 52.0438 22.691 52.3409 22.0968C52.638 21.5026 53.0836 21.057 53.6778 20.8341ZM49.0729 14.5952C49.5185 14.2239 50.0384 14.0011 50.6326 14.0011C51.3011 14.0011 52.0438 14.2982 52.4894 14.8923C53.3064 15.9322 53.2322 17.4176 52.1923 18.3089C51.1525 19.1259 49.6671 19.0516 48.7758 18.0118C47.9588 16.972 48.0331 15.4865 49.0729 14.5952ZM42.7597 10.1389C43.2054 9.39617 44.0224 9.02481 44.8394 9.02481C45.285 9.02481 45.7306 9.17335 46.102 9.39617C47.2161 10.0646 47.5874 11.5501 46.919 12.7384C46.2505 13.8525 44.7651 14.2239 43.5767 13.5554C43.0568 13.1841 42.6112 12.6642 42.4626 12.07C42.3141 11.4015 42.4626 10.7331 42.7597 10.1389ZM35.4068 7.98499C35.5553 7.39081 35.9267 6.79663 36.4466 6.49954C36.8179 6.27672 37.2636 6.12818 37.7092 6.12818C37.8577 6.12818 38.0806 6.12818 38.2291 6.20245C38.8233 6.351 39.4175 6.72236 39.7146 7.24227C40.0859 7.76217 40.1602 8.43063 40.0116 9.09908C39.7146 10.3617 38.3777 11.1787 37.115 10.8816C35.8524 10.5845 35.1097 9.24762 35.4068 7.98499ZM26.7169 6.12818C27.9795 5.83109 29.3164 6.64809 29.6135 7.98499C29.762 8.57917 29.6135 9.24763 29.3164 9.76753C28.945 10.2874 28.4251 10.6588 27.831 10.8073C26.5683 11.1044 25.2314 10.2874 24.9343 8.95053C24.563 7.6879 25.4542 6.42527 26.7169 6.12818ZM17.7299 10.7331C17.8784 10.1389 18.2498 9.54471 18.844 9.24762C19.9581 8.57917 21.4435 8.95054 22.1862 10.0646C22.8547 11.1787 22.4833 12.6642 21.3692 13.4069C20.2552 14.0753 18.7697 13.704 18.027 12.5899C17.7299 11.9957 17.5813 11.3273 17.7299 10.7331ZM12.3823 14.7438C12.8279 14.1496 13.5706 13.9268 14.2391 13.9268C14.759 13.9268 15.3532 14.1496 15.7988 14.521C16.3187 14.9666 16.6158 15.4865 16.6158 16.155C16.6901 16.8234 16.4673 17.4176 16.0216 17.9375C15.1303 18.9773 13.6449 19.0516 12.6051 18.2346C12.0852 17.789 11.7881 17.2691 11.7881 16.6006C11.7881 15.8579 12.0109 15.1894 12.3823 14.7438ZM8.07446 23.805C7.85164 23.2109 7.77737 22.5424 8.07446 21.9482C8.29728 21.354 8.74291 20.9084 9.33709 20.6113C9.63418 20.4628 9.93127 20.3885 10.3026 20.3885C10.5997 20.3885 10.8968 20.4628 11.1939 20.5371C12.4565 21.057 13.0507 22.4681 12.5308 23.6565C12.0109 24.9191 10.5997 25.5133 9.41136 24.9934C8.74291 24.8449 8.29728 24.3992 8.07446 23.805ZM6.21765 30.1925C6.29192 28.9298 7.33173 27.89 8.59437 27.89C8.66864 27.89 8.66864 27.89 8.74291 27.89C10.0798 27.9643 11.1196 29.0784 11.0454 30.4153C11.0454 31.0837 10.7483 31.6779 10.2284 32.0493C9.78273 32.4949 9.11427 32.7177 8.52009 32.6435C7.10892 32.7177 6.14337 31.5294 6.21765 30.1925ZM10.0798 40.3678C8.74291 40.6649 7.40601 39.9222 7.10892 38.6595C6.96037 38.0654 7.03464 37.3969 7.33173 36.8027C7.62882 36.2086 8.14873 35.8372 8.81718 35.6886C9.04 35.6144 9.26282 35.6144 9.48564 35.6144C10.5255 35.6144 11.491 36.2828 11.7881 37.3969C12.1594 38.6595 11.4167 39.9965 10.0798 40.3678ZM14.9818 45.4184C14.8333 46.0868 14.4619 46.6067 13.942 46.9781C12.8279 47.7208 11.3425 47.4237 10.5997 46.3096C9.857 45.1955 10.1541 43.7101 11.2682 42.9674C11.6395 42.6703 12.1594 42.5217 12.6051 42.5217C12.7536 42.5217 12.9022 42.5217 13.0507 42.596C13.7192 42.7445 14.2391 43.1159 14.6104 43.6358C14.9818 44.1557 15.1303 44.8242 14.9818 45.4184ZM19.8095 52.0286C18.9925 53.0684 17.5071 53.2912 16.393 52.4742C15.3532 51.6572 15.1303 50.1718 15.9473 49.0577C16.393 48.4635 17.1357 48.0922 17.8784 48.0922C18.3983 48.0922 18.9182 48.2407 19.3639 48.6121C20.4037 49.5033 20.6265 50.9888 19.8095 52.0286ZM26.9397 54.9995C26.494 56.2621 25.1571 56.9306 23.8945 56.485C22.6319 56.0393 21.9634 54.7024 22.4091 53.4398C22.7804 52.4742 23.6717 51.8058 24.7115 51.8058C24.9343 51.8058 25.2314 51.8801 25.4542 51.9543C26.0484 52.1772 26.5683 52.6228 26.8654 53.1427C27.0882 53.7369 27.1625 54.4053 26.9397 54.9995ZM33.9213 57.2277C33.4757 57.6733 32.8815 57.8961 32.213 57.8961C30.8761 57.8961 29.8363 56.782 29.8363 55.4451C29.8363 54.1082 30.9504 53.0684 32.213 53.0684C33.5499 53.0684 34.5898 54.1825 34.5898 55.5194C34.664 56.1136 34.3669 56.782 33.9213 57.2277ZM40.6058 56.5592C40.0116 56.782 39.3432 56.7078 38.749 56.4107C38.1548 56.1136 37.7092 55.5937 37.5607 54.9995C37.115 53.7369 37.8577 52.4 39.1204 51.9543C39.3432 51.8801 39.6403 51.8058 39.8631 51.8058C40.9029 51.8058 41.7942 52.4742 42.1655 53.4398C42.5369 54.7767 41.8685 56.1879 40.6058 56.5592ZM48.9986 51.0631C48.9243 51.7315 48.553 52.2514 48.0331 52.6228C47.5132 52.9941 46.919 53.1427 46.2505 53.0684C45.5821 52.9941 45.0622 52.6228 44.6908 52.1029C43.8738 51.0631 44.0966 49.5033 45.2107 48.7606C45.6564 48.4635 46.102 48.2407 46.6219 48.2407C46.7704 48.2407 46.8447 48.2407 46.9933 48.2407C47.6617 48.315 48.1816 48.6863 48.553 49.2062C48.9243 49.8004 49.0729 50.4689 48.9986 51.0631ZM48.6273 43.1159C48.0331 44.0072 47.8103 45.047 48.0331 46.0125C48.1816 46.6067 48.4044 47.2009 48.7758 47.7208C48.2559 47.3494 47.736 47.1266 47.0675 47.0523C46.0277 46.9038 44.9879 47.2009 44.1709 47.7951C42.9083 48.6863 42.3884 50.4689 42.9825 52.0286C42.017 50.6917 40.2345 50.0232 38.6005 50.6174C36.9665 51.1373 35.9267 52.6971 35.9267 54.4053C35.7781 53.8111 35.4067 53.2912 34.9611 52.8456C34.2184 52.1029 33.2528 51.7315 32.213 51.6572C30.5048 51.6572 29.0193 52.7713 28.4994 54.3311C28.4994 53.7369 28.4251 53.0684 28.128 52.5485C27.6824 51.583 26.8654 50.9145 25.8999 50.5432C24.2659 49.949 22.4833 50.6174 21.5178 51.9543C22.112 50.3946 21.5921 48.6121 20.2552 47.498C18.844 46.4582 16.9872 46.4582 15.6503 47.4237C16.0216 46.9038 16.3187 46.3839 16.4673 45.7897C16.6901 44.7499 16.4673 43.7101 15.8731 42.8931C15.2789 42.0018 14.3876 41.4076 13.4221 41.2591C12.8279 41.1105 12.1594 41.1848 11.5653 41.3334C12.9764 40.4421 13.6449 38.7338 13.1993 37.0256C12.7536 35.3173 11.2682 34.2775 9.63418 34.2032C10.2284 34.0547 10.8225 33.7576 11.2682 33.3119C12.0109 32.6435 12.5308 31.6779 12.5308 30.6381C12.6051 28.9298 11.5653 27.3701 10.0055 26.7759C10.0798 26.7759 10.2284 26.7759 10.3026 26.7759C11.8624 26.7759 13.3478 25.8847 13.942 24.3249C14.3134 23.3594 14.3134 22.3196 13.942 21.354C13.7192 20.7599 13.3478 20.3142 12.8279 19.9429C13.2735 20.1657 13.7934 20.24 14.3134 20.24C14.3876 20.24 14.5362 20.24 14.6104 20.24C15.6503 20.1657 16.6158 19.6458 17.2843 18.9031C17.9527 18.0861 18.2498 17.1205 18.1755 16.0807C18.1013 15.4865 17.9527 14.8923 17.5813 14.3724C18.3241 14.9666 19.2153 15.338 20.1066 15.338C20.7751 15.338 21.5178 15.1894 22.112 14.8181C23.5974 13.9268 24.2659 12.2185 23.8945 10.5845C24.1916 11.1044 24.6372 11.6243 25.1571 11.9214C25.8256 12.2928 26.494 12.5156 27.2368 12.5156C27.5339 12.5156 27.831 12.5156 28.0538 12.4413C29.0936 12.2185 29.9106 11.6243 30.5048 10.7331C30.8019 10.2132 31.0247 9.61899 31.0989 9.02481H33.847C33.9956 10.6588 35.1839 12.07 36.8179 12.4413C37.115 12.5156 37.4121 12.5156 37.7092 12.5156C39.0461 12.5156 40.3087 11.7729 41.0515 10.5845C40.6801 12.1443 41.2743 13.9268 42.7597 14.8181C43.4282 15.1894 44.0966 15.4122 44.7651 15.4122C45.6564 15.4122 46.5476 15.1152 47.2904 14.521C46.9933 15.0409 46.7704 15.6351 46.6962 16.2292C46.6219 17.2691 46.919 18.3089 47.5874 19.0516C48.2559 19.8686 49.2214 20.3142 50.2613 20.4628C50.4098 20.4628 50.4841 20.4628 50.6326 20.4628C51.1525 20.4628 51.5982 20.3885 52.0438 20.1657C51.5982 20.537 51.2268 21.057 50.9297 21.5769C50.4841 22.5424 50.4841 23.5822 50.8554 24.5478C51.4496 26.1075 52.9351 27.073 54.4948 27.073C54.5691 27.073 54.6433 27.073 54.7176 27.073C54.1234 27.2959 53.6035 27.5929 53.1579 28.1128C52.4894 28.8556 52.1181 29.8954 52.1181 30.9352C52.1923 32.6435 53.3807 34.0547 55.0147 34.5003C53.3807 34.5746 51.821 35.6144 51.3753 37.3226C51.0783 38.2882 51.2268 39.4023 51.7467 40.2935C52.0438 40.8135 52.4894 41.2591 53.0093 41.6305C52.4152 41.4819 51.821 41.4076 51.1525 41.4819C50.1127 41.7047 49.2214 42.2246 48.6273 43.1159ZM53.9006 46.5324C53.5292 47.0523 53.0093 47.4237 52.3409 47.5723C51.6724 47.7208 51.0783 47.5723 50.5583 47.2009C49.4443 46.4582 49.2214 44.9727 49.9642 43.8586C50.4098 43.1902 51.1525 42.8188 51.9695 42.8188C52.4152 42.8188 52.9351 42.9674 53.3064 43.2645C54.4205 43.9329 54.7176 45.4926 53.9006 46.5324ZM57.54 38.8824C57.3914 39.4765 56.9458 39.9965 56.4259 40.2935C55.8317 40.5906 55.2375 40.6649 54.5691 40.5164C53.9749 40.3678 53.455 39.9222 53.1579 39.4023C52.8608 38.8081 52.7865 38.2139 52.9351 37.5455C53.2322 36.5056 54.1977 35.7629 55.2375 35.7629C55.4603 35.7629 55.6831 35.7629 55.906 35.8372C57.1686 36.2828 57.9113 37.6197 57.54 38.8824Z" fill="#BEB096"/>
</svg>
