<svg width="65" height="64" viewBox="0 0 65 64" fill="none" xmlns="http://www.w3.org/2000/svg">
<path d="M57.4465 6.87735C57.246 6.34274 56.9787 6.0086 56.6446 6.0086C56.2436 5.94177 55.9763 6.27591 55.9095 6.61004C55.9095 6.81053 53.8378 27.1259 32.6537 35.9471C11.5363 27.1259 9.4647 6.81053 9.39788 6.61004C9.39788 6.27591 9.06374 5.94177 8.66278 6.0086C8.32864 6.0086 7.99451 6.34274 8.06134 6.7437C8.06134 6.94418 10.1998 27.5937 31.4508 36.8827L25.5032 40.4913C25.4364 40.5582 25.3695 40.5582 25.3695 40.625C25.3027 40.6918 25.3027 40.7586 25.3027 40.8255V40.8923V40.9591V53.1885V53.2553V53.3221C25.3027 53.3889 25.3695 53.4558 25.3695 53.5226C25.3695 53.5226 25.3695 53.5226 25.4363 53.5894L25.5032 53.6562L25.57 53.7231C25.57 53.7231 25.57 53.7231 25.6368 53.7899L32.3864 57.9332H32.4532H32.52C32.5868 57.9332 32.6537 58 32.7205 58C32.7873 58 32.8541 58 32.921 57.9332H32.9878H33.0546L39.8042 53.7899C39.8042 53.7899 39.8042 53.7899 39.871 53.7231L39.9378 53.6562L40.0046 53.5894C40.0046 53.5894 40.0046 53.5894 40.0715 53.5226C40.1383 53.4558 40.1383 53.3889 40.1383 53.3221V53.2553V53.1885V41.0928V41.0259V40.9591C40.1383 40.8923 40.0715 40.8255 40.0715 40.7586C40.0046 40.6918 40.0046 40.625 39.9378 40.625L34.057 37.0163C55.3748 27.7942 57.4465 7.07783 57.4465 6.87735ZM31.9186 38.0856V40.5582L28.9782 42.2957L27.107 41.0928L31.9186 38.0856ZM26.5724 42.2957L28.3099 43.4317V50.8495L26.5724 51.9856V42.2957ZM31.9186 56.1957L27.107 53.1885L28.9782 51.9856L31.9186 53.7231V56.1957ZM32.5868 52.5202L29.5796 50.7827V43.4317L32.5868 41.6942L35.5941 43.4317V50.7827L32.5868 52.5202ZM33.2551 56.1957V53.7231L36.1955 51.9856L38.0667 53.1885L33.2551 56.1957ZM38.6681 51.9856L36.9306 50.8495V43.4317L38.6681 42.2957V51.9856ZM38.1335 41.0928L36.2623 42.2957L33.3219 40.5582V38.0856L38.1335 41.0928Z" fill="#BEB096"/>
</svg>
