<svg width="18" height="17" viewBox="0 0 18 17" fill="none" xmlns="http://www.w3.org/2000/svg">
<mask id="path-1-outside-1_334_6526" maskUnits="userSpaceOnUse" x="0" y="0" width="18" height="17" fill="black">
<rect fill="white" width="18" height="17"/>
<path fill-rule="evenodd" clip-rule="evenodd" d="M4.77483 13.2451C4.62067 13.3992 4.62067 13.6492 4.77483 13.8033C7.70376 16.7322 12.4525 16.7322 15.3814 13.8033C18.3104 10.8743 18.3104 6.12563 15.3814 3.1967C12.4525 0.267767 7.70376 0.267767 4.77483 3.1967C3.30954 4.66198 2.57723 6.58353 2.57813 8.50347V9.12508L1.67386 8.2208C1.51971 8.0667 1.26977 8.0667 1.11562 8.2208C0.961461 8.37499 0.961461 8.62493 1.11562 8.77912L2.67911 10.3426C2.75137 10.4231 2.85621 10.4737 2.97286 10.4737C2.98053 10.4737 2.98814 10.4735 2.99569 10.473C3.09236 10.4676 3.18398 10.4268 3.25281 10.3581L4.83175 8.77912C4.98591 8.62493 4.98591 8.37499 4.83175 8.2208C4.6776 8.0667 4.42766 8.0667 4.27351 8.2208L3.3676 9.12672V8.50347C3.36676 6.78442 4.02184 5.06617 5.33307 3.75494C7.95369 1.13432 12.2026 1.13432 14.8232 3.75494C17.4438 6.37556 17.4438 10.6245 14.8232 13.2451C12.2026 15.8657 7.95369 15.8657 5.33307 13.2451C5.17891 13.0909 4.92898 13.0909 4.77483 13.2451ZM8.89453 5.342C8.89453 5.124 9.07129 4.94727 9.28927 4.94727C9.50724 4.94727 9.684 5.124 9.684 5.342V8.4999C9.684 8.71787 9.86077 8.89463 10.0787 8.89463H13.2366C13.4546 8.89463 13.6314 9.0714 13.6314 9.28937C13.6314 9.50735 13.4546 9.68411 13.2366 9.68411H9.28927C9.07129 9.68411 8.89453 9.50735 8.89453 9.28937V5.342Z"/>
</mask>
<path fill-rule="evenodd" clip-rule="evenodd" d="M4.77483 13.2451C4.62067 13.3992 4.62067 13.6492 4.77483 13.8033C7.70376 16.7322 12.4525 16.7322 15.3814 13.8033C18.3104 10.8743 18.3104 6.12563 15.3814 3.1967C12.4525 0.267767 7.70376 0.267767 4.77483 3.1967C3.30954 4.66198 2.57723 6.58353 2.57813 8.50347V9.12508L1.67386 8.2208C1.51971 8.0667 1.26977 8.0667 1.11562 8.2208C0.961461 8.37499 0.961461 8.62493 1.11562 8.77912L2.67911 10.3426C2.75137 10.4231 2.85621 10.4737 2.97286 10.4737C2.98053 10.4737 2.98814 10.4735 2.99569 10.473C3.09236 10.4676 3.18398 10.4268 3.25281 10.3581L4.83175 8.77912C4.98591 8.62493 4.98591 8.37499 4.83175 8.2208C4.6776 8.0667 4.42766 8.0667 4.27351 8.2208L3.3676 9.12672V8.50347C3.36676 6.78442 4.02184 5.06617 5.33307 3.75494C7.95369 1.13432 12.2026 1.13432 14.8232 3.75494C17.4438 6.37556 17.4438 10.6245 14.8232 13.2451C12.2026 15.8657 7.95369 15.8657 5.33307 13.2451C5.17891 13.0909 4.92898 13.0909 4.77483 13.2451ZM8.89453 5.342C8.89453 5.124 9.07129 4.94727 9.28927 4.94727C9.50724 4.94727 9.684 5.124 9.684 5.342V8.4999C9.684 8.71787 9.86077 8.89463 10.0787 8.89463H13.2366C13.4546 8.89463 13.6314 9.0714 13.6314 9.28937C13.6314 9.50735 13.4546 9.68411 13.2366 9.68411H9.28927C9.07129 9.68411 8.89453 9.50735 8.89453 9.28937V5.342Z" fill="#D37E3E"/>
<path d="M4.77483 13.8033L4.84554 13.7326L4.84553 13.7326L4.77483 13.8033ZM4.77483 13.2451L4.84554 13.3158L4.84555 13.3158L4.77483 13.2451ZM15.3814 13.8033L15.3107 13.7326L15.3814 13.8033ZM4.77483 3.1967L4.84554 3.26741L4.84554 3.26741L4.77483 3.1967ZM2.57813 8.50347H2.67813V8.50343L2.57813 8.50347ZM2.57813 9.12508L2.50741 9.19579L2.67813 9.3665V9.12508H2.57813ZM1.67386 8.2208L1.74457 8.15009L1.74456 8.15008L1.67386 8.2208ZM1.11562 8.2208L1.04492 8.15008L1.0449 8.1501L1.11562 8.2208ZM1.11562 8.77912L1.0449 8.84982L1.0449 8.84983L1.11562 8.77912ZM2.67911 10.3426L2.75361 10.2757L2.74982 10.2719L2.67911 10.3426ZM2.99569 10.473L2.99012 10.3732L2.99 10.3732L2.99569 10.473ZM3.25281 10.3581L3.32349 10.4288L3.32352 10.4288L3.25281 10.3581ZM4.83175 8.77912L4.90246 8.84983L4.90247 8.84982L4.83175 8.77912ZM4.83175 8.2208L4.90247 8.1501L4.90245 8.15008L4.83175 8.2208ZM4.27351 8.2208L4.20281 8.15008L4.2028 8.15009L4.27351 8.2208ZM3.3676 9.12672H3.2676V9.36814L3.43831 9.19743L3.3676 9.12672ZM3.3676 8.50347H3.4676V8.50342L3.3676 8.50347ZM5.33307 3.75494L5.26236 3.68423V3.68423L5.33307 3.75494ZM14.8232 3.75494L14.7525 3.82565L14.7525 3.82565L14.8232 3.75494ZM14.8232 13.2451L14.7525 13.1743L14.7525 13.1743L14.8232 13.2451ZM5.33307 13.2451L5.26235 13.3158L5.26235 13.3158L5.33307 13.2451ZM4.84553 13.7326C4.73045 13.6175 4.73042 13.4309 4.84554 13.3158L4.70411 13.1743C4.51092 13.3676 4.51089 13.6808 4.70413 13.874L4.84553 13.7326ZM15.3107 13.7326C12.4208 16.6225 7.73542 16.6225 4.84554 13.7326L4.70412 13.874C7.6721 16.842 12.4841 16.842 15.4521 13.874L15.3107 13.7326ZM15.3107 3.26741C18.2006 6.15729 18.2006 10.8427 15.3107 13.7326L15.4521 13.874C18.4201 10.906 18.4201 6.09397 15.4521 3.12599L15.3107 3.26741ZM4.84554 3.26741C7.73542 0.37753 12.4208 0.37753 15.3107 3.26741L15.4521 3.12599C12.4841 0.158004 7.6721 0.158004 4.70412 3.12599L4.84554 3.26741ZM2.67813 8.50343C2.67725 6.60893 3.39977 4.71317 4.84554 3.26741L4.70412 3.12599C3.21931 4.61079 2.47722 6.55812 2.47813 8.50352L2.67813 8.50343ZM2.67813 9.12508V8.50347H2.47813V9.12508H2.67813ZM1.60315 8.29151L2.50741 9.19579L2.64884 9.05437L1.74457 8.15009L1.60315 8.29151ZM1.18632 8.29153C1.30142 8.17646 1.48806 8.17646 1.60316 8.29153L1.74456 8.15008C1.55136 7.95694 1.23812 7.95694 1.04492 8.15008L1.18632 8.29153ZM1.18633 8.70842C1.07122 8.59328 1.07122 8.40664 1.18633 8.29151L1.0449 8.1501C0.851701 8.34333 0.851701 8.65659 1.0449 8.84982L1.18633 8.70842ZM2.74982 10.2719L1.18633 8.70841L1.0449 8.84983L2.6084 10.4133L2.74982 10.2719ZM2.97286 10.3737C2.88578 10.3737 2.80761 10.336 2.75351 10.2758L2.60471 10.4094C2.69514 10.5101 2.82664 10.5737 2.97286 10.5737V10.3737ZM2.99 10.3732C2.98434 10.3735 2.97862 10.3737 2.97286 10.3737V10.5737C2.98243 10.5737 2.99194 10.5734 3.00139 10.5729L2.99 10.3732ZM3.18212 10.2873C3.13072 10.3387 3.06229 10.3692 2.99012 10.3732L3.00127 10.5729C3.12243 10.5661 3.23724 10.515 3.32349 10.4288L3.18212 10.2873ZM4.76104 8.70841L3.1821 10.2874L3.32352 10.4288L4.90246 8.84983L4.76104 8.70841ZM4.76104 8.29151C4.87615 8.40664 4.87615 8.59328 4.76104 8.70842L4.90247 8.84982C5.09567 8.65659 5.09567 8.34334 4.90247 8.1501L4.76104 8.29151ZM4.34421 8.29153C4.45931 8.17646 4.64595 8.17646 4.76105 8.29153L4.90245 8.15008C4.70925 7.95694 4.39601 7.95694 4.20281 8.15008L4.34421 8.29153ZM3.43831 9.19743L4.34422 8.29151L4.2028 8.15009L3.29689 9.05601L3.43831 9.19743ZM3.2676 8.50347V9.12672H3.4676V8.50347H3.2676ZM5.26236 3.68423C3.93161 5.01497 3.26674 6.75901 3.2676 8.50352L3.4676 8.50342C3.46677 6.80982 4.11207 5.11736 5.40378 3.82565L5.26236 3.68423ZM14.8939 3.68423C12.2343 1.02455 7.92203 1.02455 5.26236 3.68423L5.40378 3.82565C7.98535 1.24408 12.1709 1.24408 14.7525 3.82565L14.8939 3.68423ZM14.8939 13.3158C17.5536 10.6561 17.5536 6.3439 14.8939 3.68423L14.7525 3.82565C17.3341 6.40722 17.3341 10.5928 14.7525 13.1743L14.8939 13.3158ZM5.26235 13.3158C7.92203 15.9755 12.2343 15.9755 14.8939 13.3158L14.7525 13.1743C12.1709 15.7559 7.98535 15.7559 5.40378 13.1743L5.26235 13.3158ZM4.84555 13.3158C4.96064 13.2006 5.14725 13.2006 5.26235 13.3158L5.40378 13.1743C5.21058 12.9811 4.89732 12.9811 4.70411 13.1743L4.84555 13.3158ZM9.28927 4.84727C9.01607 4.84727 8.79453 5.06876 8.79453 5.342H8.99453C8.99453 5.17923 9.12652 5.04727 9.28927 5.04727V4.84727ZM9.78401 5.342C9.78401 5.06876 9.56247 4.84727 9.28927 4.84727V5.04727C9.45202 5.04727 9.584 5.17923 9.584 5.342H9.78401ZM9.78401 8.4999V5.342H9.584V8.4999H9.78401ZM10.0787 8.79463C9.916 8.79463 9.78401 8.66264 9.78401 8.4999H9.584C9.584 8.7731 9.80554 8.99463 10.0787 8.99463V8.79463ZM13.2366 8.79463H10.0787V8.99463H13.2366V8.79463ZM13.7314 9.28937C13.7314 9.01617 13.5098 8.79463 13.2366 8.79463V8.99463C13.3994 8.99463 13.5314 9.12663 13.5314 9.28937H13.7314ZM13.2366 9.78411C13.5098 9.78411 13.7314 9.56257 13.7314 9.28937H13.5314C13.5314 9.45212 13.3994 9.58411 13.2366 9.58411V9.78411ZM9.28927 9.78411H13.2366V9.58411H9.28927V9.78411ZM8.79453 9.28937C8.79453 9.56257 9.01607 9.78411 9.28927 9.78411V9.58411C9.12652 9.58411 8.99453 9.45212 8.99453 9.28937H8.79453ZM8.79453 5.342V9.28937H8.99453V5.342H8.79453Z" fill="#D37E3E" mask="url(#path-1-outside-1_334_6526)"/>
</svg>
