<svg width="19" height="19" viewBox="0 0 19 19" fill="none" xmlns="http://www.w3.org/2000/svg">
<mask id="path-1-outside-1_334_6642" maskUnits="userSpaceOnUse" x="0" y="0" width="19" height="19" fill="black">
<rect fill="white" width="19" height="19"/>
<path fill-rule="evenodd" clip-rule="evenodd" d="M16.0732 10.3704L17.6748 11.6228C17.9739 11.8602 18.0553 12.2777 17.8701 12.6175L16.1958 15.5137C16.0143 15.8462 15.6005 15.9943 15.2396 15.8542L13.3446 15.0933C12.9664 15.3634 12.5925 15.5805 12.212 15.7525L11.9238 17.7637C11.8773 18.1376 11.5463 18.4251 11.1549 18.4251H7.8151C7.42378 18.4251 7.0927 18.1376 7.0455 17.7564L6.75799 15.7525C6.36521 15.5754 5.98475 15.3547 5.62317 15.094L3.73326 15.8527C3.35862 15.9885 2.9506 15.8375 2.76981 15.5064L1.10425 12.6247C0.91475 12.2769 0.99609 11.8595 1.29307 11.6243L2.89618 10.3704C2.87222 10.125 2.85986 9.91227 2.85986 9.71259C2.85986 9.51292 2.87218 9.30021 2.89761 9.0548L1.29596 7.80308C0.991019 7.56206 0.910428 7.13078 1.10718 6.79824L2.77492 3.91221C2.95642 3.5797 3.36883 3.43012 3.73112 3.5717L5.6261 4.33259C6.00438 4.0625 6.37827 3.8454 6.75873 3.67333L7.04696 1.66144C7.09342 1.28751 7.4245 1 7.81585 1H11.1557C11.547 1 11.8781 1.28751 11.9252 1.66872L12.2128 3.67333C12.6056 3.84976 12.9853 4.07046 13.3469 4.33184L15.2368 3.57313C15.6092 3.43591 16.018 3.58766 16.2002 3.91946L17.8658 6.80114C18.056 7.14889 17.974 7.56638 17.6763 7.80162L16.0732 9.05476C16.0935 9.2479 16.1109 9.47368 16.1109 9.71256C16.1109 9.95144 16.0942 10.1772 16.0732 10.3704ZM15.5061 15.1789L17.2356 12.2617C17.2472 12.2414 17.2436 12.2087 17.2247 12.1935L15.4648 10.8169C15.3646 10.7385 15.3123 10.6121 15.3283 10.4858C15.3559 10.2651 15.3842 10.0008 15.3842 9.71256C15.3842 9.42505 15.3559 9.16003 15.3283 8.93932C15.3123 8.81227 15.3646 8.68666 15.4648 8.60824L17.2269 7.23094C17.2443 7.21716 17.2472 7.1852 17.232 7.15689L15.5664 4.27521L13.4282 5.08183C13.3084 5.1305 13.1741 5.11161 13.0717 5.0332C12.6535 4.71155 12.207 4.45235 11.7437 4.26285C11.6247 4.21419 11.5405 4.10603 11.5216 3.97823L11.205 1.76524L7.81585 1.72604L7.44846 3.97823C7.43028 4.10531 7.34608 4.21347 7.227 4.26285C6.7812 4.4451 6.34557 4.69777 5.89616 5.03538C5.79378 5.11161 5.66092 5.12975 5.54258 5.08183L3.46392 4.24689L1.73448 7.16414L3.50524 8.60821C3.60543 8.68662 3.65771 8.81224 3.64175 8.93929C3.60397 9.24423 3.58583 9.48964 3.58583 9.71253C3.58583 9.93541 3.60326 10.1815 3.64175 10.4858C3.65771 10.6121 3.60543 10.7384 3.50524 10.8168L1.74312 12.1941C1.7257 12.2079 1.72281 12.2406 1.73805 12.2689L3.40362 15.1506L5.54183 14.344C5.58611 14.3258 5.63185 14.3178 5.67759 14.3178C5.75601 14.3178 5.83442 14.3433 5.89905 14.3933C6.31654 14.7143 6.76306 14.9735 7.227 15.1637C7.34608 15.2124 7.43028 15.3205 7.44917 15.4483L7.76646 17.6606L11.1549 17.6991L11.5216 15.4476C11.5397 15.3198 11.6247 15.2116 11.7437 15.163C12.1896 14.9807 12.6244 14.7274 13.0746 14.3905C13.1762 14.315 13.3098 14.2968 13.4275 14.344L15.5061 15.1789ZM5.85402 9.71275C5.85402 7.71104 7.48255 6.0825 9.48426 6.0825C11.486 6.0825 13.1145 7.71104 13.1145 9.71275C13.1145 11.7145 11.486 13.343 9.48426 13.343C7.48255 13.343 5.85402 11.7145 5.85402 9.71275ZM6.58009 9.71275C6.58009 11.3144 7.88262 12.6169 9.48426 12.6169C11.0859 12.6169 12.3884 11.3144 12.3884 9.71275C12.3884 8.1111 11.0859 6.80857 9.48426 6.80857C7.88262 6.80857 6.58009 8.1111 6.58009 9.71275Z"/>
</mask>
<path fill-rule="evenodd" clip-rule="evenodd" d="M16.0732 10.3704L17.6748 11.6228C17.9739 11.8602 18.0553 12.2777 17.8701 12.6175L16.1958 15.5137C16.0143 15.8462 15.6005 15.9943 15.2396 15.8542L13.3446 15.0933C12.9664 15.3634 12.5925 15.5805 12.212 15.7525L11.9238 17.7637C11.8773 18.1376 11.5463 18.4251 11.1549 18.4251H7.8151C7.42378 18.4251 7.0927 18.1376 7.0455 17.7564L6.75799 15.7525C6.36521 15.5754 5.98475 15.3547 5.62317 15.094L3.73326 15.8527C3.35862 15.9885 2.9506 15.8375 2.76981 15.5064L1.10425 12.6247C0.91475 12.2769 0.99609 11.8595 1.29307 11.6243L2.89618 10.3704C2.87222 10.125 2.85986 9.91227 2.85986 9.71259C2.85986 9.51292 2.87218 9.30021 2.89761 9.0548L1.29596 7.80308C0.991019 7.56206 0.910428 7.13078 1.10718 6.79824L2.77492 3.91221C2.95642 3.5797 3.36883 3.43012 3.73112 3.5717L5.6261 4.33259C6.00438 4.0625 6.37827 3.8454 6.75873 3.67333L7.04696 1.66144C7.09342 1.28751 7.4245 1 7.81585 1H11.1557C11.547 1 11.8781 1.28751 11.9252 1.66872L12.2128 3.67333C12.6056 3.84976 12.9853 4.07046 13.3469 4.33184L15.2368 3.57313C15.6092 3.43591 16.018 3.58766 16.2002 3.91946L17.8658 6.80114C18.056 7.14889 17.974 7.56638 17.6763 7.80162L16.0732 9.05476C16.0935 9.2479 16.1109 9.47368 16.1109 9.71256C16.1109 9.95144 16.0942 10.1772 16.0732 10.3704ZM15.5061 15.1789L17.2356 12.2617C17.2472 12.2414 17.2436 12.2087 17.2247 12.1935L15.4648 10.8169C15.3646 10.7385 15.3123 10.6121 15.3283 10.4858C15.3559 10.2651 15.3842 10.0008 15.3842 9.71256C15.3842 9.42505 15.3559 9.16003 15.3283 8.93932C15.3123 8.81227 15.3646 8.68666 15.4648 8.60824L17.2269 7.23094C17.2443 7.21716 17.2472 7.1852 17.232 7.15689L15.5664 4.27521L13.4282 5.08183C13.3084 5.1305 13.1741 5.11161 13.0717 5.0332C12.6535 4.71155 12.207 4.45235 11.7437 4.26285C11.6247 4.21419 11.5405 4.10603 11.5216 3.97823L11.205 1.76524L7.81585 1.72604L7.44846 3.97823C7.43028 4.10531 7.34608 4.21347 7.227 4.26285C6.7812 4.4451 6.34557 4.69777 5.89616 5.03538C5.79378 5.11161 5.66092 5.12975 5.54258 5.08183L3.46392 4.24689L1.73448 7.16414L3.50524 8.60821C3.60543 8.68662 3.65771 8.81224 3.64175 8.93929C3.60397 9.24423 3.58583 9.48964 3.58583 9.71253C3.58583 9.93541 3.60326 10.1815 3.64175 10.4858C3.65771 10.6121 3.60543 10.7384 3.50524 10.8168L1.74312 12.1941C1.7257 12.2079 1.72281 12.2406 1.73805 12.2689L3.40362 15.1506L5.54183 14.344C5.58611 14.3258 5.63185 14.3178 5.67759 14.3178C5.75601 14.3178 5.83442 14.3433 5.89905 14.3933C6.31654 14.7143 6.76306 14.9735 7.227 15.1637C7.34608 15.2124 7.43028 15.3205 7.44917 15.4483L7.76646 17.6606L11.1549 17.6991L11.5216 15.4476C11.5397 15.3198 11.6247 15.2116 11.7437 15.163C12.1896 14.9807 12.6244 14.7274 13.0746 14.3905C13.1762 14.315 13.3098 14.2968 13.4275 14.344L15.5061 15.1789ZM5.85402 9.71275C5.85402 7.71104 7.48255 6.0825 9.48426 6.0825C11.486 6.0825 13.1145 7.71104 13.1145 9.71275C13.1145 11.7145 11.486 13.343 9.48426 13.343C7.48255 13.343 5.85402 11.7145 5.85402 9.71275ZM6.58009 9.71275C6.58009 11.3144 7.88262 12.6169 9.48426 12.6169C11.0859 12.6169 12.3884 11.3144 12.3884 9.71275C12.3884 8.1111 11.0859 6.80857 9.48426 6.80857C7.88262 6.80857 6.58009 8.1111 6.58009 9.71275Z" fill="#D37E3E"/>
<path d="M17.6748 11.6228L17.737 11.5445L17.7364 11.544L17.6748 11.6228ZM16.0732 10.3704L15.9738 10.3595L15.9677 10.4148L16.0116 10.4491L16.0732 10.3704ZM17.8701 12.6175L17.9567 12.6675L17.9579 12.6653L17.8701 12.6175ZM16.1958 15.5137L16.1092 15.4636L16.1081 15.4657L16.1958 15.5137ZM15.2396 15.8542L15.2024 15.947L15.2034 15.9474L15.2396 15.8542ZM13.3446 15.0933L13.3819 15.0005L13.3311 14.9801L13.2865 15.0119L13.3446 15.0933ZM12.212 15.7525L12.1708 15.6614L12.1208 15.684L12.113 15.7384L12.212 15.7525ZM11.9238 17.7637L11.8248 17.7495L11.8245 17.7514L11.9238 17.7637ZM7.0455 17.7564L7.14476 17.7441L7.14449 17.7422L7.0455 17.7564ZM6.75799 15.7525L6.85697 15.7383L6.84917 15.684L6.7991 15.6614L6.75799 15.7525ZM5.62317 15.094L5.68165 15.0129L5.637 14.9807L5.58592 15.0012L5.62317 15.094ZM3.73326 15.8527L3.76735 15.9468L3.77052 15.9455L3.73326 15.8527ZM2.76981 15.5064L2.8576 15.4585L2.85639 15.4564L2.76981 15.5064ZM1.10425 12.6247L1.01641 12.6726L1.01767 12.6748L1.10425 12.6247ZM1.29307 11.6243L1.23146 11.5455L1.23098 11.5459L1.29307 11.6243ZM2.89618 10.3704L2.95779 10.4492L3.00104 10.4153L2.9957 10.3607L2.89618 10.3704ZM2.89761 9.0548L2.99707 9.0651L3.00277 9.01007L2.95918 8.976L2.89761 9.0548ZM1.29596 7.80308L1.23395 7.88153L1.23438 7.88187L1.29596 7.80308ZM1.10718 6.79824L1.19324 6.84917L1.19376 6.84828L1.10718 6.79824ZM2.77492 3.91221L2.86152 3.96226L2.86269 3.96012L2.77492 3.91221ZM3.73112 3.5717L3.76838 3.4789L3.76752 3.47856L3.73112 3.5717ZM5.6261 4.33259L5.58884 4.42539L5.63965 4.44579L5.68421 4.41397L5.6261 4.33259ZM6.75873 3.67333L6.79994 3.76444L6.84994 3.74183L6.85772 3.68751L6.75873 3.67333ZM7.04696 1.66144L7.14597 1.67562L7.1462 1.67377L7.04696 1.66144ZM11.9252 1.66872L11.826 1.68101L11.8263 1.68292L11.9252 1.66872ZM12.2128 3.67333L12.1138 3.68752L12.1216 3.742L12.1718 3.76455L12.2128 3.67333ZM13.3469 4.33184L13.2883 4.41288L13.333 4.44518L13.3841 4.42464L13.3469 4.33184ZM15.2368 3.57313L15.2022 3.47926L15.1995 3.48033L15.2368 3.57313ZM16.2002 3.91946L16.1126 3.96761L16.1136 3.9695L16.2002 3.91946ZM17.8658 6.80114L17.9535 6.75313L17.9524 6.75109L17.8658 6.80114ZM17.6763 7.80162L17.7379 7.8804L17.7383 7.88008L17.6763 7.80162ZM16.0732 9.05476L16.0116 8.97598L15.9679 9.01011L15.9737 9.06522L16.0732 9.05476ZM17.2356 12.2617L17.3216 12.3127L17.3223 12.3114L17.2356 12.2617ZM15.5061 15.1789L15.4688 15.2717L15.5484 15.3037L15.5921 15.2299L15.5061 15.1789ZM17.2247 12.1935L17.2877 12.1157L17.2863 12.1147L17.2247 12.1935ZM15.4648 10.8169L15.4032 10.8956L15.4032 10.8956L15.4648 10.8169ZM15.3283 10.4858L15.4275 10.4983L15.4275 10.4982L15.3283 10.4858ZM15.3283 8.93932L15.4275 8.92691L15.4275 8.92686L15.3283 8.93932ZM15.4648 8.60824L15.4032 8.52946L15.4032 8.52949L15.4648 8.60824ZM17.2269 7.23094L17.2885 7.30973L17.289 7.30937L17.2269 7.23094ZM17.232 7.15689L17.3201 7.10946L17.3186 7.10685L17.232 7.15689ZM15.5664 4.27521L15.653 4.22517L15.6105 4.15169L15.5311 4.18164L15.5664 4.27521ZM13.4282 5.08183L13.3929 4.98824L13.3906 4.98919L13.4282 5.08183ZM13.0717 5.0332L13.0107 5.11247L13.0109 5.11259L13.0717 5.0332ZM11.7437 4.26285L11.7816 4.1703L11.7816 4.17029L11.7437 4.26285ZM11.5216 3.97823L11.4226 3.99239L11.4227 3.99285L11.5216 3.97823ZM11.205 1.76524L11.304 1.75108L11.2919 1.66624L11.2062 1.66525L11.205 1.76524ZM7.81585 1.72604L7.817 1.62604L7.731 1.62505L7.71715 1.70994L7.81585 1.72604ZM7.44846 3.97823L7.34974 3.96213L7.34946 3.96408L7.44846 3.97823ZM7.227 4.26285L7.26484 4.35542L7.26531 4.35523L7.227 4.26285ZM5.89616 5.03538L5.95588 5.11558L5.95622 5.11533L5.89616 5.03538ZM5.54258 5.08183L5.58012 4.98915L5.57986 4.98904L5.54258 5.08183ZM3.46392 4.24689L3.5012 4.1541L3.42163 4.12214L3.3779 4.1959L3.46392 4.24689ZM1.73448 7.16414L1.64846 7.11314L1.60455 7.18721L1.67128 7.24163L1.73448 7.16414ZM3.50524 8.60821L3.44203 8.68572L3.44361 8.68696L3.50524 8.60821ZM3.64175 8.93929L3.54253 8.92682L3.54251 8.92699L3.64175 8.93929ZM3.64175 10.4858L3.74096 10.4732L3.74096 10.4732L3.64175 10.4858ZM3.50524 10.8168L3.56682 10.8956L3.56687 10.8956L3.50524 10.8168ZM1.74312 12.1941L1.68154 12.1154L1.68109 12.1157L1.74312 12.1941ZM1.73805 12.2689L1.64997 12.3163L1.65147 12.319L1.73805 12.2689ZM3.40362 15.1506L3.31704 15.2006L3.35951 15.2741L3.43891 15.2442L3.40362 15.1506ZM5.54183 14.344L5.57714 14.4376L5.57974 14.4365L5.54183 14.344ZM5.89905 14.3933L5.83779 14.4724L5.8381 14.4726L5.89905 14.3933ZM7.227 15.1637L7.18906 15.2562L7.18917 15.2563L7.227 15.1637ZM7.44917 15.4483L7.54816 15.4341L7.5481 15.4337L7.44917 15.4483ZM7.76646 17.6606L7.66748 17.6748L7.67964 17.7596L7.76533 17.7606L7.76646 17.6606ZM11.1549 17.6991L11.1538 17.7991L11.2398 17.8001L11.2536 17.7152L11.1549 17.6991ZM11.5216 15.4476L11.6203 15.4637L11.6206 15.4617L11.5216 15.4476ZM11.7437 15.163L11.7816 15.2556L11.7816 15.2555L11.7437 15.163ZM13.0746 14.3905L13.015 14.3102L13.0147 14.3104L13.0746 14.3905ZM13.4275 14.344L13.4647 14.2512L13.4647 14.2512L13.4275 14.344ZM17.7364 11.544L16.1348 10.2916L16.0116 10.4491L17.6132 11.7016L17.7364 11.544ZM17.9579 12.6653C18.1658 12.2839 18.0752 11.8129 17.737 11.5445L17.6127 11.7011C17.8727 11.9075 17.9448 12.2715 17.7823 12.5696L17.9579 12.6653ZM16.2824 15.5637L17.9567 12.6675L17.7835 12.5674L16.1093 15.4636L16.2824 15.5637ZM15.2034 15.9474C15.6098 16.1052 16.0774 15.9394 16.2836 15.5616L16.1081 15.4657C15.9513 15.7529 15.5911 15.8834 15.2758 15.7609L15.2034 15.9474ZM13.3074 15.1861L15.2024 15.947L15.2769 15.7614L13.3819 15.0005L13.3074 15.1861ZM12.2532 15.8437C12.6402 15.6687 13.0197 15.4482 13.4028 15.1747L13.2865 15.0119C12.9131 15.2786 12.5448 15.4923 12.1708 15.6614L12.2532 15.8437ZM12.0228 17.7779L12.311 15.7667L12.113 15.7384L11.8248 17.7495L12.0228 17.7779ZM11.1549 18.5251C11.5946 18.5251 11.9701 18.2021 12.023 17.776L11.8245 17.7514C11.7846 18.0731 11.4979 18.3251 11.1549 18.3251V18.5251ZM7.8151 18.5251H11.1549V18.3251H7.8151V18.5251ZM6.94626 17.7687C6.99985 18.2015 7.37483 18.5251 7.8151 18.5251V18.3251C7.47273 18.3251 7.18556 18.0737 7.14474 17.7441L6.94626 17.7687ZM6.659 15.7667L6.94651 17.7706L7.14449 17.7422L6.85697 15.7383L6.659 15.7667ZM5.56469 15.1751C5.93153 15.4396 6.31779 15.6637 6.71687 15.8437L6.7991 15.6614C6.41262 15.4871 6.03796 15.2698 5.68165 15.0129L5.56469 15.1751ZM3.77052 15.9455L5.66043 15.1868L5.58592 15.0012L3.69601 15.7599L3.77052 15.9455ZM2.68204 15.5543C2.88764 15.9309 3.34857 16.0985 3.76733 15.9468L3.69919 15.7587C3.36868 15.8785 3.01355 15.7441 2.85758 15.4585L2.68204 15.5543ZM1.01767 12.6748L2.68323 15.5565L2.85639 15.4564L1.19083 12.5747L1.01767 12.6748ZM1.23098 11.5459C0.894125 11.8127 0.804727 12.284 1.01644 12.6726L1.19206 12.5769C1.02477 12.2699 1.09805 11.9063 1.35515 11.7027L1.23098 11.5459ZM2.83457 10.2916L1.23146 11.5455L1.35467 11.7031L2.95779 10.4492L2.83457 10.2916ZM2.75986 9.71259C2.75986 9.9164 2.77248 10.1325 2.79665 10.3801L2.9957 10.3607C2.97196 10.1175 2.95986 9.90814 2.95986 9.71259H2.75986ZM2.79814 9.04449C2.77245 9.29251 2.75986 9.50874 2.75986 9.71259H2.95986C2.95986 9.5171 2.97192 9.30791 2.99707 9.0651L2.79814 9.04449ZM1.23438 7.88187L2.83603 9.13359L2.95918 8.976L1.35754 7.72429L1.23438 7.88187ZM1.02111 6.74732C0.798739 7.12317 0.88997 7.60965 1.23395 7.88153L1.35797 7.72463C1.09207 7.51446 1.02212 7.1384 1.19324 6.84916L1.02111 6.74732ZM2.68833 3.86217L1.02059 6.74821L1.19376 6.84828L2.8615 3.96224L2.68833 3.86217ZM3.76752 3.47856C3.35926 3.31902 2.89322 3.48677 2.68714 3.8643L2.86269 3.96012C3.01962 3.67263 3.37841 3.54123 3.69472 3.66484L3.76752 3.47856ZM5.66336 4.23979L3.76838 3.4789L3.69386 3.6645L5.58884 4.42539L5.66336 4.23979ZM6.71753 3.58221C6.3306 3.75721 5.95108 3.97768 5.56799 4.2512L5.68421 4.41397C6.05769 4.14731 6.42595 3.93359 6.79994 3.76444L6.71753 3.58221ZM6.94797 1.64726L6.65974 3.65915L6.85772 3.68751L7.14595 1.67562L6.94797 1.64726ZM7.81585 0.9C7.37614 0.9 7.00066 1.22305 6.94773 1.64911L7.1462 1.67377C7.18618 1.35198 7.47285 1.1 7.81585 1.1V0.9ZM11.1557 0.9H7.81585V1.1H11.1557V0.9ZM12.0245 1.65644C11.9709 1.22363 11.596 0.9 11.1557 0.9V1.1C11.498 1.1 11.7852 1.35139 11.826 1.681L12.0245 1.65644ZM12.3117 3.65913L12.0242 1.65453L11.8263 1.68292L12.1138 3.68752L12.3117 3.65913ZM13.4054 4.2508C13.0386 3.98561 12.653 3.76144 12.2537 3.58211L12.1718 3.76455C12.5581 3.93808 12.932 4.15532 13.2883 4.41288L13.4054 4.2508ZM15.1995 3.48033L13.3096 4.23904L13.3841 4.42464L15.274 3.66593L15.1995 3.48033ZM16.2879 3.87131C16.081 3.49468 15.6195 3.32555 15.2022 3.4793L15.2713 3.66697C15.599 3.54627 15.955 3.68065 16.1126 3.9676L16.2879 3.87131ZM17.9524 6.75109L16.2868 3.86942L16.1136 3.9695L17.7792 6.85118L17.9524 6.75109ZM17.7383 7.88008C18.0758 7.61336 18.1662 7.1419 17.9535 6.75315L17.7781 6.84912C17.9458 7.15588 17.8721 7.5194 17.6143 7.72316L17.7383 7.88008ZM16.1348 9.13355L17.7379 7.8804L17.6147 7.72283L16.0116 8.97598L16.1348 9.13355ZM16.2109 9.71256C16.2109 9.46898 16.1932 9.23947 16.1726 9.0443L15.9737 9.06522C15.9938 9.25634 16.0109 9.47838 16.0109 9.71256H16.2109ZM16.1726 10.3812C16.1939 10.1855 16.2109 9.95596 16.2109 9.71256H16.0109C16.0109 9.94692 15.9945 10.169 15.9738 10.3595L16.1726 10.3812ZM17.1495 12.2107L15.4201 15.1279L15.5921 15.2299L17.3216 12.3127L17.1495 12.2107ZM17.1618 12.2712C17.1468 12.259 17.1434 12.2453 17.1426 12.2399C17.1418 12.2344 17.1417 12.2244 17.1488 12.212L17.3223 12.3114C17.3411 12.2787 17.3449 12.2421 17.3406 12.2115C17.3362 12.1808 17.3215 12.1432 17.2877 12.1158L17.1618 12.2712ZM15.4032 10.8956L17.1631 12.2722L17.2863 12.1147L15.5264 10.7381L15.4032 10.8956ZM15.2291 10.4733C15.2087 10.6347 15.2754 10.7956 15.4032 10.8956L15.5264 10.7381C15.4538 10.6813 15.416 10.5896 15.4275 10.4983L15.2291 10.4733ZM15.2842 9.71256C15.2842 9.99451 15.2565 10.2539 15.2291 10.4734L15.4275 10.4982C15.4553 10.2763 15.4842 10.0071 15.4842 9.71256H15.2842ZM15.2291 8.95173C15.2565 9.17118 15.2842 9.43132 15.2842 9.71256H15.4842C15.4842 9.41877 15.4553 9.14888 15.4275 8.92691L15.2291 8.95173ZM15.4032 8.52949C15.2754 8.62948 15.2087 8.78967 15.2291 8.95179L15.4275 8.92686C15.4159 8.83487 15.4538 8.74383 15.5264 8.68699L15.4032 8.52949ZM17.1653 7.15216L15.4032 8.52946L15.5264 8.68703L17.2885 7.30973L17.1653 7.15216ZM17.1439 7.20429C17.1431 7.20282 17.1414 7.19895 17.142 7.19187C17.1424 7.18583 17.1457 7.16767 17.1649 7.15252L17.289 7.30937C17.3255 7.28044 17.339 7.2394 17.3414 7.20686C17.3439 7.17328 17.3361 7.13927 17.32 7.10948L17.1439 7.20429ZM15.4798 4.32525L17.1454 7.20693L17.3186 7.10685L15.653 4.22517L15.4798 4.32525ZM13.4635 5.1754L15.6017 4.36877L15.5311 4.18164L13.3929 4.98827L13.4635 5.1754ZM13.0109 5.11259C13.1411 5.2123 13.3128 5.23666 13.4658 5.17448L13.3906 4.98919C13.304 5.02435 13.2071 5.01093 13.1325 4.95381L13.0109 5.11259ZM11.7059 4.35541C12.1604 4.54134 12.5992 4.79594 13.0107 5.11247L13.1327 4.95393C12.7078 4.62716 12.2536 4.36337 11.7816 4.1703L11.7059 4.35541ZM11.4227 3.99285C11.4467 4.15524 11.5538 4.29325 11.7059 4.35542L11.7816 4.17029C11.6955 4.13512 11.6343 4.05681 11.6205 3.96361L11.4227 3.99285ZM11.106 1.7794L11.4226 3.99239L11.6206 3.96407L11.304 1.75108L11.106 1.7794ZM7.81469 1.82603L11.2039 1.86524L11.2062 1.66525L7.817 1.62604L7.81469 1.82603ZM7.54715 3.99433L7.91454 1.74214L7.71715 1.70994L7.34976 3.96213L7.54715 3.99433ZM7.26531 4.35523C7.41681 4.2924 7.52424 4.15465 7.54745 3.99239L7.34946 3.96408C7.33632 4.05598 7.27536 4.13454 7.18869 4.17048L7.26531 4.35523ZM5.95622 5.11533C6.39987 4.78205 6.82811 4.53396 7.26484 4.35542L7.18916 4.17029C6.73428 4.35625 6.29126 4.61349 5.83609 4.95543L5.95622 5.11533ZM5.50505 5.17452C5.65637 5.2358 5.82603 5.21228 5.95588 5.11558L5.83643 4.95517C5.76154 5.01095 5.66546 5.02371 5.58012 4.98915L5.50505 5.17452ZM3.42665 4.33969L5.50531 5.17463L5.57986 4.98904L3.5012 4.1541L3.42665 4.33969ZM1.8205 7.21513L3.54994 4.29789L3.3779 4.1959L1.64846 7.11314L1.8205 7.21513ZM3.56844 8.53071L1.79768 7.08664L1.67128 7.24163L3.44204 8.68571L3.56844 8.53071ZM3.74097 8.95175C3.76133 8.78964 3.69463 8.62945 3.56687 8.52946L3.44361 8.68696C3.51624 8.7438 3.55408 8.83484 3.54253 8.92682L3.74097 8.95175ZM3.68583 9.71253C3.68583 9.49508 3.70352 9.25402 3.74099 8.95158L3.54251 8.92699C3.50442 9.23443 3.48583 9.4842 3.48583 9.71253H3.68583ZM3.74096 10.4732C3.70283 10.1719 3.68583 9.93011 3.68583 9.71253H3.48583C3.48583 9.94071 3.50368 10.1912 3.54254 10.4983L3.74096 10.4732ZM3.56687 10.8956C3.69468 10.7956 3.76135 10.6346 3.74096 10.4732L3.54254 10.4983C3.55407 10.5896 3.51619 10.6813 3.44361 10.7381L3.56687 10.8956ZM1.80471 12.2729L3.56682 10.8956L3.44366 10.7381L1.68154 12.1154L1.80471 12.2729ZM1.8261 12.2215C1.82705 12.2233 1.82855 12.2269 1.82806 12.2335C1.82768 12.2387 1.82476 12.2571 1.80516 12.2726L1.68109 12.1157C1.64406 12.145 1.63099 12.1866 1.62861 12.2187C1.62613 12.2521 1.63381 12.2863 1.65001 12.3163L1.8261 12.2215ZM3.49019 15.1006L1.82463 12.2189L1.65147 12.319L3.31704 15.2006L3.49019 15.1006ZM5.50654 14.2504L3.36832 15.057L3.43891 15.2442L5.57713 14.4375L5.50654 14.2504ZM5.67759 14.2178C5.62003 14.2178 5.56128 14.2279 5.50392 14.2514L5.57974 14.4365C5.61094 14.4237 5.64367 14.4178 5.67759 14.4178V14.2178ZM5.96031 14.3143C5.8776 14.2502 5.77748 14.2178 5.67759 14.2178V14.4178C5.73453 14.4178 5.79124 14.4363 5.83779 14.4724L5.96031 14.3143ZM7.26493 15.0712C6.80965 14.8845 6.37081 14.6299 5.96 14.3141L5.8381 14.4726C6.26226 14.7987 6.71647 15.0625 7.18906 15.2562L7.26493 15.0712ZM7.5481 15.4337C7.52409 15.2713 7.41695 15.1333 7.26483 15.0711L7.18917 15.2563C7.27521 15.2914 7.33647 15.3697 7.35024 15.4629L7.5481 15.4337ZM7.86545 17.6464L7.54816 15.4341L7.35018 15.4625L7.66748 17.6748L7.86545 17.6464ZM11.1561 17.5991L7.7676 17.5606L7.76533 17.7606L11.1538 17.7991L11.1561 17.5991ZM11.4229 15.4315L11.0562 17.683L11.2536 17.7152L11.6203 15.4637L11.4229 15.4315ZM11.7059 15.0704C11.5542 15.1324 11.4457 15.2703 11.4226 15.4335L11.6206 15.4617C11.6337 15.3693 11.6952 15.2908 11.7816 15.2556L11.7059 15.0704ZM13.0147 14.3104C12.5701 14.6431 12.1425 14.8919 11.7059 15.0704L11.7816 15.2555C12.2366 15.0695 12.6788 14.8116 13.1345 14.4705L13.0147 14.3104ZM13.4647 14.2512C13.3143 14.1908 13.1441 14.2143 13.015 14.3102L13.1342 14.4707C13.2084 14.4157 13.3054 14.4028 13.3902 14.4368L13.4647 14.2512ZM15.5434 15.0862L13.4647 14.2512L13.3902 14.4368L15.4688 15.2717L15.5434 15.0862ZM9.48426 5.9825C7.42733 5.9825 5.75402 7.65581 5.75402 9.71275H5.95402C5.95402 7.76626 7.53778 6.1825 9.48426 6.1825V5.9825ZM13.2145 9.71275C13.2145 7.65581 11.5412 5.9825 9.48426 5.9825V6.1825C11.4307 6.1825 13.0145 7.76626 13.0145 9.71275H13.2145ZM9.48426 13.443C11.5412 13.443 13.2145 11.7697 13.2145 9.71275H13.0145C13.0145 11.6592 11.4307 13.243 9.48426 13.243V13.443ZM5.75402 9.71275C5.75402 11.7697 7.42733 13.443 9.48426 13.443V13.243C7.53778 13.243 5.95402 11.6592 5.95402 9.71275H5.75402ZM9.48426 12.5169C7.93785 12.5169 6.68009 11.2592 6.68009 9.71275H6.48009C6.48009 11.3696 7.82739 12.7169 9.48426 12.7169V12.5169ZM12.2884 9.71275C12.2884 11.2592 11.0307 12.5169 9.48426 12.5169V12.7169C11.1411 12.7169 12.4884 11.3696 12.4884 9.71275H12.2884ZM9.48426 6.90857C11.0307 6.90857 12.2884 8.16633 12.2884 9.71275H12.4884C12.4884 8.05587 11.1411 6.70857 9.48426 6.70857V6.90857ZM6.68009 9.71275C6.68009 8.16633 7.93785 6.90857 9.48426 6.90857V6.70857C7.82739 6.70857 6.48009 8.05587 6.48009 9.71275H6.68009Z" fill="#D37E3E" mask="url(#path-1-outside-1_334_6642)"/>
</svg>
