<svg width="20" height="21" viewBox="0 0 20 21" fill="none" xmlns="http://www.w3.org/2000/svg">
<g clip-path="url(#clip0_242_5171)">
<path fill-rule="evenodd" clip-rule="evenodd" d="M19.6338 18.0924C19.501 18.2248 19.3408 18.3941 19.171 18.5731C18.7473 19.0229 18.2179 19.5819 17.8861 19.8086C16.1404 21.0015 13.8049 20.4308 12.1529 19.7424C9.97369 18.8344 7.60107 17.1608 5.47072 15.0301C3.33838 12.8994 1.66486 10.526 0.756853 8.34799C0.0693533 6.69564 -0.502639 4.35971 0.690447 2.61361C0.91701 2.28158 1.47736 1.75303 1.9265 1.32846C2.10619 1.15916 2.27416 0.999199 2.40697 0.866816C2.64276 0.632198 2.96186 0.500488 3.29449 0.500488C3.62712 0.500488 3.94622 0.632198 4.18201 0.866816L7.39404 4.07791C7.62853 4.31369 7.76016 4.6327 7.76016 4.96523C7.76016 5.29777 7.62853 5.61678 7.39404 5.85256L6.51904 6.7258C6.22682 7.01588 6.03608 7.39257 5.97521 7.79979C5.91433 8.20702 5.98658 8.62302 6.18119 8.98588C7.3847 11.2574 9.24269 13.1151 11.5144 14.3182C11.8772 14.5127 12.2931 14.5849 12.7002 14.5239C13.1073 14.4629 13.4838 14.2721 13.7737 13.9798L14.6465 13.1065C14.8823 12.8719 15.2014 12.7402 15.5341 12.7402C15.8667 12.7402 16.1858 12.8719 16.4216 13.1065L19.6338 16.3181C19.8683 16.5538 19.9999 16.8728 19.9999 17.2053C19.9999 17.5377 19.8683 17.8567 19.6338 18.0924Z" fill="#BEB096"/>
</g>
<defs>
<clipPath id="clip0_242_5171">
<rect width="20" height="20" fill="white" transform="translate(0 0.5)"/>
</clipPath>
</defs>
</svg>
