<svg width="20" height="21" viewBox="0 0 20 21" fill="none" xmlns="http://www.w3.org/2000/svg">
<path d="M18.5701 5.32498C18.3563 6.03822 18.0681 6.65906 17.707 7.22277L17.722 7.19756C17.3673 7.82484 16.9437 8.54957 16.4512 9.37174C16.0289 10.0209 15.8054 10.3569 15.7805 10.3799C15.6713 10.5252 15.5953 10.7033 15.5691 10.899L15.5683 10.9049C15.5897 11.083 15.6673 11.2384 15.7805 11.3544L16.0973 11.7291C17.7917 13.5767 18.7448 14.8503 18.9564 15.5498C18.9842 15.6271 19 15.7162 19 15.8094C19 15.9724 18.9509 16.1228 18.8678 16.2463L18.8694 16.2438C18.73 16.3958 18.5352 16.4899 18.3198 16.4899C18.2961 16.4899 18.2715 16.4891 18.2486 16.4866H18.2518H16.1685C16.1685 16.4866 16.1662 16.4866 16.1646 16.4866C15.8977 16.4866 15.6523 16.3874 15.4599 16.2228L15.4622 16.2244C15.1819 15.98 14.9325 15.7153 14.7092 15.428L14.7021 15.4179C14.3374 14.9805 14.0138 14.6123 13.7314 14.3132C12.7907 13.3645 12.0966 12.8901 11.6489 12.8901C11.6323 12.8884 11.6133 12.8876 11.5935 12.8876C11.4629 12.8876 11.3409 12.9304 11.2404 13.0035L11.2427 13.0018C11.1604 13.111 11.1105 13.2522 11.1105 13.4042C11.1105 13.4345 11.1121 13.463 11.1161 13.4924V13.4891C11.0947 13.7529 11.082 14.0595 11.082 14.3695C11.082 14.4695 11.0836 14.5686 11.086 14.6677V14.6535V15.6271C11.0939 15.6666 11.0986 15.712 11.0986 15.7582C11.0986 15.9615 11.0115 16.143 10.8754 16.2631L10.8746 16.2639C10.5681 16.4126 10.2102 16.5 9.83255 16.5C9.75179 16.5 9.67261 16.4958 9.59422 16.4882L9.60452 16.4891C8.35823 16.4639 7.2022 16.0766 6.21958 15.4238L6.24729 15.4406C5.05088 14.6694 4.05955 13.6655 3.30418 12.4793L3.2828 12.444C2.56543 11.4342 1.89636 10.2933 1.32626 9.09031L1.27084 8.96094C0.93749 8.28717 0.592265 7.45883 0.294549 6.60697L0.247041 6.45155C0.125896 6.06847 0.0380063 5.62321 0.0015836 5.162L0 5.141C0 4.71647 0.235428 4.5042 0.706284 4.5042H2.78871C2.80772 4.50252 2.82989 4.50168 2.85285 4.50168C3.04922 4.50168 3.23054 4.57309 3.37385 4.69322L3.37227 4.69154C3.53063 4.87553 3.64782 5.10151 3.70562 5.35354L3.70799 5.36362C4.09122 6.51204 4.49742 7.47648 4.96458 8.40059L4.91153 8.28549C5.29317 9.10039 5.7152 9.80188 6.19662 10.4496L6.1784 10.4236C6.6007 10.9735 6.93008 11.2485 7.16657 11.2485C7.17369 11.2494 7.18241 11.2494 7.19191 11.2494C7.30909 11.2494 7.41123 11.1822 7.46666 11.0813L7.46745 11.0797C7.52605 10.92 7.56009 10.7344 7.56009 10.5412C7.56009 10.5 7.55851 10.4588 7.55534 10.4185V10.4236V7.1648C7.53871 6.78087 7.45003 6.42215 7.30197 6.10039L7.3083 6.11635C7.21012 5.89457 7.09214 5.70302 6.95199 5.53248L6.95437 5.53584C6.82451 5.39807 6.73583 5.21745 6.70812 5.01582L6.70733 5.01078C6.70733 4.86796 6.76909 4.73943 6.86569 4.65542L6.86648 4.65458C6.96229 4.56133 7.09056 4.50504 7.2307 4.50504H7.23704H10.5198C10.5373 4.50252 10.5571 4.50168 10.5776 4.50168C10.732 4.50168 10.8706 4.57561 10.9625 4.69154L10.9632 4.69238C11.0448 4.85032 11.0931 5.03934 11.0931 5.23929C11.0931 5.27121 11.0915 5.3023 11.0891 5.33338V5.32918V9.67502C11.0876 9.69518 11.0868 9.71871 11.0868 9.74223C11.0868 9.89681 11.1271 10.0421 11.1968 10.1656L11.1952 10.1623C11.253 10.253 11.3496 10.3118 11.4589 10.3118C11.5983 10.3017 11.7257 10.253 11.8326 10.1757L11.8303 10.1774C12.0456 10.0203 12.2309 9.84136 12.3916 9.6389L12.3948 9.6347C12.8754 9.05839 13.3188 8.42159 13.7052 7.74447L13.7361 7.68566C14.0085 7.2068 14.3031 6.61705 14.5699 6.01134L14.619 5.88785L14.9721 5.13848C15.0948 4.76379 15.4242 4.5 15.8114 4.5C15.8265 4.5 15.8415 4.5 15.8566 4.50084H15.8542H17.9374C18.5001 4.50084 18.7113 4.77555 18.5708 5.32498H18.5701Z" fill="#BEB096"/>
</svg>
