<svg width="20" height="21" viewBox="0 0 20 21" fill="none" xmlns="http://www.w3.org/2000/svg">
<path d="M9.5 1C4.25125 1 0 5.25125 0 10.5C0 12.59 0.665 14.5138 1.805 16.0813L0.49875 19.525L4.275 18.4325C5.77125 19.43 7.57625 20 9.5 20C14.7487 20 19 15.7487 19 10.5C19 5.25125 14.7487 1 9.5 1ZM14.5588 14.4425L13.5375 15.44C12.4688 16.5088 9.6425 15.345 7.14875 12.8275C4.655 10.3337 3.53875 7.5075 4.53625 6.4625L5.5575 5.44125C5.9375 5.06125 6.57875 5.06125 6.9825 5.44125L8.47875 6.9375C9.00125 7.46 8.7875 8.3625 8.09875 8.57625C7.62375 8.7425 7.29125 9.265 7.4575 9.74C7.71875 10.8562 9.1675 12.2337 10.2362 12.495C10.7112 12.6137 11.2575 12.3287 11.4 11.8537C11.6137 11.165 12.5162 10.9512 13.0387 11.4737L14.535 12.97C14.915 13.3737 14.915 14.015 14.5588 14.4425Z" fill="#BEB096"/>
</svg>
