<svg width="13" height="13" viewBox="0 0 13 13" fill="none" xmlns="http://www.w3.org/2000/svg">
<path d="M7.91024 7.49131C8.79781 6.81207 10.3126 6.66287 13 6.5C10.3126 6.33712 8.79781 6.18793 7.91024 5.50869C8.21623 4.97483 8.75029 4.34784 9.51243 3.48614C8.65146 4.2494 8.02426 4.78249 7.4902 5.08905C6.81169 4.20207 6.66155 2.68754 6.5 0C6.33655 2.68754 6.1864 4.20207 5.50789 5.08905C4.97383 4.78249 4.34664 4.2494 3.48568 3.48614C4.24781 4.34784 4.78188 4.97483 5.08787 5.50869C4.2022 6.18793 2.68743 6.33712 0 6.5C2.68743 6.66287 4.2022 6.81207 5.08787 7.49131C4.78188 8.02517 4.24781 8.65216 3.48568 9.51367C4.34664 8.75061 4.97383 8.21751 5.50789 7.91095C6.1864 8.79793 6.33655 10.3125 6.5 13C6.66155 10.3125 6.81169 8.79793 7.4902 7.91095C8.02426 8.21751 8.65146 8.75061 9.51243 9.51367C8.75029 8.65216 8.21623 8.02517 7.91024 7.49131Z" fill="url(#paint0_linear_195_2501)"/>
<defs>
<linearGradient id="paint0_linear_195_2501" x1="0" y1="6.5" x2="13.0005" y2="6.5" gradientUnits="userSpaceOnUse">
<stop stop-color="#DB7D3E"/>
<stop offset="0.518157" stop-color="#AC5122"/>
<stop offset="1" stop-color="#8E482E"/>
</linearGradient>
</defs>
</svg>
