<svg width="33" height="29" viewBox="0 0 33 29" fill="none" xmlns="http://www.w3.org/2000/svg">
<path d="M18.4061 2.64935C19.849 1.55965 21.5028 1 23.2969 1C28.294 1 32 5.01023 32 10.159C32 12.9868 30.8233 15.3239 28.9149 17.5726C27.044 19.7771 24.3924 21.9837 21.3146 24.5448L21.2542 24.5951C21.2542 24.5951 21.2542 24.5951 21.2542 24.5951C20.1911 25.4798 18.992 26.4777 17.7463 27.5415L18.4061 2.64935ZM18.4061 2.64935C17.6204 3.2427 16.9913 3.92399 16.5 4.57132M18.4061 2.64935L16.5 4.57132M16.5 4.57132C16.0087 3.92398 15.3796 3.2427 14.5939 2.64934C13.151 1.55965 11.4972 1 9.70312 1C4.706 1 1 5.01023 1 10.159C1 12.9868 2.17671 15.3239 4.08516 17.5727C5.95615 19.7772 8.608 21.984 11.6861 24.5454L11.7465 24.5956C11.7465 24.5956 11.7465 24.5956 11.7465 24.5957C12.8089 25.4798 14.008 26.4777 15.2536 27.5413L16.5 4.57132ZM15.2541 27.5418C15.6026 27.8396 16.0455 28 16.5 28C16.9546 28 17.3975 27.8395 17.7459 27.5418L15.2541 27.5418Z" stroke="#BEB096" stroke-width="2"/>
</svg>
