<svg width="208" height="87" viewBox="0 0 208 87" fill="none" xmlns="http://www.w3.org/2000/svg">
<path d="M40.554 83.3852H36.6052V82.4462H40.554V83.3852ZM40.755 86.7646H35.623V79.2148H40.755V80.1545H36.7109V85.8249H40.755V86.7646Z" fill="#DBD0B3"/>
<path d="M45.2228 86.7646H44.1562V79.2148H45.3285L49.6887 85.6665H49.3513V79.2148H50.4179V86.7646H49.2456L44.8744 80.313H45.2228V86.7646Z" fill="#DBD0B3"/>
<path d="M59.1051 83.3852H55.1563V82.4462H59.1051V83.3852ZM59.3054 86.7646H54.1748V79.2148H59.3054V80.1545H55.2619V85.8249H59.3054V86.7646Z" fill="#DBD0B3"/>
<path d="M69.0526 86.7646H67.6911L64.8933 83.2487H66.1498L69.0526 86.7646ZM63.8164 86.7646H62.7285V79.2148H65.7164C66.2301 79.2148 66.6808 79.3068 67.0683 79.4892C67.4552 79.6724 67.7576 79.9296 67.9757 80.2602C68.1945 80.5915 68.3036 80.9749 68.3036 81.4111C68.3036 81.8542 68.1945 82.2418 67.9757 82.5724C67.7576 82.9037 67.4552 83.1602 67.0683 83.3433C66.6808 83.5265 66.2301 83.6177 65.7164 83.6177H63.7101V82.678H65.7164C66.1739 82.678 66.5333 82.5655 66.7939 82.3398C67.0539 82.1148 67.1842 81.8055 67.1842 81.4111C67.1842 81.0242 67.0539 80.7177 66.7939 80.4927C66.5333 80.267 66.1739 80.1545 65.7164 80.1545H63.8164V86.7646Z" fill="#DBD0B3"/>
<path d="M78.7473 86.7644H77.7232V85.6868L77.8494 85.7293C77.5963 86.1093 77.2492 86.4049 76.8096 86.6162C76.3699 86.8275 75.8787 86.9331 75.3369 86.9331C74.7806 86.9331 74.2648 86.8364 73.7902 86.6423C73.3148 86.4488 72.9012 86.1745 72.5494 85.8192C72.1975 85.4639 71.9245 85.0448 71.7311 84.5626C71.5377 84.0804 71.4409 83.5543 71.4409 82.9843C71.4409 82.4212 71.539 81.8999 71.7366 81.4218C71.9334 80.943 72.2098 80.5253 72.5651 80.17C72.9204 79.8147 73.3395 79.5383 73.8217 79.3414C74.3039 79.1446 74.8266 79.0458 75.3897 79.0458C76.0509 79.0458 76.6477 79.1741 77.1793 79.4313C77.7108 79.6885 78.145 80.0349 78.4831 80.4712L77.7335 81.2099C77.4804 80.8443 77.1566 80.5555 76.7622 80.3443C76.3678 80.1337 75.9103 80.0274 75.3897 80.0274C74.8547 80.0274 74.3718 80.1563 73.9431 80.4128C73.5131 80.6701 73.179 81.0205 72.9403 81.4636C72.7003 81.9074 72.5809 82.4137 72.5809 82.9843C72.5809 83.5543 72.7023 84.0646 72.9451 84.5153C73.1879 84.9659 73.524 85.3192 73.9534 85.5764C74.3828 85.8336 74.8752 85.9618 75.4315 85.9618C75.9809 85.9618 76.468 85.8418 76.8939 85.6024C77.3199 85.3638 77.6244 85.0393 77.8076 84.6312L77.7129 85.0325V83.6599H75.3369V82.7408H78.7473V86.7644Z" fill="#DBD0B3"/>
<path d="M85.262 86.7646H84.1646V83.5649L81.3242 79.2148H82.6014L84.8607 82.8262H84.5871L86.8458 79.2148H88.1031L85.262 83.5758V86.7646Z" fill="#DBD0B3"/>
<path d="M99.0906 85.9509C99.6462 85.9509 100.136 85.8247 100.558 85.5709C100.98 85.3178 101.313 84.9673 101.556 84.5208C101.799 84.0736 101.92 83.5612 101.92 82.9843C101.92 82.4068 101.799 81.8965 101.556 81.4527C101.313 81.0096 100.98 80.6612 100.558 80.4081C100.136 80.1543 99.6462 80.0274 99.0906 80.0274C98.5419 80.0274 98.0521 80.1543 97.6228 80.4081C97.1934 80.6612 96.8593 81.0096 96.62 81.4527C96.3806 81.8965 96.2605 82.4068 96.2605 82.9843C96.2605 83.5612 96.3806 84.0736 96.62 84.5208C96.8593 84.9673 97.1934 85.3178 97.6228 85.5709C98.0521 85.8247 98.5419 85.9509 99.0906 85.9509ZM99.0906 86.9331C98.5131 86.9331 97.9836 86.8343 97.5014 86.6375C97.0192 86.4399 96.5987 86.1642 96.24 85.8089C95.8805 85.4536 95.6041 85.0345 95.4107 84.5523C95.2173 84.0701 95.1206 83.5475 95.1206 82.9843C95.1206 82.4212 95.2173 81.8999 95.4107 81.4218C95.6041 80.943 95.8805 80.5253 96.24 80.17C96.5987 79.8147 97.0192 79.5383 97.5014 79.3414C97.9836 79.1446 98.5131 79.0458 99.0906 79.0458C99.6606 79.0458 100.187 79.1446 100.669 79.3414C101.151 79.5383 101.572 79.8147 101.931 80.17C102.29 80.5253 102.567 80.943 102.765 81.4218C102.962 81.8999 103.061 82.4212 103.061 82.9843C103.061 83.5475 102.962 84.0701 102.765 84.5523C102.567 85.0345 102.29 85.4536 101.931 85.8089C101.572 86.1642 101.151 86.4399 100.669 86.6375C100.187 86.8343 99.6606 86.9331 99.0906 86.9331Z" fill="#DBD0B3"/>
<path d="M111.286 83.3852H107.549V82.4462H111.286V83.3852ZM107.654 86.7646H106.566V79.2148H111.487V80.1545H107.654V86.7646Z" fill="#DBD0B3"/>
<path d="M118.552 85.5284L119.312 84.7896C119.515 85.029 119.75 85.2382 120.013 85.4179C120.277 85.597 120.565 85.7328 120.874 85.8247C121.184 85.9159 121.511 85.9618 121.856 85.9618C122.236 85.9618 122.569 85.909 122.854 85.8034C123.139 85.6978 123.363 85.5462 123.525 85.3494C123.686 85.1525 123.767 84.9234 123.767 84.6627C123.767 84.3184 123.616 84.0454 123.313 83.8445C123.011 83.6442 122.483 83.4871 121.73 83.3746C121.046 83.2765 120.496 83.1359 120.077 82.9528C119.658 82.7696 119.352 82.5426 119.159 82.2717C118.965 82.0007 118.868 81.6749 118.868 81.2949C118.868 80.8511 118.993 80.4609 119.243 80.1227C119.493 79.7846 119.834 79.5212 120.267 79.3312C120.7 79.1405 121.198 79.0458 121.761 79.0458C122.415 79.0458 122.993 79.1707 123.493 79.421C123.992 79.6707 124.429 80.0102 124.802 80.4396L124.042 81.179C123.76 80.8196 123.437 80.5349 123.071 80.3237C122.704 80.1117 122.271 80.0068 121.772 80.0068C121.251 80.0068 120.825 80.1193 120.494 80.3443C120.164 80.5699 119.998 80.8724 119.998 81.2524C119.998 81.45 120.059 81.6166 120.183 81.7538C120.306 81.8917 120.51 82.0076 120.795 82.1022C121.08 82.1976 121.459 82.2833 121.93 82.3608C122.634 82.4671 123.202 82.6167 123.636 82.8101C124.068 83.0035 124.385 83.2498 124.586 83.5488C124.786 83.8486 124.887 84.2052 124.887 84.6209C124.887 85.0853 124.758 85.4899 124.501 85.8349C124.244 86.18 123.887 86.4488 123.429 86.6423C122.972 86.8364 122.444 86.9331 121.845 86.9331C121.142 86.9331 120.515 86.8083 119.966 86.5579C119.417 86.3082 118.945 85.9653 118.552 85.5284Z" fill="#DBD0B3"/>
<path d="M131.453 86.7646H130.366V80.0599H131.453V86.7646ZM133.9 80.1655H127.916V79.2148H133.9V80.1655Z" fill="#DBD0B3"/>
<path d="M140.477 85.9509C141.039 85.9509 141.526 85.8247 141.945 85.5709C142.37 85.3178 142.699 84.9673 142.946 84.5208C143.186 84.0736 143.31 83.5612 143.31 82.9843C143.31 82.4068 143.186 81.8965 142.946 81.4527C142.699 81.0096 142.37 80.6612 141.945 80.4081C141.526 80.1543 141.039 80.0274 140.477 80.0274C139.928 80.0274 139.441 80.1543 139.016 80.4081C138.584 80.6612 138.248 81.0096 138.008 81.4527C137.767 81.8965 137.651 82.4068 137.651 82.9843C137.651 83.5612 137.767 84.0736 138.008 84.5208C138.248 84.9673 138.584 85.3178 139.016 85.5709C139.441 85.8247 139.928 85.9509 140.477 85.9509ZM140.477 86.9331C139.901 86.9331 139.372 86.8343 138.892 86.6375C138.405 86.4399 137.987 86.1642 137.63 85.8089C137.274 85.4536 136.992 85.0345 136.8 84.5523C136.608 84.0701 136.512 83.5475 136.512 82.9843C136.512 82.4212 136.608 81.8999 136.8 81.4218C136.992 80.943 137.274 80.5253 137.63 80.17C137.987 79.8147 138.405 79.5383 138.892 79.3414C139.372 79.1446 139.901 79.0458 140.477 79.0458C141.053 79.0458 141.574 79.1446 142.061 79.3414C142.541 79.5383 142.96 79.8147 143.323 80.17C143.68 80.5253 143.954 80.943 144.153 81.4218C144.352 81.8999 144.448 82.4212 144.448 82.9843C144.448 83.5475 144.352 84.0701 144.153 84.5523C143.954 85.0345 143.68 85.4536 143.323 85.8089C142.96 86.1642 142.541 86.4399 142.061 86.6375C141.574 86.8343 141.053 86.9331 140.477 86.9331Z" fill="#DBD0B3"/>
<path d="M149.004 86.7646H147.934V79.2148H149.107L153.469 85.6665H153.133V79.2148H154.196V86.7646H153.024L148.654 80.313H149.004V86.7646Z" fill="#DBD0B3"/>
<path d="M162.886 83.3852H158.935V82.4462H162.886V83.3852ZM163.085 86.7646H157.955V79.2148H163.085V80.1545H159.045V85.8249H163.085V86.7646Z" fill="#DBD0B3"/>
<path d="M166.041 85.5284L166.802 84.7896C167.008 85.029 167.241 85.2382 167.502 85.4179C167.769 85.597 168.057 85.7328 168.366 85.8247C168.674 85.9159 169.004 85.9618 169.347 85.9618C169.724 85.9618 170.06 85.909 170.341 85.8034C170.629 85.6978 170.856 85.5462 171.013 85.3494C171.178 85.1525 171.26 84.9234 171.26 84.6627C171.26 84.3184 171.109 84.0454 170.801 83.8445C170.499 83.6442 169.971 83.4871 169.223 83.3746C168.537 83.2765 167.989 83.1359 167.57 82.9528C167.152 82.7696 166.843 82.5426 166.651 82.2717C166.452 82.0007 166.356 81.6749 166.356 81.2949C166.356 80.8511 166.486 80.4609 166.733 80.1227C166.98 79.7846 167.323 79.5212 167.755 79.3312C168.187 79.1405 168.688 79.0458 169.251 79.0458C169.909 79.0458 170.485 79.1707 170.986 79.421C171.48 79.6707 171.919 80.0102 172.289 80.4396L171.535 81.179C171.253 80.8196 170.924 80.5349 170.561 80.3237C170.197 80.1117 169.765 80.0068 169.264 80.0068C168.743 80.0068 168.318 80.1193 167.982 80.3443C167.652 80.5699 167.488 80.8724 167.488 81.2524C167.488 81.45 167.55 81.6166 167.673 81.7538C167.797 81.8917 168.002 82.0076 168.283 82.1022C168.572 82.1976 168.949 82.2833 169.422 82.3608C170.122 82.4671 170.691 82.6167 171.123 82.8101C171.555 83.0035 171.878 83.2498 172.077 83.5488C172.275 83.8486 172.378 84.2052 172.378 84.6209C172.378 85.0853 172.248 85.4899 171.994 85.8349C171.734 86.18 171.377 86.4488 170.917 86.6423C170.465 86.8364 169.936 86.9331 169.333 86.9331C168.633 86.9331 168.009 86.8083 167.454 86.5579C166.905 86.3082 166.438 85.9653 166.041 85.5284Z" fill="#DBD0B3"/>
<path d="M43.1375 66.6514C43.9503 66.4936 44.4792 66.198 44.7227 65.7679C44.9662 65.3365 45.1089 64.7871 45.1486 64.1169V32.9862C45.1089 32.3168 44.9662 31.7667 44.7227 31.3352C44.4792 30.9052 43.9503 30.6109 43.1375 30.4518L42.894 29.8297H72.0308V33.751C71.421 33.465 70.72 33.2016 69.9271 32.9622C69.1342 32.7228 68.1897 32.5157 67.0929 32.3401C65.9962 32.1659 64.6854 32.0369 63.1613 31.9574C61.6372 31.8785 59.8395 31.838 57.7666 31.838H49.7209V47.8581L69.0437 47.1406V49.9632L49.7209 49.531V65.2651H57.7666C59.8395 65.2651 61.6372 65.2253 63.1613 65.1458C64.6854 65.0662 65.9962 64.9393 67.0929 64.763C68.1897 64.5888 69.1342 64.3803 69.9271 64.1409C70.72 63.9015 71.421 63.6388 72.0308 63.3521V67.3208L42.894 67.2742L43.1375 66.6514Z" fill="#DBD0B3"/>
<path d="M163.685 67.2993H154.603L154.85 66.6752C155.659 66.5174 156.187 66.2224 156.434 65.7903C156.674 65.3582 156.819 64.8095 156.86 64.1373V36.8381C156.86 36.1042 156.846 30.099 156.832 29.4542H161.428V64.1373C161.469 64.8095 161.613 65.3582 161.86 65.7903C162.1 66.2224 162.628 66.5174 163.444 66.6752L163.685 67.2993Z" fill="#DBD0B3"/>
<path d="M12.0157 50.6563L7.19989 55.6285V64.1413C7.24036 64.8107 7.38236 65.3608 7.62654 65.7916C7.87073 66.2217 8.39818 66.5173 9.21167 66.6757L9.45589 67.2979H0.373047L0.616531 66.6757C1.42933 66.5173 1.9582 66.2217 2.20169 65.7916C2.44519 65.3608 2.58784 64.8107 2.62831 64.1413V36.8352C2.62831 35.401 2.58786 34.1327 2.50623 33.0339C2.42461 31.9344 2.16051 31.114 1.71399 30.5708L7.19989 29.8533V52.3292L19.8172 39.2263C21.6047 37.4087 22.9264 35.687 23.7797 34.0621C24.633 32.4365 25.1817 31.0331 25.4252 29.8533H32.1911L14.9411 47.6438L33.8372 65.1935C34.4052 65.7031 34.8826 66.0625 35.2694 66.2697C35.6556 66.4775 36.052 66.612 36.4581 66.6757L36.7023 67.2979H29.9357L12.0157 50.6563Z" fill="#DBD0B3"/>
<path d="M91.4462 50.6563L86.6311 55.6285V64.1413C86.6709 64.8107 86.8135 65.3608 87.0577 65.7916C87.3012 66.2217 87.8294 66.5173 88.6429 66.6757L88.887 67.2979H79.8042L80.0477 66.6757C80.8598 66.5173 81.3887 66.2217 81.6328 65.7916C81.8763 65.3608 82.0183 64.8107 82.0588 64.1413V36.8352C82.0588 35.401 82.0184 34.1327 81.9374 33.0339C81.8558 31.9344 81.5917 31.114 81.1445 30.5708L86.6311 29.8533V52.3292L99.2484 39.2263C101.036 37.4087 102.358 35.687 103.211 34.0621C104.064 32.4365 104.612 31.0331 104.856 29.8533H111.622L94.3715 47.6438L113.268 65.1935C113.836 65.7031 114.314 66.0625 114.701 66.2697C115.086 66.4775 115.482 66.612 115.889 66.6757L116.133 67.2979H109.367L91.4462 50.6563Z" fill="#DBD0B3"/>
<path d="M182.941 50.6563L178.126 55.6285V64.1413C178.167 64.8107 178.311 65.3608 178.551 65.7916C178.798 66.2217 179.326 66.5173 180.142 66.6757L180.382 67.2979H171.301L171.541 66.6757C172.357 66.5173 172.885 66.2217 173.132 65.7916C173.372 65.3608 173.516 64.8107 173.557 64.1413V36.8352C173.557 35.401 173.516 34.1327 173.434 33.0339C173.352 31.9344 173.091 31.114 172.638 30.5708L178.126 29.8533V52.3292L190.746 39.2263C192.53 37.4087 193.854 35.687 194.704 34.0621C195.561 32.4365 196.11 31.0331 196.35 29.8533H203.12L185.87 47.6438L204.766 65.1935C205.336 65.7031 205.809 66.0625 206.2 66.2697C206.584 66.4775 206.982 66.612 207.387 66.6757L207.627 67.2979H200.863L182.941 50.6563Z" fill="#DBD0B3"/>
<path d="M121.927 67.2979L122.171 66.6757C122.983 66.5173 123.512 66.2223 123.755 65.7916C123.999 65.3602 124.141 64.8107 124.182 64.1413V36.8352C124.182 35.401 124.141 34.1327 124.06 33.0339C123.978 31.9344 123.715 31.114 123.268 30.5708L128.753 29.8533V65.2895H134.546C136.617 65.2895 138.414 65.249 139.937 65.1702C141.46 65.0899 142.77 64.963 143.874 64.7867C144.965 64.6125 145.911 64.4047 146.707 64.1653C147.496 63.9259 148.196 63.6625 148.806 63.3765V67.2979H121.927Z" fill="#DBD0B3"/>
<mask id="mask0_108_9047" style="mask-type:luminance" maskUnits="userSpaceOnUse" x="135" y="0" width="48" height="47">
<path d="M164.227 27.1038C167.43 24.6523 172.897 24.1139 182.596 23.526C172.897 22.9382 167.43 22.3998 164.227 19.9484C165.332 18.0216 167.259 15.7588 170.009 12.6489C166.902 15.4035 164.639 17.3275 162.711 18.4339C160.263 15.2327 159.721 9.76671 159.138 0.0672569C158.548 9.76671 158.006 15.2327 155.557 18.4339C153.63 17.3275 151.366 15.4035 148.259 12.6489C151.01 15.7588 152.937 18.0216 154.042 19.9484C150.845 22.3998 145.378 22.9382 135.68 23.526C145.378 24.1139 150.845 24.6523 154.042 27.1038C152.937 29.0305 151.01 31.2933 148.259 34.4025C151.366 31.6486 153.63 29.7246 155.557 28.6183C158.006 31.8194 158.548 37.2854 159.138 46.9849C159.721 37.2854 160.263 31.8194 162.711 28.6183C164.639 29.7246 166.902 31.6486 170.009 34.4025C167.259 31.2933 165.332 29.0305 164.227 27.1038Z" fill="white"/>
</mask>
<g mask="url(#mask0_108_9047)">
<path d="M164.227 27.1038C167.43 24.6523 172.897 24.1139 182.596 23.526C172.897 22.9382 167.43 22.3998 164.227 19.9484C165.332 18.0216 167.259 15.7588 170.009 12.6489C166.902 15.4035 164.639 17.3275 162.711 18.4339C160.263 15.2327 159.721 9.76671 159.138 0.0672569C158.548 9.76671 158.006 15.2327 155.557 18.4339C153.63 17.3275 151.366 15.4035 148.259 12.6489C151.01 15.7588 152.937 18.0216 154.042 19.9484C150.845 22.3998 145.378 22.9382 135.68 23.526C145.378 24.1139 150.845 24.6523 154.042 27.1038C152.937 29.0305 151.01 31.2933 148.259 34.4025C151.366 31.6486 153.63 29.7246 155.557 28.6183C158.006 31.8194 158.548 37.2854 159.138 46.9849C159.721 37.2854 160.263 31.8194 162.711 28.6183C164.639 29.7246 166.902 31.6486 170.009 34.4025C167.259 31.2933 165.332 29.0305 164.227 27.1038Z" fill="url(#paint0_linear_108_9047)"/>
</g>
<defs>
<linearGradient id="paint0_linear_108_9047" x1="135.68" y1="23.5261" x2="182.598" y2="23.5261" gradientUnits="userSpaceOnUse">
<stop stop-color="#DB7D3E"/>
<stop offset="0.518157" stop-color="#AC5122"/>
<stop offset="1" stop-color="#8E482E"/>
</linearGradient>
</defs>
</svg>
