<svg width="134" height="176" viewBox="0 0 134 176" fill="none" xmlns="http://www.w3.org/2000/svg">
<path d="M24.1372 175.88H20.7861V170.951H24.1372V171.565H21.4953V175.266H24.1372V175.88ZM24.0073 173.673H21.4304V173.058H24.0073V173.673Z" fill="#38332F"/>
<path d="M27.0536 175.88H26.3594V170.951H27.1235L29.9702 175.166H29.7504V170.951H30.4446V175.88H29.6805L26.8238 171.665H27.0536V175.88Z" fill="#38332F"/>
<path d="M36.2529 175.88H32.9019V170.951H36.2529V171.565H33.611V175.266H36.2529V175.88ZM36.1181 173.673H33.5411V173.058H36.1181V173.673Z" fill="#38332F"/>
<path d="M39.1945 175.88H38.4854V170.951H40.4381C40.7727 170.951 41.0673 171.011 41.322 171.131C41.5767 171.251 41.7715 171.42 41.9163 171.635C42.0612 171.85 42.1311 172.1 42.1311 172.384C42.1311 172.669 42.0612 172.929 41.9163 173.143C41.7715 173.358 41.5767 173.528 41.322 173.648C41.0673 173.768 40.7727 173.828 40.4381 173.828H39.1296V173.213H40.4381C40.7377 173.213 40.9725 173.138 41.1423 172.994C41.3121 172.849 41.3969 172.644 41.3969 172.384C41.3969 172.125 41.3121 171.93 41.1423 171.785C40.9725 171.64 40.7377 171.565 40.4381 171.565H39.1945V175.88ZM42.6155 175.88H41.7266L39.8987 173.583H40.7177L42.6155 175.88Z" fill="#38332F"/>
<path d="M48.9481 175.88H48.2789V175.176L48.3638 175.206C48.199 175.456 47.9743 175.646 47.6846 175.786C47.395 175.925 47.0753 175.99 46.7208 175.99C46.3662 175.99 46.0216 175.925 45.7119 175.801C45.4023 175.676 45.1326 175.496 44.9029 175.261C44.6731 175.031 44.4933 174.757 44.3685 174.442C44.2436 174.127 44.1787 173.783 44.1787 173.413C44.1787 173.044 44.2436 172.704 44.3735 172.395C44.5033 172.08 44.6831 171.81 44.9129 171.575C45.1426 171.341 45.4173 171.161 45.7319 171.036C46.0465 170.906 46.3862 170.841 46.7557 170.841C47.1902 170.841 47.5797 170.926 47.9243 171.091C48.2689 171.261 48.5536 171.486 48.7784 171.77L48.2889 172.255C48.1241 172.015 47.9144 171.825 47.6547 171.69C47.395 171.55 47.1003 171.486 46.7557 171.486C46.4111 171.486 46.0915 171.57 45.8118 171.735C45.5321 171.905 45.3124 172.13 45.1576 172.419C45.0028 172.709 44.9228 173.039 44.9228 173.413C44.9228 173.788 45.0028 174.117 45.1626 174.412C45.3224 174.707 45.5421 174.937 45.8218 175.106C46.1015 175.276 46.4261 175.356 46.7857 175.356C47.1453 175.356 47.4649 175.276 47.7396 175.121C48.0192 174.966 48.214 174.752 48.3339 174.487L48.2739 174.747V173.853H46.7208V173.254H48.9481V175.88Z" fill="#38332F"/>
<path d="M53.2033 175.88H52.4842V173.793L50.6313 170.951H51.4654L52.9387 173.308H52.7588L54.2321 170.951H55.0512L53.1983 173.798V175.88H53.2033Z" fill="#38332F"/>
<path d="M62.2326 175.99C61.858 175.99 61.5084 175.925 61.1938 175.796C60.8792 175.666 60.6045 175.486 60.3698 175.256C60.1351 175.026 59.9553 174.752 59.8304 174.437C59.7056 174.122 59.6406 173.783 59.6406 173.413C59.6406 173.044 59.7056 172.704 59.8304 172.395C59.9553 172.08 60.1351 171.81 60.3698 171.575C60.6045 171.346 60.8792 171.161 61.1938 171.036C61.5084 170.906 61.853 170.841 62.2326 170.841C62.6122 170.841 62.9468 170.906 63.2614 171.036C63.576 171.166 63.8507 171.346 64.0854 171.575C64.3201 171.805 64.4999 172.08 64.6298 172.395C64.7596 172.709 64.8246 173.049 64.8246 173.413C64.8246 173.778 64.7596 174.122 64.6298 174.437C64.4999 174.752 64.3201 175.026 64.0854 175.256C63.8507 175.486 63.576 175.671 63.2614 175.796C62.9468 175.925 62.6022 175.99 62.2326 175.99ZM62.2326 175.346C62.5972 175.346 62.9168 175.261 63.1915 175.096C63.4662 174.932 63.6859 174.702 63.8407 174.412C64.0005 174.122 64.0805 173.788 64.0805 173.408C64.0805 173.029 64.0005 172.699 63.8407 172.409C63.6809 172.12 63.4662 171.89 63.1915 171.725C62.9168 171.56 62.5972 171.476 62.2326 171.476C61.868 171.476 61.5534 171.56 61.2737 171.725C60.9941 171.89 60.7743 172.12 60.6195 172.409C60.4647 172.699 60.3848 173.034 60.3848 173.408C60.3848 173.783 60.4647 174.117 60.6195 174.412C60.7743 174.702 60.9941 174.932 61.2737 175.096C61.5534 175.261 61.873 175.346 62.2326 175.346Z" fill="#38332F"/>
<path d="M67.8259 175.88H67.1167V170.951H70.3279V171.565H67.8259V175.88ZM70.1981 173.673H67.756V173.058H70.1981V173.673Z" fill="#38332F"/>
<path d="M74.9425 175.071L75.4369 174.587C75.5718 174.741 75.7216 174.881 75.8964 174.996C76.0712 175.111 76.256 175.201 76.4607 175.261C76.6605 175.321 76.8752 175.351 77.1 175.351C77.3497 175.351 77.5644 175.316 77.7492 175.246C77.934 175.176 78.0788 175.076 78.1887 174.951C78.2936 174.821 78.3485 174.671 78.3485 174.502C78.3485 174.277 78.2486 174.097 78.0539 173.967C77.8541 173.837 77.5095 173.733 77.0201 173.663C76.5756 173.598 76.216 173.508 75.9413 173.388C75.6667 173.268 75.4669 173.118 75.342 172.943C75.2172 172.769 75.1522 172.554 75.1522 172.304C75.1522 172.015 75.2321 171.76 75.397 171.54C75.5618 171.32 75.7815 171.146 76.0662 171.021C76.3509 170.896 76.6755 170.836 77.04 170.836C77.4695 170.836 77.8441 170.916 78.1687 171.081C78.4933 171.245 78.778 171.465 79.0227 171.745L78.5283 172.229C78.3435 171.995 78.1338 171.81 77.894 171.67C77.6543 171.53 77.3746 171.465 77.045 171.465C76.7154 171.465 76.4258 171.54 76.211 171.685C75.9963 171.83 75.8864 172.03 75.8864 172.279C75.8864 172.409 75.9264 172.519 76.0063 172.609C76.0862 172.699 76.221 172.774 76.4058 172.839C76.5906 172.899 76.8403 172.958 77.1449 173.008C77.6044 173.078 77.9739 173.173 78.2586 173.303C78.5433 173.428 78.7481 173.593 78.8779 173.788C79.0078 173.982 79.0727 174.217 79.0727 174.487C79.0727 174.791 78.9878 175.056 78.8229 175.281C78.6531 175.505 78.4234 175.68 78.1238 175.81C77.8241 175.935 77.4795 176 77.09 176C76.6305 176 76.221 175.92 75.8614 175.755C75.5018 175.59 75.1972 175.366 74.9375 175.081L74.9425 175.071Z" fill="#38332F"/>
<path d="M84.9714 171.57H81.061V170.951H84.9714V171.57ZM83.3683 175.88H82.6591V171.5H83.3683V175.88Z" fill="#38332F"/>
<path d="M89.2663 175.99C88.8917 175.99 88.5421 175.925 88.2275 175.796C87.9129 175.666 87.6382 175.486 87.4034 175.256C87.1687 175.026 86.989 174.752 86.8641 174.437C86.7392 174.122 86.6743 173.783 86.6743 173.413C86.6743 173.044 86.7392 172.704 86.8641 172.395C86.989 172.08 87.1687 171.81 87.4034 171.575C87.6382 171.346 87.9129 171.161 88.2275 171.036C88.5421 170.906 88.8867 170.841 89.2663 170.841C89.6458 170.841 89.9805 170.906 90.2951 171.036C90.6097 171.166 90.8844 171.346 91.1191 171.575C91.3538 171.805 91.5336 172.08 91.6635 172.395C91.7933 172.709 91.8583 173.049 91.8583 173.413C91.8583 173.778 91.7933 174.122 91.6635 174.437C91.5336 174.752 91.3538 175.026 91.1191 175.256C90.8844 175.486 90.6097 175.671 90.2951 175.796C89.9805 175.925 89.6359 175.99 89.2663 175.99ZM89.2663 175.346C89.6309 175.346 89.9505 175.261 90.2252 175.096C90.4998 174.932 90.7196 174.702 90.8744 174.412C91.0342 174.122 91.1141 173.788 91.1141 173.408C91.1141 173.029 91.0342 172.699 90.8744 172.409C90.7146 172.12 90.4998 171.89 90.2252 171.725C89.9505 171.56 89.6309 171.476 89.2663 171.476C88.9017 171.476 88.5871 171.56 88.3074 171.725C88.0277 171.89 87.808 172.12 87.6532 172.409C87.4983 172.699 87.4184 173.034 87.4184 173.408C87.4184 173.783 87.4983 174.117 87.6532 174.412C87.808 174.702 88.0277 174.932 88.3074 175.096C88.5871 175.261 88.9067 175.346 89.2663 175.346Z" fill="#38332F"/>
<path d="M94.8295 175.88H94.1353V170.951H94.8993L97.746 175.166H97.5263V170.951H98.2205V175.88H97.4564L94.5997 171.665H94.8295V175.88Z" fill="#38332F"/>
<path d="M104.029 175.88H100.678V170.951H104.029V171.565H101.387V175.266H104.029V175.88ZM103.899 173.673H101.322V173.058H103.899V173.673Z" fill="#38332F"/>
<path d="M105.957 175.071L106.451 174.587C106.586 174.741 106.736 174.881 106.911 174.996C107.085 175.111 107.27 175.201 107.475 175.261C107.675 175.321 107.889 175.351 108.114 175.351C108.364 175.351 108.579 175.316 108.763 175.246C108.948 175.176 109.093 175.076 109.203 174.951C109.308 174.821 109.363 174.671 109.363 174.502C109.363 174.277 109.263 174.097 109.068 173.967C108.868 173.837 108.524 173.733 108.034 173.663C107.59 173.598 107.23 173.508 106.955 173.388C106.681 173.268 106.481 173.118 106.356 172.943C106.231 172.769 106.166 172.554 106.166 172.304C106.166 172.015 106.246 171.76 106.411 171.54C106.576 171.32 106.796 171.146 107.08 171.021C107.365 170.896 107.69 170.836 108.054 170.836C108.484 170.836 108.858 170.916 109.183 171.081C109.507 171.245 109.792 171.465 110.037 171.745L109.542 172.229C109.358 171.995 109.148 171.81 108.908 171.67C108.668 171.53 108.389 171.465 108.059 171.465C107.73 171.465 107.44 171.54 107.225 171.685C107.01 171.83 106.901 172.03 106.901 172.279C106.901 172.409 106.94 172.519 107.02 172.609C107.1 172.699 107.235 172.774 107.42 172.839C107.605 172.899 107.854 172.958 108.159 173.008C108.619 173.078 108.988 173.173 109.273 173.303C109.557 173.428 109.762 173.593 109.892 173.788C110.022 173.982 110.087 174.217 110.087 174.487C110.087 174.791 110.002 175.056 109.837 175.281C109.667 175.505 109.438 175.68 109.138 175.81C108.838 175.935 108.494 176 108.104 176C107.645 176 107.235 175.92 106.876 175.755C106.516 175.59 106.211 175.366 105.952 175.081L105.957 175.071Z" fill="#38332F"/>
<path d="M24.1372 175.88H20.7861V170.951H24.1372V171.565H21.4953V175.266H24.1372V175.88ZM24.0073 173.673H21.4304V173.058H24.0073V173.673Z" fill="#E2D7C2"/>
<path d="M27.0536 175.88H26.3594V170.951H27.1235L29.9702 175.166H29.7504V170.951H30.4446V175.88H29.6805L26.8238 171.665H27.0536V175.88Z" fill="#E2D7C2"/>
<path d="M36.2529 175.88H32.9019V170.951H36.2529V171.565H33.611V175.266H36.2529V175.88ZM36.1181 173.673H33.5411V173.058H36.1181V173.673Z" fill="#E2D7C2"/>
<path d="M39.1945 175.88H38.4854V170.951H40.4381C40.7727 170.951 41.0673 171.011 41.322 171.131C41.5767 171.251 41.7715 171.42 41.9163 171.635C42.0612 171.85 42.1311 172.1 42.1311 172.384C42.1311 172.669 42.0612 172.929 41.9163 173.143C41.7715 173.358 41.5767 173.528 41.322 173.648C41.0673 173.768 40.7727 173.828 40.4381 173.828H39.1296V173.213H40.4381C40.7377 173.213 40.9725 173.138 41.1423 172.994C41.3121 172.849 41.3969 172.644 41.3969 172.384C41.3969 172.125 41.3121 171.93 41.1423 171.785C40.9725 171.64 40.7377 171.565 40.4381 171.565H39.1945V175.88ZM42.6155 175.88H41.7266L39.8987 173.583H40.7177L42.6155 175.88Z" fill="#E2D7C2"/>
<path d="M48.9481 175.88H48.2789V175.176L48.3638 175.206C48.199 175.456 47.9743 175.646 47.6846 175.786C47.395 175.925 47.0753 175.99 46.7208 175.99C46.3662 175.99 46.0216 175.925 45.7119 175.801C45.4023 175.676 45.1326 175.496 44.9029 175.261C44.6731 175.031 44.4933 174.757 44.3685 174.442C44.2436 174.127 44.1787 173.783 44.1787 173.413C44.1787 173.044 44.2436 172.704 44.3735 172.395C44.5033 172.08 44.6831 171.81 44.9129 171.575C45.1426 171.341 45.4173 171.161 45.7319 171.036C46.0465 170.906 46.3862 170.841 46.7557 170.841C47.1902 170.841 47.5797 170.926 47.9243 171.091C48.2689 171.261 48.5536 171.486 48.7784 171.77L48.2889 172.255C48.1241 172.015 47.9144 171.825 47.6547 171.69C47.395 171.55 47.1003 171.486 46.7557 171.486C46.4111 171.486 46.0915 171.57 45.8118 171.735C45.5321 171.905 45.3124 172.13 45.1576 172.419C45.0028 172.709 44.9228 173.039 44.9228 173.413C44.9228 173.788 45.0028 174.117 45.1626 174.412C45.3224 174.707 45.5421 174.937 45.8218 175.106C46.1015 175.276 46.4261 175.356 46.7857 175.356C47.1453 175.356 47.4649 175.276 47.7396 175.121C48.0192 174.966 48.214 174.752 48.3339 174.487L48.2739 174.747V173.853H46.7208V173.254H48.9481V175.88Z" fill="#E2D7C2"/>
<path d="M53.2033 175.88H52.4842V173.793L50.6313 170.951H51.4654L52.9387 173.308H52.7588L54.2321 170.951H55.0512L53.1983 173.798V175.88H53.2033Z" fill="#E2D7C2"/>
<path d="M62.2326 175.99C61.858 175.99 61.5084 175.925 61.1938 175.796C60.8792 175.666 60.6045 175.486 60.3698 175.256C60.1351 175.026 59.9553 174.752 59.8304 174.437C59.7056 174.122 59.6406 173.783 59.6406 173.413C59.6406 173.044 59.7056 172.704 59.8304 172.395C59.9553 172.08 60.1351 171.81 60.3698 171.575C60.6045 171.346 60.8792 171.161 61.1938 171.036C61.5084 170.906 61.853 170.841 62.2326 170.841C62.6122 170.841 62.9468 170.906 63.2614 171.036C63.576 171.166 63.8507 171.346 64.0854 171.575C64.3201 171.805 64.4999 172.08 64.6298 172.395C64.7596 172.709 64.8246 173.049 64.8246 173.413C64.8246 173.778 64.7596 174.122 64.6298 174.437C64.4999 174.752 64.3201 175.026 64.0854 175.256C63.8507 175.486 63.576 175.671 63.2614 175.796C62.9468 175.925 62.6022 175.99 62.2326 175.99ZM62.2326 175.346C62.5972 175.346 62.9168 175.261 63.1915 175.096C63.4662 174.932 63.6859 174.702 63.8407 174.412C64.0005 174.122 64.0805 173.788 64.0805 173.408C64.0805 173.029 64.0005 172.699 63.8407 172.409C63.6809 172.12 63.4662 171.89 63.1915 171.725C62.9168 171.56 62.5972 171.476 62.2326 171.476C61.868 171.476 61.5534 171.56 61.2737 171.725C60.9941 171.89 60.7743 172.12 60.6195 172.409C60.4647 172.699 60.3848 173.034 60.3848 173.408C60.3848 173.783 60.4647 174.117 60.6195 174.412C60.7743 174.702 60.9941 174.932 61.2737 175.096C61.5534 175.261 61.873 175.346 62.2326 175.346Z" fill="#E2D7C2"/>
<path d="M67.8259 175.88H67.1167V170.951H70.3279V171.565H67.8259V175.88ZM70.1981 173.673H67.756V173.058H70.1981V173.673Z" fill="#E2D7C2"/>
<path d="M74.9425 175.071L75.4369 174.587C75.5718 174.741 75.7216 174.881 75.8964 174.996C76.0712 175.111 76.256 175.201 76.4607 175.261C76.6605 175.321 76.8752 175.351 77.1 175.351C77.3497 175.351 77.5644 175.316 77.7492 175.246C77.934 175.176 78.0788 175.076 78.1887 174.951C78.2936 174.821 78.3485 174.671 78.3485 174.502C78.3485 174.277 78.2486 174.097 78.0539 173.967C77.8541 173.837 77.5095 173.733 77.0201 173.663C76.5756 173.598 76.216 173.508 75.9413 173.388C75.6667 173.268 75.4669 173.118 75.342 172.943C75.2172 172.769 75.1522 172.554 75.1522 172.304C75.1522 172.015 75.2321 171.76 75.397 171.54C75.5618 171.32 75.7815 171.146 76.0662 171.021C76.3509 170.896 76.6755 170.836 77.04 170.836C77.4695 170.836 77.8441 170.916 78.1687 171.081C78.4933 171.245 78.778 171.465 79.0227 171.745L78.5283 172.229C78.3435 171.995 78.1338 171.81 77.894 171.67C77.6543 171.53 77.3746 171.465 77.045 171.465C76.7154 171.465 76.4258 171.54 76.211 171.685C75.9963 171.83 75.8864 172.03 75.8864 172.279C75.8864 172.409 75.9264 172.519 76.0063 172.609C76.0862 172.699 76.221 172.774 76.4058 172.839C76.5906 172.899 76.8403 172.958 77.1449 173.008C77.6044 173.078 77.9739 173.173 78.2586 173.303C78.5433 173.428 78.7481 173.593 78.8779 173.788C79.0078 173.982 79.0727 174.217 79.0727 174.487C79.0727 174.791 78.9878 175.056 78.8229 175.281C78.6531 175.505 78.4234 175.68 78.1238 175.81C77.8241 175.935 77.4795 176 77.09 176C76.6305 176 76.221 175.92 75.8614 175.755C75.5018 175.59 75.1972 175.366 74.9375 175.081L74.9425 175.071Z" fill="#E2D7C2"/>
<path d="M84.9714 171.57H81.061V170.951H84.9714V171.57ZM83.3683 175.88H82.6591V171.5H83.3683V175.88Z" fill="#E2D7C2"/>
<path d="M89.2663 175.99C88.8917 175.99 88.5421 175.925 88.2275 175.796C87.9129 175.666 87.6382 175.486 87.4034 175.256C87.1687 175.026 86.989 174.752 86.8641 174.437C86.7392 174.122 86.6743 173.783 86.6743 173.413C86.6743 173.044 86.7392 172.704 86.8641 172.395C86.989 172.08 87.1687 171.81 87.4034 171.575C87.6382 171.346 87.9129 171.161 88.2275 171.036C88.5421 170.906 88.8867 170.841 89.2663 170.841C89.6458 170.841 89.9805 170.906 90.2951 171.036C90.6097 171.166 90.8844 171.346 91.1191 171.575C91.3538 171.805 91.5336 172.08 91.6635 172.395C91.7933 172.709 91.8583 173.049 91.8583 173.413C91.8583 173.778 91.7933 174.122 91.6635 174.437C91.5336 174.752 91.3538 175.026 91.1191 175.256C90.8844 175.486 90.6097 175.671 90.2951 175.796C89.9805 175.925 89.6359 175.99 89.2663 175.99ZM89.2663 175.346C89.6309 175.346 89.9505 175.261 90.2252 175.096C90.4998 174.932 90.7196 174.702 90.8744 174.412C91.0342 174.122 91.1141 173.788 91.1141 173.408C91.1141 173.029 91.0342 172.699 90.8744 172.409C90.7146 172.12 90.4998 171.89 90.2252 171.725C89.9505 171.56 89.6309 171.476 89.2663 171.476C88.9017 171.476 88.5871 171.56 88.3074 171.725C88.0277 171.89 87.808 172.12 87.6532 172.409C87.4983 172.699 87.4184 173.034 87.4184 173.408C87.4184 173.783 87.4983 174.117 87.6532 174.412C87.808 174.702 88.0277 174.932 88.3074 175.096C88.5871 175.261 88.9067 175.346 89.2663 175.346Z" fill="#E2D7C2"/>
<path d="M94.8295 175.88H94.1353V170.951H94.8993L97.746 175.166H97.5263V170.951H98.2205V175.88H97.4564L94.5997 171.665H94.8295V175.88Z" fill="#E2D7C2"/>
<path d="M104.029 175.88H100.678V170.951H104.029V171.565H101.387V175.266H104.029V175.88ZM103.899 173.673H101.322V173.058H103.899V173.673Z" fill="#E2D7C2"/>
<path d="M105.957 175.071L106.451 174.587C106.586 174.741 106.736 174.881 106.911 174.996C107.085 175.111 107.27 175.201 107.475 175.261C107.675 175.321 107.889 175.351 108.114 175.351C108.364 175.351 108.579 175.316 108.763 175.246C108.948 175.176 109.093 175.076 109.203 174.951C109.308 174.821 109.363 174.671 109.363 174.502C109.363 174.277 109.263 174.097 109.068 173.967C108.868 173.837 108.524 173.733 108.034 173.663C107.59 173.598 107.23 173.508 106.955 173.388C106.681 173.268 106.481 173.118 106.356 172.943C106.231 172.769 106.166 172.554 106.166 172.304C106.166 172.015 106.246 171.76 106.411 171.54C106.576 171.32 106.796 171.146 107.08 171.021C107.365 170.896 107.69 170.836 108.054 170.836C108.484 170.836 108.858 170.916 109.183 171.081C109.507 171.245 109.792 171.465 110.037 171.745L109.542 172.229C109.358 171.995 109.148 171.81 108.908 171.67C108.668 171.53 108.389 171.465 108.059 171.465C107.73 171.465 107.44 171.54 107.225 171.685C107.01 171.83 106.901 172.03 106.901 172.279C106.901 172.409 106.94 172.519 107.02 172.609C107.1 172.699 107.235 172.774 107.42 172.839C107.605 172.899 107.854 172.958 108.159 173.008C108.619 173.078 108.988 173.173 109.273 173.303C109.557 173.428 109.762 173.593 109.892 173.788C110.022 173.982 110.087 174.217 110.087 174.487C110.087 174.791 110.002 175.056 109.837 175.281C109.667 175.505 109.438 175.68 109.138 175.81C108.838 175.935 108.494 176 108.104 176C107.645 176 107.235 175.92 106.876 175.755C106.516 175.59 106.211 175.366 105.952 175.081L105.957 175.071Z" fill="#E2D7C2"/>
<path d="M28.113 162.805C28.6324 162.705 28.972 162.516 29.1268 162.241C29.2817 161.966 29.3716 161.617 29.4016 161.187V141.3C29.3766 140.871 29.2867 140.521 29.1268 140.247C28.972 139.972 28.6324 139.782 28.113 139.682L27.9582 139.283H46.5715V141.79C46.182 141.605 45.7325 141.44 45.2281 141.285C44.7237 141.131 44.1194 141.001 43.4152 140.886C42.716 140.776 41.877 140.691 40.9031 140.641C39.9292 140.591 38.7806 140.566 37.4571 140.566H32.3181V150.799L44.6637 150.34V152.143L32.3181 151.868V161.921H37.4571C38.7806 161.921 39.9292 161.896 40.9031 161.846C41.877 161.796 42.716 161.717 43.4152 161.602C44.1144 161.492 44.7187 161.357 45.2281 161.202C45.7375 161.047 46.182 160.883 46.5715 160.698V163.235L27.9582 163.205L28.113 162.805ZM99.3249 163.215H105.128L104.973 162.815C104.454 162.715 104.119 162.526 103.96 162.251C103.805 161.976 103.71 161.627 103.685 161.197V139.293L100.179 139.752C100.464 140.102 100.633 140.621 100.683 141.325C100.733 142.03 100.763 142.839 100.763 143.753V161.197C100.738 161.627 100.648 161.976 100.489 162.251C100.334 162.526 99.9941 162.715 99.4747 162.815L99.3199 163.215H99.3249ZM19.6779 163.215H24.0029L23.848 162.815C23.5883 162.775 23.3336 162.69 23.0889 162.556C22.8442 162.426 22.5345 162.196 22.175 161.866L10.1041 150.654L21.1262 139.288H16.8012C16.6464 140.042 16.2968 140.936 15.7525 141.975C15.2081 143.013 14.3641 144.112 13.2204 145.276L5.15982 153.646V139.288L1.65394 139.747C1.9386 140.097 2.10838 140.616 2.15832 141.32C2.20826 142.025 2.23824 142.834 2.23824 143.748V161.192C2.21327 161.622 2.12338 161.971 1.96357 162.246C1.80875 162.521 1.46913 162.71 0.94974 162.81L0.794922 163.21H6.59815L6.44333 162.81C5.92393 162.71 5.58435 162.521 5.42953 162.246C5.27471 161.971 5.18479 161.622 5.15482 161.192V155.754L8.23125 152.577L19.6779 163.21V163.215ZM70.4286 163.215H74.7536L74.5988 162.815C74.3391 162.775 74.0844 162.69 73.8397 162.556C73.595 162.426 73.2853 162.196 72.9257 161.866L60.8548 150.654L71.877 139.288H67.552C67.3972 140.042 67.0476 140.936 66.5032 141.975C65.9589 143.013 65.1149 144.112 63.9712 145.276L55.9106 153.646V139.288L52.4047 139.747C52.6894 140.097 52.8592 140.616 52.9091 141.32C52.9591 142.025 52.989 142.834 52.989 143.748V161.192C52.964 161.622 52.8741 161.971 52.7143 162.246C52.5595 162.521 52.2199 162.71 51.7005 162.81L51.5457 163.21H57.3489L57.1941 162.81C56.6747 162.71 56.3351 162.521 56.1803 162.246C56.0255 161.971 55.9356 161.622 55.9056 161.192V155.754L58.982 152.577L70.4286 163.21V163.215ZM128.88 163.215H133.205L133.051 162.815C132.791 162.775 132.536 162.69 132.291 162.556C132.047 162.426 131.737 162.196 131.378 161.866L119.307 150.654L130.329 139.288H126.004C125.849 140.042 125.499 140.936 124.955 141.975C124.411 143.013 123.567 144.112 122.423 145.276L114.362 153.646V139.288L110.856 139.747C111.141 140.097 111.311 140.616 111.361 141.32C111.411 142.025 111.441 142.834 111.441 143.748V161.192C111.416 161.622 111.326 161.971 111.166 162.246C111.011 162.521 110.672 162.71 110.152 162.81L109.997 163.21H115.801L115.646 162.81C115.126 162.71 114.787 162.521 114.632 162.246C114.477 161.971 114.387 161.622 114.357 161.192V155.754L117.434 152.577L128.88 163.21V163.215ZM95.6242 163.215V160.708C95.2347 160.893 94.7852 161.057 94.2808 161.212C93.7764 161.367 93.1721 161.497 92.4679 161.612C91.7687 161.727 90.9297 161.806 89.9559 161.856C88.982 161.906 87.8333 161.931 86.5099 161.931H82.8092V139.293L79.3033 139.752C79.588 140.102 79.7578 140.621 79.8077 141.325C79.8577 142.03 79.8876 142.839 79.8876 143.753V161.197C79.8626 161.627 79.7728 161.976 79.6129 162.251C79.4581 162.526 79.1185 162.715 78.5991 162.815L78.4443 163.215H95.6192H95.6242Z" fill="url(#paint0_linear_96_2136)"/>
<path d="M94.68 47.5145C94.7749 49.5022 94.9247 53.4925 94.9797 55.4752C95.1245 58.1371 95.1494 60.794 94.68 63.4359H94.5951C93.8909 59.6204 94.3554 55.3554 94.4253 51.4899L94.5951 47.5095H94.68V47.5145Z" fill="#665A54"/>
<path d="M72.7404 0C73.3147 16.5557 73.3147 33.3211 72.7404 49.8768C72.1661 33.3211 72.1711 16.5557 72.7404 0Z" fill="#665A54"/>
<path d="M50.761 11.9661C51.3354 22.7735 51.3553 33.6608 50.761 44.4731C50.1667 33.6658 50.1867 22.7735 50.761 11.9661Z" fill="#665A54"/>
<path d="M53.4028 9.22437C74.2835 20.1067 95.1241 31.6132 115.45 43.4994C94.5697 32.6221 73.7291 21.1055 53.4028 9.22437Z" fill="#665A54"/>
<path d="M41.4072 26.6838C63.896 38.505 86.3648 50.9655 108.299 63.7955C85.8054 51.9743 63.3416 39.5089 41.4072 26.6838Z" fill="#665A54"/>
<path d="M94.8847 7.62622C77.5449 16.5908 60.2301 25.9948 43.21 35.6835C43.2649 35.8333 43.3099 35.9931 43.3448 36.1529C60.6946 26.9986 77.9694 17.4448 94.8847 7.62622Z" fill="#665A54"/>
<path d="M112.464 21.8696C96.1129 31.6382 79.2926 41.0223 62.3823 49.792C78.7282 40.0184 95.5586 30.6394 112.464 21.8696Z" fill="#665A54"/>
<path d="M116.718 44.2034C106.64 50.3013 96.2274 55.9447 85.5898 61.0138C95.6581 54.9009 106.096 49.2874 116.718 44.2034Z" fill="#665A54"/>
<path d="M94.68 47.5145C94.7749 49.5022 94.9247 53.4925 94.9797 55.4752C95.1245 58.1371 95.1494 60.794 94.68 63.4359H94.5951C93.8909 59.6204 94.3554 55.3554 94.4253 51.4899L94.5951 47.5095H94.68V47.5145Z" fill="url(#paint1_linear_96_2136)"/>
<path d="M72.7404 0C73.3147 16.5557 73.3147 33.3211 72.7404 49.8768C72.1661 33.3211 72.1711 16.5557 72.7404 0Z" fill="url(#paint2_linear_96_2136)"/>
<path d="M50.761 11.9661C51.3354 22.7735 51.3553 33.6608 50.761 44.4731C50.1667 33.6658 50.1867 22.7735 50.761 11.9661Z" fill="url(#paint3_linear_96_2136)"/>
<path d="M53.4028 9.22437C74.2835 20.1067 95.1241 31.6132 115.45 43.4994C94.5697 32.6221 73.7291 21.1055 53.4028 9.22437Z" fill="url(#paint4_linear_96_2136)"/>
<path d="M41.4072 26.6838C63.896 38.505 86.3648 50.9655 108.299 63.7955C85.8054 51.9743 63.3416 39.5089 41.4072 26.6838Z" fill="url(#paint5_linear_96_2136)"/>
<path d="M94.8847 7.62622C77.5449 16.5908 60.2301 25.9948 43.21 35.6835C43.2649 35.8333 43.3099 35.9931 43.3448 36.1529C60.6946 26.9986 77.9694 17.4448 94.8847 7.62622Z" fill="url(#paint6_linear_96_2136)"/>
<path d="M112.464 21.8696C96.1129 31.6382 79.2926 41.0223 62.3823 49.792C78.7282 40.0184 95.5586 30.6394 112.464 21.8696Z" fill="url(#paint7_linear_96_2136)"/>
<path d="M116.718 44.2034C106.64 50.3013 96.2274 55.9447 85.5898 61.0138C95.6581 54.9009 106.096 49.2874 116.718 44.2034Z" fill="url(#paint8_linear_96_2136)"/>
<path d="M27.0591 28.6022L26.9941 27.5933L27.7133 27.1389L28.5373 26.6045L30.0056 26.9341L30.3852 28.0478L30.3402 28.3774L29.3214 29.3363L27.958 29.4112L27.0591 28.6022Z" fill="#665A54"/>
<path d="M27.5485 28.4023L27.4985 27.6832L28.0129 27.3586L28.6022 26.979L29.646 27.2137L29.9157 28.0028L29.8857 28.2375L29.1616 28.9217L28.1877 28.9767L27.5485 28.4023Z" fill="#38332F"/>
<path d="M31.6741 28.1077L30.5554 28.9067L30.2607 29.4461L30.3956 29.7657L31.3744 29.526L32.7179 28.7319L31.6741 28.1077Z" fill="#975330"/>
<path d="M29.3066 26.6694L29.0719 26.3547L28.3477 26.3647L28.0381 26.7842L28.138 27.1688L28.5825 27.4734L29.1468 27.2187" fill="#C3BCAC"/>
<path d="M18.4051 28.9861L16.6221 30.5143L14.7144 33.366L15.9379 33.2661L17.7708 32.3621L21.896 32.2473L25.5217 33.0863L23.0796 31.3284L21.2467 31.0986L19.8683 30.1847L18.4051 28.9861Z" fill="#975330"/>
<path d="M16.2773 33.6208H20.7072L23.8036 33.3161L21.9208 32.6819L17.7956 32.7918L16.2773 33.6208Z" fill="#975330"/>
<path d="M19.4487 34.1201H21.1318L21.6262 35.4536L19.4487 34.1201Z" fill="#665A54"/>
<path d="M30.8555 30.1547L32.7882 29.3357L35.0556 30.4394L35.2104 31.3483L34.3714 32.1424L33.1228 30.8989L30.8555 30.1547Z" fill="#665A54"/>
<path d="M35.7602 31.5979L34.8413 32.397L37.3984 34.5395L35.7602 31.5979Z" fill="#665A54"/>
<path d="M34.2663 32.9314L33.4272 33.1611L36.2939 34.959L36.5236 35.9129L37.058 35.798L36.7134 34.3847L34.2663 32.9314Z" fill="#665A54"/>
<path d="M34.0766 39.2742L33.0479 40.4978L33.9618 41.8312L35.7197 40.8424L36.5488 39.8335L35.5299 38.4851L34.0766 39.2742Z" fill="#665A54"/>
<path d="M36.444 36.8667L36.2143 37.7057L35.6699 38.2051L36.7786 39.5086L37.323 39.4637L39.006 37.2512L36.444 36.8667Z" fill="#665A54"/>
<path d="M37.3237 34.919L37.4785 36.5621L38.812 36.7918L37.973 34.4246L37.3237 34.919Z" fill="#665A54"/>
<path d="M32.5484 40.8772H31.5945L30.4509 41.5264L30.0264 43.0147L30.9053 42.9797L31.3298 43.5491L32.5884 42.0608L33.6172 42.1407L32.5484 40.8772Z" fill="#665A54"/>
<path d="M24.2634 41.9858L25.7117 42.71L26.7455 42.1007L27.3198 42.4053L27.6993 43.3243L27.2848 44.6927L24.9326 46.2758L23.2046 45.7015L24.1085 43.1295L24.2634 41.9858Z" fill="#665A54"/>
<path d="M29.8018 41.6812L28.4633 41.9858L27.6992 42.0258L28.1587 43.2094L27.9689 44.2382L28.8828 43.8936L29.2674 44.2032L29.647 43.1295L29.8018 41.6812Z" fill="#665A54"/>
<path d="M41.8677 38.8145L44.1201 40.6124L42.9764 41.0668L40.6841 39.8083L41.8677 38.8145Z" fill="#665A54"/>
<path d="M35.7699 50.7554L36.9186 50.1212L35.7949 49.0025L34.4215 48.7977L33.0431 47.9937L32.3589 48.553L34.6262 51.0651L35.7699 50.7554Z" fill="#665A54"/>
<path d="M23.8434 50.7705L22.0105 51.19L21.626 54.591L22.5449 55.6598L24.3778 54.5111L23.4189 52.1439L23.8434 50.7705Z" fill="#665A54"/>
<path d="M41.1038 44.3135L39.3109 44.698L39.271 45.8417L41.4085 49.2427L44.2751 49.9319L44.9643 49.0529L43.0915 46.3011L42.2875 46.2612L41.1038 44.3135Z" fill="#665A54"/>
<path d="M28.4136 50.9353L27.7993 52.1589L29.1228 56.0294L31.47 58.4715L31.0605 54.601L29.8369 51.7494L28.4136 50.9353Z" fill="#665A54"/>
<path d="M22.3508 28.7064L21.257 28.1221L19.4741 29.1659L20.6727 30.4144L21.8164 30.8439L23.0649 28.9112L22.3508 28.7064Z" fill="#665A54"/>
<path d="M23.5991 28.961L24.543 28.8362L25.9065 26.8235L27.165 26.0994L29.1127 25.8696L31.45 26.7935L31.3002 27.1381L28.9229 26.439L27.4546 26.8535L26.7904 27.4578L25.9913 28.4866L22.8101 29.855L23.5991 28.961Z" fill="#975330"/>
<path d="M25.0923 29.4009L26.0612 28.8416L27.6743 29.5757L29.8867 29.3959L29.9366 29.9153L26.9351 30.3098L25.0923 29.4009Z" fill="#975330"/>
<path d="M73.8346 106.341L70.1689 106.951L61.0195 128.47L63.9461 126.992L72.3063 111.84L71.5423 110.621L73.8346 106.341Z" fill="#975330"/>
<path d="M72.0017 111.305L74.294 110.926L63.5166 127.197L72.0017 111.305Z" fill="#975330"/>
<path d="M65.5843 111.84L61.2044 111.436L61.1045 114.692L56.7446 126.788L58.2678 126.483L65.4844 114.897L65.5843 111.84Z" fill="#975330"/>
<path d="M34.9052 29.9554L35.7192 30.5897L36.8379 29.8006L34.1161 28.9116L33.377 28.9865L34.9052 29.9554Z" fill="#C3BCAC"/>
<path d="M34.0112 25.0664L33.6816 25.5008L34.7254 26.4697L36.9428 27.5634L37.9067 26.8493L34.6755 24.7617L34.0112 25.0664Z" fill="#C3BCAC"/>
<path d="M35.8187 24.2769L35.2344 24.7613L37.8763 26.4393L38.2658 26.3394L35.8187 24.2769Z" fill="#975330"/>
<path d="M38.5462 26.824L37.5024 27.638L39.4102 29.5758L40.0245 29.346L39.64 28.1724L38.5462 26.824Z" fill="#975330"/>
<path d="M38.2667 29.0366L38.2417 29.7757L39.2356 32.4526L40.1745 33.0369L40.9136 31.9183L40.0496 30.1104L39.3604 29.9306L38.2667 29.0366Z" fill="#C3BCAC"/>
<path d="M37.6521 29.8008L37.0428 29.9806L35.999 30.8446L37.757 33.4415L38.621 34.2855L39.6148 34.0059L38.5211 32.198L38.2664 30.5399L37.6521 29.8008Z" fill="#C3BCAC"/>
<path d="M41.2974 32.8572L40.2236 34.5402L41.9816 38.3558L43.6646 39.7341L41.2974 32.8572Z" fill="#C3BCAC"/>
<path d="M39.6146 34.575L38.8505 34.7697L39.4598 37.137L38.8105 38.7001L40.7583 39.0447L41.4874 38.4704L39.6146 34.575Z" fill="#C3BCAC"/>
<path d="M38.4305 39.0049L37.3618 40.0786L38.8101 44.3137L40.648 43.8193L41.1024 41.2622L38.4305 39.0049Z" fill="#C3BCAC"/>
<path d="M22.6196 47.9044L22.3149 50.4264L24.4125 50.3515L26.7547 45.9417L24.9818 46.9005L23.2488 46.2763L22.6196 47.9044Z" fill="#C3BCAC"/>
<path d="M41.7923 41.2224L41.4077 43.7445L42.8211 45.7271L45.6478 44.124L44.0047 41.527L42.6313 41.4921L41.7923 41.2224Z" fill="#C3BCAC"/>
<path d="M37.6314 45.2576L36.8074 46.2015L36.5327 48.8983L38.4954 50.8361L40.7678 49.9521L38.9898 46.631L37.6314 45.2576Z" fill="#C3BCAC"/>
<path d="M34.5302 42.291L32.5625 42.4059L31.6187 43.7293L32.992 46.1765L33.5014 44.5983L34.5302 42.291Z" fill="#C3BCAC"/>
<path d="M28.7268 44.4285L27.1636 45.0028L27.4283 46.1864L28.3472 47.1054L27.698 49.4726L29.9154 48.5537L30.22 46.4162L29.7605 44.5084L28.7268 44.4285Z" fill="#C3BCAC"/>
<path d="M30.1406 44.2386L30.5252 45.612L30.5651 46.7207L32.2432 47.9442L32.7026 46.456L31.519 44.4683L30.675 43.5144L30.1406 44.2386Z" fill="#C3BCAC"/>
<path d="M25.4461 49.2827L23.8779 52.1443L26.9344 51.4202L27.5836 47.3699L27.0892 46.8755L25.4461 49.2827Z" fill="#C3BCAC"/>
<path d="M46.7457 44.823L43.894 45.8418L46.0316 49.0031L51.7349 51.3454L56.0099 49.3078L50.1068 47.0654L46.7457 44.823Z" fill="#C3BCAC"/>
<path d="M30.5501 51.3456L31.8736 54.1973L33.9112 51.1409L32.2831 49.1033L30.7549 48.1843L30.65 49.1033L28.4126 50.0172L30.5501 51.3456Z" fill="#C3BCAC"/>
<path d="M25.1513 54.502L24.542 56.23L26.8843 59.5911L28.1078 55.8255L26.6795 52.3645L24.8467 52.5643L25.1513 54.502Z" fill="#C3BCAC"/>
<path d="M23.7287 55.925L22.9646 56.5893L21.6411 56.4844V60.3049L23.2193 64.8896L26.7302 63.3114L26.1209 60.0502L23.7287 55.925Z" fill="#C3BCAC"/>
<path d="M36.8874 44.9831L38.8501 44.8882L37.1022 41.1326L35.3892 41.5171L33.3965 46.2616L33.7161 48.0944L35.7937 48.1344L36.8874 44.9831Z" fill="#C3BCAC"/>
<path d="M33.9512 52.7587L38.4459 54.5217L41.4974 54.4517L37.3122 50.6812L34.2708 51.5951L33.9512 52.7587Z" fill="#C3BCAC"/>
<path d="M33.3922 53.7878L32.688 54.9315L36.8931 62.188L40.4789 62.6475L41.9572 59.9756L37.7521 54.5519L33.3922 53.7878Z" fill="#C3BCAC"/>
<path d="M28.8174 57.863L27.6987 60.6098L29.4317 68.9651L31.6691 70.5932L34.6256 69.5744L31.774 59.4911L28.8174 57.863Z" fill="#C3BCAC"/>
<path d="M27.4938 64.0757L23.7282 65.8037L23.5234 69.5743L26.9844 75.6871L28.9221 74.7682L29.022 72.1213L27.4938 64.0757Z" fill="#C3BCAC"/>
<path d="M32.4829 56.2295L32.6277 60.0201L34.4506 65.9082L36.2735 63.3811L34.4506 59.0362L32.4829 56.2295Z" fill="#C3BCAC"/>
<path d="M46.3365 50.3267L45.5225 51.1407L49.7975 56.03L52.5493 54.6017V52.3643L46.3365 50.3267Z" fill="#C3BCAC"/>
<path d="M57.9483 50.1218L54.0778 51.0358L53.873 52.564L61.9186 54.3968L64.3658 56.3346L67.3173 54.7065L63.347 51.9547L57.9483 50.1218Z" fill="#C3BCAC"/>
<path d="M40.2788 50.8861L41.2427 53.4831L42.7709 54.7067L46.8462 60.7146L48.679 58.4723L48.4743 56.13L44.0944 51.4455L42.1616 50.3767L40.2788 50.8861Z" fill="#C3BCAC"/>
<path d="M90.8445 87.6032L90.1304 88.7219L102.761 92.5924L104.593 91.7784L98.7903 87.803L95.1195 86.2798L90.8445 87.6032Z" fill="#C3BCAC"/>
<path d="M90.2603 82.6641L90.1055 86.0251L95.2245 85.6406L90.2603 82.6641Z" fill="#C3BCAC"/>
<path d="M96.8279 95.569L101.108 96.6428L103.245 96.2582L103.855 94.1207L100.798 92.8223L96.1387 91.6736L96.8279 95.569Z" fill="#C3BCAC"/>
<path d="M84.6816 74.4887L85.6006 78.8436L89.3412 81.4406L91.7883 81.5155L89.9505 76.4764L85.6755 73.8794L84.6816 74.4887Z" fill="#C3BCAC"/>
<path d="M93.7716 81.0558L92.6279 82.5091L97.9717 86.4045L102.556 89.2312L101.028 83.2732L95.0701 77.2402L94.0013 78.9932L93.7716 81.0558Z" fill="#C3BCAC"/>
<path d="M89.7263 90.0703L89.1919 90.9892L90.1058 93.736L93.9264 94.58L95.07 94.0457V91.9831L89.7263 90.0703Z" fill="#C3BCAC"/>
<path d="M54.4818 53.9922L53.5679 56.0298L59.7806 59.6955L62.1229 61.7332L64.4652 61.2237L61.0042 55.5204L54.4818 53.9922Z" fill="#C3BCAC"/>
<path d="M65.7887 61.5285L73.2251 67.2318L78.7237 67.0271L79.9472 63.5661L74.6484 58.6768L70.0688 55.925L67.1122 56.3346L64.1606 57.4533L65.7887 61.5285Z" fill="#C3BCAC"/>
<path d="M81.1707 64.9893L79.5376 68.0458L84.327 72.9351L86.6693 72.8352L87.788 68.3504L82.2894 64.1753L81.1707 64.9893Z" fill="#C3BCAC"/>
<path d="M87.3843 73.0349L90.6405 75.0725L92.6781 80.5761L93.9017 76.6007L90.7453 70.8974L88.8076 69.6738L87.3843 73.0349Z" fill="#C3BCAC"/>
<path d="M80.7116 62.952L88.5774 67.232L94.92 72.8354L95.809 71.0775L89.0868 65.3741L79.4131 60.8145L80.7116 62.952Z" fill="#C3BCAC"/>
<path d="M94.6901 75.712L100.648 81.5153L100.798 79.9871L95.0697 73.9541L93.6963 73.4946L94.6901 75.712Z" fill="#C3BCAC"/>
<path d="M96.1387 73.4198L100.798 78.5388L105.308 85.0312L106.072 83.7327L102.631 78.6137L96.2186 71.8167L96.1387 73.4198Z" fill="#665A54"/>
<path d="M101.603 81.1355L101.528 82.6637L104.16 89.9203L105.004 90.2249L104.889 86.6341L101.603 81.1355Z" fill="#C3BCAC"/>
<path d="M19.7332 28.5021L20.4374 28.0426L21.0317 25.5605L23.7236 21.9697C23.7236 21.9697 21.2415 22.9636 20.1328 24.0323C19.0241 25.1011 18.3398 28.0426 18.3398 28.0426L19.7332 28.5021Z" fill="#898784"/>
<path d="M21.9453 25.2959L22.5047 25.5256L25.5211 24.287L27.6486 23.9025L29.4316 24.8114L30.3954 24.2021L27.6486 22.2644L24.4624 22.5191L21.9453 25.2959Z" fill="#898784"/>
<path d="M24.4624 22.1896L26.9345 21.9849L28.6176 22.2895L31.4942 21.4755L26.9096 21.1958L24.4624 21.8351V22.1896Z" fill="#898784"/>
<path d="M33.8366 22.4193L31.7989 21.6802L29.1221 22.5442L30.7052 23.7677L30.6503 24.0974L31.774 24.0474L33.0475 25.0912L35.5396 24.0974L33.8366 22.4193Z" fill="#898784"/>
<path d="M105.843 93.2019L104.619 94.0459L103.93 96.6429L105.993 97.9414L108.59 96.7178L107.751 94.0459L105.843 93.2019Z" fill="#898784"/>
<path d="M45.3435 86.939L43.0762 91.2689L45.6232 94.7299L50.0031 96.6676L52.2455 95.444L48.2451 91.7533L45.3435 86.939Z" fill="#898784"/>
<path d="M35.5405 94.6248L42.2127 101.147L47.2569 104.508L53.6694 107.41V104.968L46.7474 96.5625L42.9769 95.0343L35.5405 94.6248Z" fill="#898784"/>
<path d="M49.6982 98.1661L52.1404 101.987L55.6563 104.509L62.0239 106.441L67.3177 106.037L60.241 102.446L52.45 97.407L49.6982 98.1661Z" fill="#898784"/>
<path d="M84.532 99.2395L79.4879 99.4642L73.9094 102.446L69.6344 101.911L65.2046 102.98L69.7593 105.732L76.2817 104.968L80.5567 102.446L84.532 99.2395Z" fill="#898784"/>
<path d="M90.336 95.2395V97.5818L85.8562 99.6194L82.7998 102.371L90.9453 100.943L95.1204 99.7193L97.7723 96.9725L95.2253 95.7489L90.336 95.2395Z" fill="#898784"/>
<path d="M107.751 98.5004L112.64 101.247L118.448 103.999L121.5 104.099L110.707 95.6487L107.751 98.5004Z" fill="#898784"/>
<path d="M55.0269 107.48L59.7264 110.586L67.0228 111.171L68.616 108.234L68.2814 107.145H62.8277L59.5566 106.221L56.0307 105.213L55.0269 107.48Z" fill="#898784"/>
<path d="M72.6567 110.447L80.123 110.027L84.9873 107.26L89.4371 102.056L80.2079 103.984L75.0889 106.501L72.6567 110.447Z" fill="#898784"/>
<path d="M53.5684 96.1583L56.7247 99.0099L64.0561 101.961L68.6408 100.538L67.5221 98.3956L60.8998 96.9723L54.0778 95.4441L53.5684 96.1583Z" fill="#898784"/>
<path d="M70.1698 101.048L73.9404 101.352L77.1966 99.2097L69.7603 98.5005L70.1698 101.048Z" fill="#898784"/>
<path d="M121.959 106.242L125.829 107.056L122.214 104.663L119.462 104.608L121.959 106.242Z" fill="#898784"/>
<path d="M21.6255 27.6634L22.6942 28.4275L23.9178 28.3127L25.8655 26.1752L28.9969 25.1614L27.5885 24.4072L25.7257 24.4921L23.4583 25.5259L21.6255 27.6634Z" fill="#E7E4DE"/>
<path d="M23.8027 31.1393L28.0428 31.8285L31.8633 32.9322L34.0008 32.5526L32.168 30.9844L29.4162 30.1854L26.8192 30.6049L24.7566 29.7659L23.8027 31.1393Z" fill="#E7E4DE"/>
<path d="M26.5547 32.9321L29.9907 35.0996L31.8734 35.4042L31.9783 34.6901L31.6337 33.6213L27.8881 32.2479L24.6069 31.6736L26.5547 32.9321Z" fill="#E7E4DE"/>
<path d="M29.9907 25.3708L31.6338 26.3247L32.1682 27.8529L33.5016 28.4272L33.2369 27.3185L33.3518 25.9451L30.9047 24.377L29.9907 25.3708Z" fill="#E7E4DE"/>
<path d="M18.6089 34.0757L19.348 35.8087L20.8213 37.2869L23.8278 39.8839L23.8028 38.5105L21.2009 35.7837L19.8225 34.8997L18.6089 34.0757Z" fill="#E7E4DE"/>
<path d="M37.9064 28.632L33.961 26.4695L33.6064 27.2036L33.986 28.5021L37.9064 29.446V28.632Z" fill="#E7E4DE"/>
<path d="M22.1197 35.4192L23.533 35.4941L25.9202 37.332L27.2736 37.0073L28.0777 34.8449L26.5545 33.5464L23.2283 33.851L22.0098 34.0058L22.1197 35.4192Z" fill="#E7E4DE"/>
<path d="M24.3775 38.2407L24.2626 41.337L25.636 41.7965L25.9058 40.6878L25.1766 37.7862L23.4586 35.9883L22.3149 36.0282L24.3775 38.2407Z" fill="#E7E4DE"/>
<path d="M32.5472 35.1096L35.7584 35.4942L33.3862 33.5065L32.0527 33.3567L32.5472 35.1096Z" fill="#E7E4DE"/>
<path d="M27.9077 36.6574L28.532 38.4503L29.7605 40.8425L31.7083 40.1533L32.3575 39.4292L30.4098 37.9758L28.7267 35.5337L28.0226 35.7035L27.9077 36.6574Z" fill="#E7E4DE"/>
<path d="M26.0551 37.936L25.7505 38.0909L26.4746 40.4581L25.8653 41.9863L27.8131 41.6817L29.1715 41.2971L27.5034 38.0309L26.0551 37.936Z" fill="#E7E4DE"/>
<path d="M32.3179 36.0685L34.7251 38.0911L35.8138 37.4219L36.0835 36.1234L32.8523 35.4941" fill="#E7E4DE"/>
<path d="M29.6057 35.7039L29.376 35.8936L30.5996 37.4818L32.9418 39.2747L34.2403 38.3558L31.5934 36.0135L29.6057 35.7039Z" fill="#E7E4DE"/>
<path d="M30.0419 75.992L36.6642 82L37.8828 77.72L33.8125 72.5261L29.7373 70.8979L30.0419 75.992Z" fill="#E7E4DE"/>
<path d="M36.7635 64.8901L35.1354 67.8417L35.5399 70.4936L34.9307 71.5074L37.9871 75.7874L40.634 75.8873L40.9386 71.1029L39.0059 66.723L36.7635 64.8901Z" fill="#E7E4DE"/>
<path d="M27.3945 76.3966L30.5409 86.9343L34.0018 92.8924L40.2246 94.2708L42.0574 93.0522L37.3229 84.1876L28.3085 75.7874L27.3945 76.3966Z" fill="#E7E4DE"/>
<path d="M39.0061 78.8439L37.9873 83.3236L39.7702 85.566L41.9077 90.1457L44.2001 86.4799L40.5343 77.4155L39.0061 78.8439Z" fill="#E7E4DE"/>
<path d="M41.2978 55.4709L40.3789 55.7756L43.1307 62.1132L44.8837 62.8024L48.5793 64.2008L49.4183 62.5227L45.4979 60.3552L41.2978 55.4709Z" fill="#E7E4DE"/>
<path d="M41.0436 63.0571L40.0498 65.8039L45.1139 71.3574L47.8657 71.4074L48.5798 65.2945L41.0436 63.0571Z" fill="#E7E4DE"/>
<path d="M42.9766 71.6121H42.0576L42.1625 76.3965L44.9093 84.6468L47.0518 77.62L47.5612 73.2402L42.9766 71.6121Z" fill="#E7E4DE"/>
<path d="M51.8364 57.2488L50.0036 57.6583L50.3881 67.3869L48.7051 80.2919L46.0332 85.5657L48.9348 89.4362L54.6981 90.3651L57.9743 90.0555L61.3453 80.1271L58.7284 70.5582L60.9258 66.4181L59.3976 61.2741L51.8364 57.2488Z" fill="#E7E4DE"/>
<path d="M66.429 63.4116L64.746 63.7163L65.585 70.6432L69.026 78.0795L68.4117 84.1874L66.6837 90.0955L63.3726 95.4942L66.9334 96.3282L70.8988 93.6613L72.9564 89.4712L72.4969 85.356L71.7378 77.1256L74.4047 73.4699L72.5369 69.2198L70.704 67.387L66.429 63.4116Z" fill="#E7E4DE"/>
<path d="M85.6766 79.8774L84.8975 81.1909L86.8951 83.8878L86.5655 86.9891L87.2048 88.6322L88.1187 87.2638L87.5843 81.7003L85.6766 79.8774Z" fill="#E7E4DE"/>
<path d="M75.6632 67.9763L74.6743 68.6705L77.6658 71.2025L78.4199 73.9543L81.8709 76.6712L81.9458 73.6996L78.5148 69.4296L75.6632 67.9763Z" fill="#E7E4DE"/>
<path d="M77.7804 75.8372L79.2587 88.0579L79.7681 92.3878L74.709 97.5468L77.4508 97.7016L82.405 93.127L82.8595 89.701L82.0205 83.0687L81.3363 78.1944L80.5821 76.9608L77.7804 75.8372Z" fill="#E7E4DE"/>
<path d="M87.2099 91.5038L87.3896 93.5714L83.2295 98.0162L85.1423 97.7116L87.5644 95.9386L89.2225 93.8111L88.2736 90.3801L87.2099 91.5038Z" fill="#E7E4DE"/>
<path d="M61.2345 63.871L61.8437 67.232L61.2345 69.0649L65.8191 80.6763L62.3582 92.947L61.0347 94.3204L57.5737 94.5252L60.4554 95.6089C60.6951 95.6988 60.9648 95.6988 61.2045 95.6089L62.3582 95.1844L62.9175 93.811L67.1975 80.0621L63.0723 69.2147L63.9113 66.9973L61.2395 63.866L61.2345 63.871Z" fill="#665A54"/>
<path d="M73.4555 69.5242L77.1213 75.0228L76.482 78.7384L77.7306 83.428V92.7471L73.965 97.1769L72.0771 96.8673L76.3572 92.1328L76.512 83.348L74.5243 78.0792L75.5931 74.793L73.4555 69.5242Z" fill="#665A54"/>
<path d="M83.1591 79.1082L85.4814 83.7777L86.5552 90.3251L85.9808 94.4253L82.2152 98.1959L81.0166 97.9412L84.912 94.1206L85.2916 89.9205L84.2229 84.7266L82.7746 79.9871L83.1591 79.1082Z" fill="#665A54"/>
<path d="M49.2432 89.9705L54.472 91.299L58.5523 90.8545L61.6537 84.0275L62.5426 79.8623L59.7459 72.1513L60.2353 69.6243L64.5952 80.7762L60.8246 92.7972L56.24 93.5613L50.7664 92.0831L49.2432 89.9705Z" fill="#975330"/>
<path d="M67.772 96.4078L71.4677 96.8174L75.9474 91.7283L75.5929 83.373L73.6052 78.0792L74.8287 74.6682L72.5564 77.2652L73.1457 82.9386L73.7999 89.5558L71.6724 94.4002L69.5449 95.6387" fill="#975330"/>
<path d="M82.2498 79.7175L83.3834 83.8827L84.7069 89.8957L84.3024 93.866L80.302 97.8364L77.6401 97.7115L80.6516 95.2844L83.0139 93.7512L83.5482 89.616L82.7792 84.412L82.2498 79.7175Z" fill="#975330"/>
<path d="M85.4956 98.1209L87.0488 98.2458L89.441 96.8025L89.1613 94.635L88.1575 96.1732L85.4956 98.1209Z" fill="#975330"/>
<path d="M87.7882 90.2502L89.8458 88.6221L88.867 82.5242L88.3925 83.5879L88.6272 87.6632L87.3887 89.1414L87.7882 90.2502Z" fill="#975330"/>
<path d="M82.3049 76.9656L84.4275 78.5387L84.1228 73.2399L79.9876 69.6292L79.4683 69.9338L82.8393 74.014L82.3049 76.9656Z" fill="#975330"/>
<path d="M106.287 88.6218L107.206 92.6971L111.176 94.4301L122.683 103.699L127.268 107.565L130.833 108.229L125.23 103.19L109.344 87.1985L106.287 88.6218Z" fill="#665A54"/>
<path d="M107.371 84.8562L106.302 86.0748L106.796 87.7578L108.934 86.9188L107.371 84.8562Z" fill="#665A54"/>
<path d="M111.93 31.6732C96.3486 32.6171 95.5795 33.3812 94.6356 48.9681C93.6917 33.3862 92.9276 32.6171 77.3408 31.6732C92.9226 30.7293 93.6917 29.9652 94.6356 14.3784C95.5795 29.9602 96.3436 30.7293 111.93 31.6732Z" fill="#975330"/>
<path d="M102.656 23.6575C95.8693 31.3185 95.8693 32.0327 102.656 39.6938C94.9953 32.9067 94.2812 32.9067 86.6201 39.6938C93.4072 32.0327 93.4072 31.3185 86.6201 23.6575C94.2812 30.4445 94.9953 30.4445 102.656 23.6575Z" fill="#975330"/>
<path d="M111.932 31.6727C96.3501 32.6166 95.581 33.3808 94.6371 48.9676C93.6932 33.3857 92.9291 32.6166 77.3423 31.6727C92.9241 30.7288 93.6932 29.9647 94.6371 14.3779C95.581 29.9597 96.3451 30.7288 111.932 31.6727Z" fill="#975330"/>
<path d="M111.932 31.6727C96.3501 32.6166 95.581 33.3808 94.6371 48.9676C93.6932 33.3857 92.9291 32.6166 77.3423 31.6727C92.9241 30.7288 93.6932 29.9647 94.6371 14.3779C95.581 29.9597 96.3451 30.7288 111.932 31.6727Z" fill="#975330"/>
<path d="M102.658 23.6577C95.8707 31.3188 95.8707 32.0329 102.658 39.694C94.9968 32.9069 94.2826 32.9069 86.6216 39.694C93.4087 32.0329 93.4087 31.3188 86.6216 23.6577C94.2826 30.4448 94.9968 30.4448 102.658 23.6577Z" fill="#975330"/>
<path d="M102.658 23.6577C95.8707 31.3188 95.8707 32.0329 102.658 39.694C94.9968 32.9069 94.2826 32.9069 86.6216 39.694C93.4087 32.0329 93.4087 31.3188 86.6216 23.6577C94.2826 30.4448 94.9968 30.4448 102.658 23.6577Z" fill="#975330"/>
<path d="M56.7446 124.585L55.8506 126.693L50.4569 127.587L47.0908 129.494L49.3632 126.818L56.7446 124.585Z" fill="#975330"/>
<path d="M52.6645 128.94L60.8799 126.558L60.2307 128.615L53.094 130.343L50.7168 132.076L52.6645 128.94Z" fill="#975330"/>
<path d="M65.4243 125.399L64.775 127.182L62.0981 128.72L65.3843 128.196L66.6778 128.965L66.9625 129.734L67.5718 128.72L65.9087 127.427L66.5979 124.301L65.4243 125.399Z" fill="#975330"/>
<path d="M53.6328 133.844L55.176 131.252L60.9193 128.925L62.2977 129.17L56.2298 132.181L53.6328 133.844Z" fill="#975330"/>
<path d="M56.9897 124.061L48.7543 126.088L46.5669 127.382L48.19 125.249L57.1096 123.371L56.9897 124.061Z" fill="#975330"/>
<defs>
<linearGradient id="paint0_linear_96_2136" x1="0.789928" y1="-130.018" x2="133.205" y2="-130.018" gradientUnits="userSpaceOnUse">
<stop stop-color="#846036"/>
<stop offset="0.61" stop-color="#E8CC97"/>
<stop offset="1" stop-color="#6C471F"/>
</linearGradient>
<linearGradient id="paint1_linear_96_2136" x1="63.2114" y1="3.56084" x2="100.568" y2="68.2606" gradientUnits="userSpaceOnUse">
<stop stop-color="#846036"/>
<stop offset="0.61" stop-color="#E8CC97"/>
<stop offset="1" stop-color="#6C471F"/>
</linearGradient>
<linearGradient id="paint2_linear_96_2136" x1="63.2115" y1="3.56084" x2="100.568" y2="68.2603" gradientUnits="userSpaceOnUse">
<stop stop-color="#846036"/>
<stop offset="0.61" stop-color="#E8CC97"/>
<stop offset="1" stop-color="#6C471F"/>
</linearGradient>
<linearGradient id="paint3_linear_96_2136" x1="63.2115" y1="3.56087" x2="100.568" y2="68.2604" gradientUnits="userSpaceOnUse">
<stop stop-color="#846036"/>
<stop offset="0.61" stop-color="#E8CC97"/>
<stop offset="1" stop-color="#6C471F"/>
</linearGradient>
<linearGradient id="paint4_linear_96_2136" x1="63.2114" y1="3.56097" x2="100.568" y2="68.2604" gradientUnits="userSpaceOnUse">
<stop stop-color="#846036"/>
<stop offset="0.61" stop-color="#E8CC97"/>
<stop offset="1" stop-color="#6C471F"/>
</linearGradient>
<linearGradient id="paint5_linear_96_2136" x1="63.2118" y1="3.56083" x2="100.568" y2="68.2603" gradientUnits="userSpaceOnUse">
<stop stop-color="#846036"/>
<stop offset="0.61" stop-color="#E8CC97"/>
<stop offset="1" stop-color="#6C471F"/>
</linearGradient>
<linearGradient id="paint6_linear_96_2136" x1="63.2116" y1="3.56096" x2="100.568" y2="68.2605" gradientUnits="userSpaceOnUse">
<stop stop-color="#846036"/>
<stop offset="0.61" stop-color="#E8CC97"/>
<stop offset="1" stop-color="#6C471F"/>
</linearGradient>
<linearGradient id="paint7_linear_96_2136" x1="63.2114" y1="3.561" x2="100.568" y2="68.2605" gradientUnits="userSpaceOnUse">
<stop stop-color="#846036"/>
<stop offset="0.61" stop-color="#E8CC97"/>
<stop offset="1" stop-color="#6C471F"/>
</linearGradient>
<linearGradient id="paint8_linear_96_2136" x1="63.211" y1="3.5608" x2="100.567" y2="68.2603" gradientUnits="userSpaceOnUse">
<stop stop-color="#846036"/>
<stop offset="0.61" stop-color="#E8CC97"/>
<stop offset="1" stop-color="#6C471F"/>
</linearGradient>
</defs>
</svg>
