<svg width="77" height="26" viewBox="0 0 77 26" fill="none" xmlns="http://www.w3.org/2000/svg">
<g clip-path="url(#clip0_310_9635)">
<path d="M50.1422 0.89502C44.6806 0.89502 39.7996 3.72627 39.7996 8.95603C39.7996 14.9542 48.4559 15.3685 48.4559 18.3822C48.4559 19.6512 47.0021 20.7869 44.5181 20.7869C40.9938 20.7869 38.3597 19.2 38.3597 19.2L37.2324 24.4782C37.2324 24.4782 40.2669 25.8188 44.2956 25.8188C50.2669 25.8188 54.9663 22.8489 54.9663 17.5291C54.9663 11.1905 46.2737 10.7886 46.2737 7.99201C46.2737 6.99795 47.4672 5.90919 49.9435 5.90919C52.7379 5.90919 55.0171 7.0634 55.0171 7.0634L56.1205 1.96607C56.1205 1.96607 53.6395 0.89502 50.1414 0.89502H50.1422ZM0.171503 1.28001L0.0390625 2.04923C0.0390625 2.04923 2.33674 2.46965 4.4065 3.30893C7.07147 4.27065 7.26089 4.8312 7.7098 6.56984L12.6001 25.4215H19.1559L29.2552 1.28001H22.7148L16.2252 17.6939L13.5772 3.78017C13.3347 2.18783 12.1042 1.27924 10.5988 1.27924H0.172273L0.171503 1.28001ZM31.8855 1.28001L26.755 25.4215H32.992L38.104 1.28001H31.8855ZM66.671 1.28001C65.1672 1.28001 64.3703 2.08542 63.7858 3.49219L54.6482 25.4215H61.1886L62.4537 21.7663H70.4217L71.1909 25.4215H76.9621L71.9278 1.28001H66.671ZM67.5219 7.80259L69.4607 16.8615H64.2671L67.5226 7.80259H67.5219Z" fill="#1434CB"/>
</g>
<defs>
<clipPath id="clip0_310_9635">
<rect width="77" height="25" fill="white" transform="translate(0 0.856445)"/>
</clipPath>
</defs>
</svg>
