<svg width="47" height="29" viewBox="0 0 47 29" fill="none" xmlns="http://www.w3.org/2000/svg">
<path d="M29.3619 3.07129H16.8477V25.6424H29.3619V3.07129Z" fill="#FF5A00"/>
<path d="M17.6792 14.3566C17.6792 9.77088 19.8266 5.70084 23.1217 3.07111C20.6966 1.15689 17.6375 0 14.3007 0C6.39597 0 0 6.421 0 14.3566C0 22.2923 6.39597 28.7133 14.3007 28.7133C17.6375 28.7133 20.6966 27.5564 23.1217 25.6422C19.8219 23.0496 17.6792 18.9424 17.6792 14.3566Z" fill="#EB001B"/>
<path d="M46.2428 14.3566C46.2428 22.2923 39.8469 28.7133 31.9422 28.7133C28.6053 28.7133 25.5462 27.5564 23.1211 25.6422C26.4579 23.0078 28.5637 18.9424 28.5637 14.3566C28.5637 9.77088 26.4163 5.70084 23.1211 3.07111C25.5416 1.15689 28.6007 0 31.9375 0C39.8469 0 46.2428 6.46282 46.2428 14.3566Z" fill="#F79E1B"/>
</svg>
