<svg width="94" height="26" viewBox="0 0 94 26" fill="none" xmlns="http://www.w3.org/2000/svg">
<path d="M0.244141 0.82H8.9833C9.77777 0.82 12.1612 0.558779 13.2205 4.21586C14.0149 6.56684 15.0742 10.2239 16.6632 15.7095H17.1928C18.7818 9.9627 20.1059 6.0444 20.6355 4.21586C21.6948 0.558779 24.343 0.82 25.4023 0.82H33.6119V25.8971H25.1375V11.0076H24.6079L20.1059 25.8971H13.7501L9.24813 11.0076H8.45366V25.8971H0.244141M37.0546 0.82H45.5289V15.7095H46.3234L51.8846 3.4322C52.9439 1.08122 55.3273 0.82 55.3273 0.82H63.272V25.8971H54.7977V11.0076H54.2681L48.7068 23.2849C47.6475 25.6359 44.9992 25.8971 44.9992 25.8971H37.0546M74.6594 18.3217V25.8971H66.7147V12.8361H92.6674C91.6081 15.9708 87.9006 18.3217 83.6634 18.3217" fill="#0F754E"/>
<path d="M93.1956 11.2686C94.2548 6.56667 91.077 0.819824 84.1916 0.819824H66.1836C66.7132 6.30545 71.4801 11.2686 76.5117 11.2686" fill="url(#paint0_linear_310_9654)"/>
<defs>
<linearGradient id="paint0_linear_310_9654" x1="90.0177" y1="-2.57604" x2="68.8318" y2="-2.57604" gradientUnits="userSpaceOnUse">
<stop stop-color="#1F5CD7"/>
<stop offset="1" stop-color="#02AEFF"/>
</linearGradient>
</defs>
</svg>
