<svg width="125" height="124" viewBox="0 0 125 124" fill="none" xmlns="http://www.w3.org/2000/svg">
<path d="M62.4979 1.34663e-06C50.4323 -0.00165097 38.6285 3.51786 28.534 10.1269C18.4396 16.736 10.4932 26.1473 5.66953 37.2067C0.845829 48.2661 -0.645533 60.4928 1.37833 72.3874C3.40219 84.282 8.8533 95.3275 17.0632 104.169C19.4623 89.0439 31.1667 76.5623 46.8345 71.4729C41.4865 68.0803 37.3844 63.0432 35.145 57.1191C32.9056 51.1949 32.6498 44.7039 34.4163 38.6219C36.1827 32.5399 39.8757 27.1957 44.9402 23.3929C50.0047 19.59 56.1668 17.534 62.5001 17.534C68.8334 17.534 74.9956 19.59 80.06 23.3929C85.1245 27.1957 88.8176 32.5399 90.584 38.6219C92.3504 44.7039 92.0947 51.1949 89.8552 57.1191C87.6158 63.0432 83.5137 68.0803 78.1658 71.4729C93.8292 76.5656 105.538 89.0439 107.937 104.169C116.147 95.3272 121.598 84.2813 123.622 72.3863C125.646 60.4913 124.154 48.2642 119.33 37.2046C114.506 26.1451 106.559 16.7338 96.4634 10.1251C86.3683 3.51637 74.5639 -0.00251313 62.4979 1.34663e-06Z" fill="#BEB096" fill-opacity="0.32"/>
<path d="M62.5001 76.0353C41.0575 76.0353 23.6172 91.2548 23.6172 109.959V110.292C34.6348 119.163 48.3548 124 62.5001 124C76.6453 124 90.3653 119.163 101.383 110.292V109.959C101.383 91.2548 83.9426 76.0353 62.5001 76.0353Z" fill="#BEB096" fill-opacity="0.32"/>
<path d="M62.4987 69.0162C74.7734 69.0162 84.724 59.0656 84.724 46.791C84.724 34.5163 74.7734 24.5657 62.4987 24.5657C50.224 24.5657 40.2734 34.5163 40.2734 46.791C40.2734 59.0656 50.224 69.0162 62.4987 69.0162Z" fill="#BEB096" fill-opacity="0.32"/>
</svg>
