<svg width="342" height="239" viewBox="0 0 342 239" fill="none" xmlns="http://www.w3.org/2000/svg">
<g opacity="0.32">
<path d="M142.384 177.865C142.029 185.294 141.469 200.207 141.264 207.617C140.723 217.566 140.629 227.496 142.384 237.37H142.701C145.333 223.109 143.597 207.169 143.336 192.723L142.701 177.846H142.384V177.865Z" fill="#BEB096"/>
<path d="M224.35 0.285889C222.204 62.161 222.204 124.82 224.35 186.695C226.497 124.82 226.478 62.161 224.35 0.285889Z" fill="#BEB096"/>
<path d="M306.514 45.0076C304.368 85.399 304.293 126.089 306.514 166.499C308.736 126.108 308.661 85.399 306.514 45.0076Z" fill="#BEB096"/>
<path d="M296.64 34.7595C218.6 75.431 140.711 118.436 64.7434 162.859C142.783 122.206 220.672 79.164 296.64 34.7595Z" fill="#BEB096"/>
<path d="M341.472 100.013C257.422 144.194 173.448 190.764 91.4701 238.714C175.538 194.534 259.494 147.946 341.472 100.013Z" fill="#BEB096"/>
<path d="M141.585 28.7878C206.391 62.2919 271.103 97.4384 334.714 133.649C334.509 134.209 334.341 134.806 334.21 135.403C269.367 101.19 204.804 65.4836 141.585 28.7878Z" fill="#BEB096"/>
<path d="M75.8821 82.0232C136.992 118.532 199.856 153.604 263.057 186.38C201.965 149.853 139.064 114.799 75.8821 82.0232Z" fill="#BEB096"/>
<path d="M59.9997 165.491C97.666 188.281 136.583 209.373 176.34 228.318C138.711 205.472 99.7005 184.492 59.9997 165.491Z" fill="#BEB096"/>
</g>
<path d="M77.929 118.665C136.164 122.192 139.039 125.048 142.567 183.302C146.094 125.067 148.95 122.192 207.204 118.665C148.969 115.137 146.094 112.281 142.567 54.0271C139.039 112.262 136.183 115.137 77.929 118.665Z" fill="#BEB096"/>
<path d="M112.599 88.7078C137.965 117.34 137.965 120.009 112.599 148.642C141.232 123.276 143.901 123.276 172.533 148.642C147.167 120.009 147.167 117.34 172.533 88.7078C143.901 114.074 141.232 114.074 112.599 88.7078Z" fill="#BEB096"/>
</svg>
