<svg width="282" height="239" viewBox="0 0 282 239" fill="none" xmlns="http://www.w3.org/2000/svg">
<g opacity="0.32">
<path d="M199.616 177.865C199.971 185.294 200.531 200.207 200.736 207.617C201.277 217.566 201.371 227.496 199.616 237.37H199.299C196.667 223.109 198.403 207.169 198.664 192.723L199.299 177.846H199.616V177.865Z" fill="#BEB096"/>
<path d="M117.65 0.285889C119.796 62.161 119.796 124.82 117.65 186.695C115.503 124.82 115.522 62.161 117.65 0.285889Z" fill="#BEB096"/>
<path d="M35.4856 45.0076C37.6321 85.399 37.7068 126.089 35.4856 166.499C33.2645 126.108 33.3391 85.399 35.4856 45.0076Z" fill="#BEB096"/>
<path d="M45.3604 34.7595C123.4 75.431 201.289 118.436 277.257 162.859C199.217 122.206 121.328 79.164 45.3604 34.7595Z" fill="#BEB096"/>
<path d="M0.52832 100.013C84.5777 144.194 168.552 190.764 250.53 238.714C166.462 194.534 82.5058 147.946 0.52832 100.013Z" fill="#BEB096"/>
<path d="M200.415 28.7878C135.609 62.2919 70.8971 97.4384 7.28613 133.649C7.49145 134.209 7.65942 134.806 7.79007 135.403C72.6329 101.19 137.196 65.4836 200.415 28.7878Z" fill="#BEB096"/>
<path d="M266.118 82.0232C205.008 118.532 142.144 153.604 78.9434 186.38C140.035 149.853 202.936 114.799 266.118 82.0232Z" fill="#BEB096"/>
<path d="M282 165.491C244.334 188.281 205.417 209.373 165.66 228.318C203.289 205.472 242.299 184.492 282 165.491Z" fill="#BEB096"/>
</g>
</svg>
