<svg width="20" height="20" viewBox="0 0 20 20" fill="none" xmlns="http://www.w3.org/2000/svg">
<rect width="20" height="20" rx="10" fill="#D37E3E"/>
<path d="M10 6C7.79 6 6 7.79 6 10C6 10.88 6.28 11.69 6.76 12.35L6.21 13.8L7.8 13.34C8.43 13.76 9.19 14 10 14C12.21 14 14 12.21 14 10C14 7.79 12.21 6 10 6ZM12.13 11.66L11.7 12.08C11.25 12.53 10.06 12.04 9.01 10.98C7.96 9.93 7.49 8.74 7.91 8.3L8.34 7.87C8.5 7.71 8.77 7.71 8.94 7.87L9.57 8.5C9.79 8.72 9.7 9.1 9.41 9.19C9.21 9.26 9.07 9.48 9.14 9.68C9.25 10.15 9.86 10.73 10.31 10.84C10.51 10.89 10.74 10.77 10.8 10.57C10.89 10.28 11.27 10.19 11.49 10.41L12.12 11.04C12.28 11.21 12.28 11.48 12.13 11.66Z" fill="white"/>
</svg>
