<svg width="16" height="17" viewBox="0 0 16 17" fill="none" xmlns="http://www.w3.org/2000/svg">
<rect y="0.5" width="16" height="16" rx="8" fill="white" fill-opacity="0.32"/>
<path d="M8 4.5C5.79 4.5 4 6.29 4 8.5C4 9.38 4.28 10.19 4.76 10.85L4.21 12.3L5.8 11.84C6.43 12.26 7.19 12.5 8 12.5C10.21 12.5 12 10.71 12 8.5C12 6.29 10.21 4.5 8 4.5ZM10.13 10.16L9.7 10.58C9.25 11.03 8.06 10.54 7.01 9.48C5.96 8.43 5.49 7.24 5.91 6.8L6.34 6.37C6.5 6.21 6.77 6.21 6.94 6.37L7.57 7C7.79 7.22 7.7 7.6 7.41 7.69C7.21 7.76 7.07 7.98 7.14 8.18C7.25 8.65 7.86 9.23 8.31 9.34C8.51 9.39 8.74 9.27 8.8 9.07C8.89 8.78 9.27 8.69 9.49 8.91L10.12 9.54C10.28 9.71 10.28 9.98 10.13 10.16Z" fill="#38332F"/>
</svg>
