<svg width="42" height="42" viewBox="0 0 42 42" fill="none" xmlns="http://www.w3.org/2000/svg">
<rect x="-0.75" y="0.75" width="40.5" height="40.5" rx="20.25" transform="matrix(-1 0 0 1 40.5 0)" stroke="#D37E3E" stroke-width="1.5"/>
<path d="M17.981 23.2269L17.6833 27.1357C18.1093 27.1357 18.2938 26.9649 18.515 26.7598L20.5123 24.9783L24.6509 27.807C25.4099 28.2018 25.9447 27.9939 26.1495 27.1553L28.866 15.275L28.8668 15.2743C29.1075 14.2271 28.461 13.8176 27.7215 14.0745L11.7536 19.7802C10.6638 20.175 10.6803 20.7419 11.5684 20.9988L15.6507 22.1839L25.1332 16.6463C25.5795 16.3705 25.9852 16.5231 25.6515 16.7989L17.981 23.2269Z" fill="#D37E3E"/>
</svg>
