<svg width="42" height="42" viewBox="0 0 42 42" fill="none" xmlns="http://www.w3.org/2000/svg">
<rect x="-0.75" y="0.75" width="40.5" height="40.5" rx="20.25" transform="matrix(-1 0 0 1 40.5 0)" stroke="url(#paint0_linear_96_2337)" stroke-width="1.5"/>
<path d="M30.0474 16.825C29.8224 17.5382 29.519 18.1591 29.1389 18.7228L29.1548 18.6976C28.7814 19.3248 28.3355 20.0496 27.8171 20.8717C27.3725 21.5209 27.1372 21.8569 27.1111 21.8799C26.9961 22.0252 26.9161 22.2033 26.8886 22.399L26.8877 22.4049C26.9102 22.583 26.9919 22.7384 27.1111 22.8544L27.4445 23.2291C29.2281 25.0767 30.2313 26.3503 30.4542 27.0498C30.4833 27.1271 30.5 27.2162 30.5 27.3094C30.5 27.4724 30.4483 27.6228 30.3608 27.7463L30.3625 27.7438C30.2158 27.8958 30.0107 27.9899 29.784 27.9899C29.759 27.9899 29.7332 27.9891 29.709 27.9866H29.7124H27.5195C27.5195 27.9866 27.517 27.9866 27.5153 27.9866C27.2345 27.9866 26.9761 27.8874 26.7735 27.7228L26.776 27.7244C26.481 27.48 26.2185 27.2153 25.9834 26.928L25.9759 26.9179C25.592 26.4805 25.2513 26.1123 24.9541 25.8132C23.9639 24.8645 23.2332 24.3901 22.762 24.3901C22.7445 24.3884 22.7245 24.3876 22.7037 24.3876C22.5662 24.3876 22.4378 24.4304 22.332 24.5035L22.3345 24.5018C22.2478 24.611 22.1953 24.7522 22.1953 24.9042C22.1953 24.9345 22.1969 24.963 22.2011 24.9924V24.9891C22.1786 25.2529 22.1653 25.5595 22.1653 25.8695C22.1653 25.9695 22.1669 26.0686 22.1694 26.1677V26.1535V27.1271C22.1778 27.1666 22.1828 27.212 22.1828 27.2582C22.1828 27.4615 22.0911 27.643 21.9477 27.7631L21.9469 27.7639C21.6244 27.9126 21.2476 28 20.8501 28C20.765 28 20.6817 27.9958 20.5992 27.9882L20.61 27.9891C19.2981 27.9639 18.0813 27.5766 17.0469 26.9238L17.0761 26.9406C15.8167 26.1694 14.7732 25.1655 13.9781 23.9793L13.9556 23.944C13.2005 22.9342 12.4962 21.7933 11.8961 20.5903L11.8377 20.4609C11.4868 19.7872 11.1234 18.9588 10.8101 18.107L10.76 17.9516C10.6325 17.5685 10.54 17.1232 10.5017 16.662L10.5 16.641C10.5 16.2165 10.7478 16.0042 11.2435 16.0042H13.4355C13.4555 16.0025 13.4788 16.0017 13.503 16.0017C13.7097 16.0017 13.9006 16.0731 14.0514 16.1932L14.0498 16.1915C14.2165 16.3755 14.3398 16.6015 14.4007 16.8535L14.4032 16.8636C14.8066 18.012 15.2341 18.9765 15.7259 19.9006L15.67 19.7855C16.0718 20.6004 16.516 21.3019 17.0228 21.9496L17.0036 21.9236C17.4481 22.4735 17.7948 22.7485 18.0438 22.7485C18.0513 22.7494 18.0604 22.7494 18.0704 22.7494C18.1938 22.7494 18.3013 22.6822 18.3596 22.5813L18.3605 22.5797C18.4222 22.42 18.458 22.2344 18.458 22.0412C18.458 22 18.4563 21.9588 18.453 21.9185V21.9236V18.6648C18.4355 18.2809 18.3421 17.9222 18.1863 17.6004L18.1929 17.6164C18.0896 17.3946 17.9654 17.203 17.8179 17.0325L17.8204 17.0358C17.6837 16.8981 17.5903 16.7174 17.5612 16.5158L17.5603 16.5108C17.5603 16.368 17.6254 16.2394 17.727 16.1554L17.7279 16.1546C17.8287 16.0613 17.9637 16.005 18.1113 16.005H18.1179H21.5735C21.5918 16.0025 21.6127 16.0017 21.6344 16.0017C21.7969 16.0017 21.9427 16.0756 22.0394 16.1915L22.0403 16.1924C22.1261 16.3503 22.1769 16.5393 22.1769 16.7393C22.1769 16.7712 22.1753 16.8023 22.1728 16.8334V16.8292V21.175C22.1711 21.1952 22.1703 21.2187 22.1703 21.2422C22.1703 21.3968 22.2128 21.5421 22.2861 21.6656L22.2845 21.6623C22.3453 21.753 22.447 21.8118 22.562 21.8118C22.7087 21.8017 22.8429 21.753 22.9554 21.6757L22.9529 21.6774C23.1796 21.5203 23.3746 21.3414 23.5438 21.1389L23.5472 21.1347C24.0531 20.5584 24.5198 19.9216 24.9266 19.2445L24.9591 19.1857C25.2458 18.7068 25.5558 18.1171 25.8367 17.5113L25.8884 17.3878L26.2601 16.6385C26.3893 16.2638 26.736 16 27.1436 16C27.1594 16 27.1753 16 27.1911 16.0008H27.1886H29.3815C29.9738 16.0008 30.1961 16.2756 30.0483 16.825H30.0474Z" fill="url(#paint1_linear_96_2337)"/>
<defs>
<linearGradient id="paint0_linear_96_2337" x1="-0.00158413" y1="-472.22" x2="42" y2="-472.22" gradientUnits="userSpaceOnUse">
<stop stop-color="#846036"/>
<stop offset="0.61" stop-color="#E8CC97"/>
<stop offset="1" stop-color="#6C471F"/>
</linearGradient>
<linearGradient id="paint1_linear_96_2337" x1="10.4992" y1="-118.92" x2="30.5" y2="-118.92" gradientUnits="userSpaceOnUse">
<stop stop-color="#846036"/>
<stop offset="0.61" stop-color="#E8CC97"/>
<stop offset="1" stop-color="#6C471F"/>
</linearGradient>
</defs>
</svg>
