<svg width="42" height="42" viewBox="0 0 42 42" fill="none" xmlns="http://www.w3.org/2000/svg">
<rect x="-0.75" y="0.75" width="40.5" height="40.5" rx="20.25" transform="matrix(-1 0 0 1 40.5 0)" stroke="#D37E3E" stroke-width="1.5"/>
<path d="M21 12C16.0275 12 12 16.0275 12 21C12 22.98 12.63 24.8025 13.71 26.2875L12.4725 29.55L16.05 28.515C17.4675 29.46 19.1775 30 21 30C25.9725 30 30 25.9725 30 21C30 16.0275 25.9725 12 21 12ZM25.7925 24.735L24.825 25.68C23.8125 26.6925 21.135 25.59 18.7725 23.205C16.41 20.8425 15.3525 18.165 16.2975 17.175L17.265 16.2075C17.625 15.8475 18.2325 15.8475 18.615 16.2075L20.0325 17.625C20.5275 18.12 20.325 18.975 19.6725 19.1775C19.2225 19.335 18.9075 19.83 19.065 20.28C19.3125 21.3375 20.685 22.6425 21.6975 22.89C22.1475 23.0025 22.665 22.7325 22.8 22.2825C23.0025 21.63 23.8575 21.4275 24.3525 21.9225L25.77 23.34C26.13 23.7225 26.13 24.33 25.7925 24.735Z" fill="#BEB096"/>
<path d="M21 12C16.0275 12 12 16.0275 12 21C12 22.98 12.63 24.8025 13.71 26.2875L12.4725 29.55L16.05 28.515C17.4675 29.46 19.1775 30 21 30C25.9725 30 30 25.9725 30 21C30 16.0275 25.9725 12 21 12ZM25.7925 24.735L24.825 25.68C23.8125 26.6925 21.135 25.59 18.7725 23.205C16.41 20.8425 15.3525 18.165 16.2975 17.175L17.265 16.2075C17.625 15.8475 18.2325 15.8475 18.615 16.2075L20.0325 17.625C20.5275 18.12 20.325 18.975 19.6725 19.1775C19.2225 19.335 18.9075 19.83 19.065 20.28C19.3125 21.3375 20.685 22.6425 21.6975 22.89C22.1475 23.0025 22.665 22.7325 22.8 22.2825C23.0025 21.63 23.8575 21.4275 24.3525 21.9225L25.77 23.34C26.13 23.7225 26.13 24.33 25.7925 24.735Z" fill="#D37E3E"/>
</svg>
