<svg width="42" height="42" viewBox="0 0 42 42" fill="none" xmlns="http://www.w3.org/2000/svg">
<rect x="-0.75" y="0.75" width="40.5" height="40.5" rx="20.25" transform="matrix(-1 0 0 1 40.5 0)" stroke="#D37E3E" stroke-width="1.5"/>
<path d="M29.6264 16.6707C29.5234 16.2914 29.3234 15.9455 29.046 15.667C28.7687 15.3886 28.4236 15.1871 28.0447 15.0826C26.6331 14.6982 20.9994 14.6982 20.9994 14.6982C20.9994 14.6982 15.3656 14.6982 13.954 15.07C13.5754 15.179 13.231 15.3834 12.9541 15.6637C12.6771 15.944 12.4768 16.2907 12.3723 16.6707C12.1159 18.0993 11.9914 19.5485 12.0005 21C11.991 22.4514 12.1155 23.9007 12.3723 25.3292C12.4753 25.7085 12.6753 26.0545 12.9527 26.3329C13.23 26.6114 13.5752 26.8128 13.954 26.9173C15.3782 27.3017 20.9994 27.3017 20.9994 27.3017C20.9994 27.3017 26.6331 27.3017 28.0447 26.9299C28.4241 26.8265 28.7699 26.6255 29.0474 26.3469C29.3249 26.0682 29.5246 25.7217 29.6264 25.3419C29.8836 23.9091 30.0081 22.4556 29.9982 21C30.0166 19.5482 29.8921 18.0981 29.6264 16.6707ZM19.2034 23.6971V18.3028L23.8919 21L19.2034 23.6971Z" fill="black"/>
<path d="M29.6264 16.6707C29.5234 16.2914 29.3234 15.9455 29.046 15.667C28.7687 15.3886 28.4236 15.1871 28.0447 15.0826C26.6331 14.6982 20.9994 14.6982 20.9994 14.6982C20.9994 14.6982 15.3656 14.6982 13.954 15.07C13.5754 15.179 13.231 15.3834 12.9541 15.6637C12.6771 15.944 12.4768 16.2907 12.3723 16.6707C12.1159 18.0993 11.9914 19.5485 12.0005 21C11.991 22.4514 12.1155 23.9007 12.3723 25.3292C12.4753 25.7085 12.6753 26.0545 12.9527 26.3329C13.23 26.6114 13.5752 26.8128 13.954 26.9173C15.3782 27.3017 20.9994 27.3017 20.9994 27.3017C20.9994 27.3017 26.6331 27.3017 28.0447 26.9299C28.4241 26.8265 28.7699 26.6255 29.0474 26.3469C29.3249 26.0682 29.5246 25.7217 29.6264 25.3419C29.8836 23.9091 30.0081 22.4556 29.9982 21C30.0166 19.5482 29.8921 18.0981 29.6264 16.6707ZM19.2034 23.6971V18.3028L23.8919 21L19.2034 23.6971Z" fill="#D37E3E"/>
</svg>
